<svg id="Layer_1" height="512" viewBox="0 0 100 100" width="512" xmlns="http://www.w3.org/2000/svg"><path d="m50 10c-22.09 0-40 17.91-40 40 0 22.093 17.91 40 40 40 22.093 0 40-17.907 40-40 0-22.09-17.907-40-40-40zm-23.972 63.128c-1.553-1.611-2.939-3.379-4.144-5.276 5.795-4.893 13.272-7.852 21.449-7.852h13.334c10.26 0 19.58-3.896 26.653-10.254 0 .088.013.169.013.254 0 3.157-.469 6.198-1.289 9.092-7.311 4.769-16.012 7.575-25.377 7.575h-13.334c-6.614 0-12.643 2.454-17.305 6.461zm-7.187-11.367c-.836-2.213-1.438-4.537-1.787-6.946 7.49-5.134 16.537-8.151 26.279-8.151h13.334c9.534 0 17.906-5.039 22.62-12.591 1.25 2.292 2.2 4.763 2.888 7.341-6.11 7.278-15.261 11.917-25.508 11.917h-13.334c-9.241-.001-17.725 3.163-24.492 8.43zm56.123-33.798c-3.086 7.066-10.107 12.034-18.297 12.034h-13.334c-9.648 0-18.701 2.588-26.52 7.093.257-2.939.908-5.759 1.875-8.428 7.525-3.411 15.862-5.332 24.645-5.332h13.334c6.285 0 11.533-4.385 12.936-10.248 1.96 1.43 3.756 3.064 5.361 4.881zm-24.964-11.297c4.743 0 9.248 1.006 13.333 2.793v.531c0 3.678-2.991 6.674-6.666 6.674h-13.334c-6.878 0-13.496 1.096-19.739 3.049 6.094-7.92 15.641-13.047 26.406-13.047zm0 66.667c-6.982 0-13.457-2.154-18.815-5.823 3.373-2.604 7.572-4.177 12.148-4.177h13.334c7.301 0 14.251-1.504 20.589-4.18-6.032 8.569-15.98 14.18-27.256 14.18z"/></svg>