<?xml version="1.0" encoding="UTF-8" standalone="no"?>
<!DOCTYPE svg PUBLIC "-//W3C//DTD SVG 1.1//EN" "http://www.w3.org/Graphics/SVG/1.1/DTD/svg11.dtd">
<!-- Created with Vectornator (http://vectornator.io/) -->
<svg height="100%" stroke-miterlimit="10" style="fill-rule:nonzero;clip-rule:evenodd;stroke-linecap:round;stroke-linejoin:round;" version="1.1" viewBox="0 0 1397.92 309.465" width="100%" xml:space="preserve" xmlns="http://www.w3.org/2000/svg" xmlns:vectornator="http://vectornator.io" xmlns:xlink="http://www.w3.org/1999/xlink">
<defs/>
<g id="Main" vectornator:layerName="Main">
<g opacity="1">
<path d="M369.352 171.844C366.536 171.844 363.784 171.758 361.096 171.588C358.408 171.417 355.763 171.161 353.16 170.82C350.558 170.478 348.062 170.094 345.672 169.668C343.283 169.241 340.979 168.729 338.76 168.132L338.76 148.42C341.662 148.676 344.798 148.889 348.168 149.06C351.539 149.23 354.952 149.358 358.408 149.444C361.864 149.529 365.086 149.572 368.072 149.572C370.888 149.572 373.235 149.358 375.112 148.932C376.99 148.505 378.398 147.822 379.336 146.884C380.275 145.945 380.744 144.665 380.744 143.044L380.744 141.508C380.744 139.63 380.083 138.222 378.76 137.284C377.438 136.345 375.88 135.876 374.088 135.876L367.304 135.876C357.406 135.876 349.896 133.7 344.776 129.348C339.656 124.996 337.096 117.7 337.096 107.46L337.096 103.236C337.096 93.8491 339.912 86.8304 345.544 82.1798C351.176 77.5291 359.283 75.2038 369.864 75.2038C373.875 75.2038 377.651 75.3958 381.192 75.7798C384.734 76.1638 388.062 76.6331 391.176 77.1878C394.291 77.7424 397.086 78.3184 399.56 78.9158L399.56 98.6281C395.635 98.2861 391.219 98.0091 386.312 97.7961C381.406 97.5824 376.947 97.4758 372.936 97.4758C370.547 97.4758 368.414 97.6464 366.536 97.9881C364.659 98.3291 363.208 99.0121 362.184 100.036C361.16 101.06 360.648 102.553 360.648 104.516L360.648 105.796C360.648 107.929 361.331 109.55 362.696 110.66C364.062 111.769 366.152 112.324 368.968 112.324L377.416 112.324C383.39 112.324 388.36 113.454 392.328 115.716C396.296 117.977 399.283 121.049 401.288 124.932C403.294 128.814 404.296 133.23 404.296 138.18L404.296 142.404C404.296 150.51 402.888 156.697 400.072 160.964C397.256 165.23 393.246 168.11 388.04 169.604C382.835 171.097 376.606 171.844 369.352 171.844Z" fill="#ffffff" fill-rule="nonzero" opacity="1" stroke="none"/>
<path d="M415.944 171.076L415.944 75.9718L440.776 75.9718L440.776 171.076L415.944 171.076Z" fill="#ffffff" fill-rule="nonzero" opacity="1" stroke="none"/>
<path d="M479.56 171.076C473.843 171.076 469.15 170.222 465.48 168.516C461.811 166.809 459.123 164.121 457.416 160.452C455.71 156.782 454.856 152.089 454.856 146.372L454.856 75.9718L479.688 75.9718L479.688 142.148C479.688 143.598 479.923 144.836 480.392 145.86C480.862 146.884 481.608 147.63 482.632 148.1C483.656 148.569 484.894 148.804 486.344 148.804L513.992 148.804L513.992 171.076L479.56 171.076Z" fill="#ffffff" fill-rule="nonzero" opacity="1" stroke="none"/>
<path d="M542.152 171.076L513.992 75.9718L539.72 75.9718L557.768 144.068L575.816 75.9718L601.288 75.9718L573.128 171.076L542.152 171.076Z" fill="#ffffff" fill-rule="nonzero" opacity="1" stroke="none"/>
<path d="M630.856 171.844C628.808 171.844 626.355 171.63 623.496 171.204C620.638 170.777 617.864 169.838 615.176 168.388C612.488 166.937 610.248 164.697 608.456 161.668C606.664 158.638 605.768 154.478 605.768 149.188L605.768 99.5241C605.768 94.9158 606.494 91.0758 607.944 88.0038C609.395 84.9318 611.272 82.5211 613.576 80.7718C615.88 79.0224 618.44 77.7851 621.256 77.0598C624.072 76.3344 626.803 75.9718 629.448 75.9718C636.616 75.9718 642.782 76.0784 647.944 76.2918C653.107 76.5051 657.587 76.7398 661.384 76.9958C665.182 77.2518 668.531 77.5504 671.432 77.8918L671.432 98.8841L637.128 98.8841C634.995 98.8841 633.374 99.3531 632.264 100.292C631.155 101.23 630.6 102.638 630.6 104.516L630.6 112.452L665.032 113.732L665.032 133.444L630.6 134.724L630.6 141.892C630.6 143.428 630.835 144.686 631.304 145.668C631.774 146.649 632.435 147.374 633.288 147.844C634.142 148.313 635.08 148.548 636.104 148.548L671.432 148.548L671.432 169.54C667.763 170.052 663.582 170.478 658.888 170.82C654.195 171.161 649.416 171.417 644.552 171.588C639.688 171.758 635.123 171.844 630.856 171.844Z" fill="#ffffff" fill-rule="nonzero" opacity="1" stroke="none"/>
<path d="M683.08 171.076L683.08 75.9718L723.656 75.9718C727.838 75.9718 731.678 76.4838 735.176 77.5078C738.675 78.5318 741.704 80.2598 744.264 82.6918C746.824 85.1238 748.808 88.3878 750.216 92.4838C751.624 96.5798 752.328 101.742 752.328 107.972C752.328 111.897 751.987 115.31 751.304 118.212C750.622 121.113 749.704 123.566 748.552 125.572C747.4 127.577 746.035 129.262 744.456 130.628C742.878 131.993 741.192 133.188 739.4 134.212L755.912 171.076L730.696 171.076L717.384 138.308C716.616 138.308 715.827 138.308 715.016 138.308C714.206 138.308 713.416 138.308 712.648 138.308C711.88 138.308 711.091 138.308 710.28 138.308C709.47 138.308 708.68 138.308 707.912 138.308L707.912 171.076L683.08 171.076ZM707.912 118.596L719.176 118.596C720.542 118.596 721.736 118.404 722.76 118.02C723.784 117.636 724.659 117.017 725.384 116.164C726.11 115.31 726.643 114.222 726.984 112.9C727.326 111.577 727.496 109.977 727.496 108.1C727.496 106.222 727.326 104.644 726.984 103.364C726.643 102.084 726.11 101.081 725.384 100.356C724.659 99.6301 723.784 99.0971 722.76 98.7561C721.736 98.4141 720.542 98.2441 719.176 98.2441L707.912 98.2441L707.912 118.596Z" fill="#ffffff" fill-rule="nonzero" opacity="1" stroke="none"/>
<path d="M826.824 171.844C824.008 171.844 821.256 171.758 818.568 171.588C815.88 171.417 813.235 171.161 810.632 170.82C808.03 170.478 805.534 170.094 803.144 169.668C800.755 169.241 798.451 168.729 796.232 168.132L796.232 148.42C799.134 148.676 802.27 148.889 805.64 149.06C809.011 149.23 812.424 149.358 815.88 149.444C819.336 149.529 822.558 149.572 825.544 149.572C828.36 149.572 830.707 149.358 832.584 148.932C834.462 148.505 835.87 147.822 836.808 146.884C837.747 145.945 838.216 144.665 838.216 143.044L838.216 141.508C838.216 139.63 837.555 138.222 836.232 137.284C834.91 136.345 833.352 135.876 831.56 135.876L824.776 135.876C814.878 135.876 807.368 133.7 802.248 129.348C797.128 124.996 794.568 117.7 794.568 107.46L794.568 103.236C794.568 93.8491 797.384 86.8304 803.016 82.1798C808.648 77.5291 816.755 75.2038 827.336 75.2038C831.347 75.2038 835.123 75.3958 838.664 75.7798C842.206 76.1638 845.534 76.6331 848.648 77.1878C851.763 77.7424 854.558 78.3184 857.032 78.9158L857.032 98.6281C853.107 98.2861 848.691 98.0091 843.784 97.7961C838.878 97.5824 834.419 97.4758 830.408 97.4758C828.019 97.4758 825.886 97.6464 824.008 97.9881C822.131 98.3291 820.68 99.0121 819.656 100.036C818.632 101.06 818.12 102.553 818.12 104.516L818.12 105.796C818.12 107.929 818.803 109.55 820.168 110.66C821.534 111.769 823.624 112.324 826.44 112.324L834.888 112.324C840.862 112.324 845.832 113.454 849.8 115.716C853.768 117.977 856.755 121.049 858.76 124.932C860.766 128.814 861.768 133.23 861.768 138.18L861.768 142.404C861.768 150.51 860.36 156.697 857.544 160.964C854.728 165.23 850.718 168.11 845.512 169.604C840.307 171.097 834.078 171.844 826.824 171.844Z" fill="#ffffff" fill-rule="nonzero" opacity="1" stroke="none"/>
<path d="M910.664 171.716C905.459 171.716 900.531 171.289 895.88 170.436C891.23 169.582 887.112 168.004 883.528 165.7C879.944 163.396 877.15 160.153 875.144 155.972C873.139 151.79 872.136 146.372 872.136 139.716L872.136 75.9718L896.968 75.9718L896.968 139.588C896.968 141.806 897.502 143.641 898.568 145.092C899.635 146.542 901.192 147.63 903.24 148.356C905.288 149.081 907.763 149.444 910.664 149.444C913.566 149.444 916.04 149.081 918.088 148.356C920.136 147.63 921.694 146.542 922.76 145.092C923.827 143.641 924.36 141.806 924.36 139.588L924.36 75.9718L949.192 75.9718L949.192 139.716C949.192 146.372 948.19 151.79 946.184 155.972C944.179 160.153 941.384 163.396 937.8 165.7C934.216 168.004 930.12 169.582 925.512 170.436C920.904 171.289 915.955 171.716 910.664 171.716Z" fill="#ffffff" fill-rule="nonzero" opacity="1" stroke="none"/>
<path d="M961.992 171.076L961.992 75.9718L1002.57 75.9718C1006.75 75.9718 1010.59 76.4838 1014.09 77.5078C1017.59 78.5318 1020.62 80.2598 1023.18 82.6918C1025.74 85.1238 1027.72 88.3878 1029.13 92.4838C1030.54 96.5798 1031.24 101.742 1031.24 107.972C1031.24 111.897 1030.9 115.31 1030.22 118.212C1029.53 121.113 1028.62 123.566 1027.46 125.572C1026.31 127.577 1024.95 129.262 1023.37 130.628C1021.79 131.993 1020.1 133.188 1018.31 134.212L1034.82 171.076L1009.61 171.076L996.296 138.308C995.528 138.308 994.739 138.308 993.928 138.308C993.118 138.308 992.328 138.308 991.56 138.308C990.792 138.308 990.003 138.308 989.192 138.308C988.382 138.308 987.592 138.308 986.824 138.308L986.824 171.076L961.992 171.076ZM986.824 118.596L998.088 118.596C999.454 118.596 1000.65 118.404 1001.67 118.02C1002.7 117.636 1003.57 117.017 1004.3 116.164C1005.02 115.31 1005.56 114.222 1005.9 112.9C1006.24 111.577 1006.41 109.977 1006.41 108.1C1006.41 106.222 1006.24 104.644 1005.9 103.364C1005.56 102.084 1005.02 101.081 1004.3 100.356C1003.57 99.6301 1002.7 99.0971 1001.67 98.7561C1000.65 98.4141 999.454 98.2441 998.088 98.2441L986.824 98.2441L986.824 118.596Z" fill="#ffffff" fill-rule="nonzero" opacity="1" stroke="none"/>
<path d="M1043.91 171.076L1043.91 99.5241C1043.91 94.9158 1044.64 91.0758 1046.09 88.0038C1047.54 84.9318 1049.42 82.5211 1051.72 80.7718C1054.02 79.0224 1056.58 77.7851 1059.4 77.0598C1062.22 76.3344 1064.95 75.9718 1067.59 75.9718C1070.24 75.9718 1073.91 75.9931 1078.6 76.0358C1083.29 76.0784 1088.39 76.2491 1093.9 76.5478C1099.4 76.8464 1104.63 77.3371 1109.58 78.0198L1109.58 98.8841L1074.76 98.8841C1072.63 98.8841 1071.09 99.4601 1070.15 100.612C1069.21 101.764 1068.74 102.98 1068.74 104.26L1068.74 115.012L1103.18 116.292L1103.18 136.004L1068.74 137.284L1068.74 171.076L1043.91 171.076Z" fill="#ffffff" fill-rule="nonzero" opacity="1" stroke="none"/>
<path d="M1143.62 171.844C1141.58 171.844 1139.12 171.63 1136.26 171.204C1133.41 170.777 1130.63 169.838 1127.94 168.388C1125.26 166.937 1123.02 164.697 1121.22 161.668C1119.43 158.638 1118.54 154.478 1118.54 149.188L1118.54 99.5241C1118.54 94.9158 1119.26 91.0758 1120.71 88.0038C1122.16 84.9318 1124.04 82.5211 1126.34 80.7718C1128.65 79.0224 1131.21 77.7851 1134.02 77.0598C1136.84 76.3344 1139.57 75.9718 1142.22 75.9718C1149.38 75.9718 1155.55 76.0784 1160.71 76.2918C1165.87 76.5051 1170.35 76.7398 1174.15 76.9958C1177.95 77.2518 1181.3 77.5504 1184.2 77.8918L1184.2 98.8841L1149.9 98.8841C1147.76 98.8841 1146.14 99.3531 1145.03 100.292C1143.92 101.23 1143.37 102.638 1143.37 104.516L1143.37 112.452L1177.8 113.732L1177.8 133.444L1143.37 134.724L1143.37 141.892C1143.37 143.428 1143.6 144.686 1144.07 145.668C1144.54 146.649 1145.2 147.374 1146.06 147.844C1146.91 148.313 1147.85 148.548 1148.87 148.548L1184.2 148.548L1184.2 169.54C1180.53 170.052 1176.35 170.478 1171.66 170.82C1166.96 171.161 1162.18 171.417 1157.32 171.588C1152.46 171.758 1147.89 171.844 1143.62 171.844Z" fill="#ffffff" fill-rule="nonzero" opacity="1" stroke="none"/>
<path d="M1195.85 171.076L1195.85 75.9718L1236.42 75.9718C1240.61 75.9718 1244.45 76.4838 1247.94 77.5078C1251.44 78.5318 1254.47 80.2598 1257.03 82.6918C1259.59 85.1238 1261.58 88.3878 1262.98 92.4838C1264.39 96.5798 1265.1 101.742 1265.1 107.972C1265.1 111.897 1264.75 115.31 1264.07 118.212C1263.39 121.113 1262.47 123.566 1261.32 125.572C1260.17 127.577 1258.8 129.262 1257.22 130.628C1255.65 131.993 1253.96 133.188 1252.17 134.212L1268.68 171.076L1243.46 171.076L1230.15 138.308C1229.38 138.308 1228.59 138.308 1227.78 138.308C1226.97 138.308 1226.18 138.308 1225.42 138.308C1224.65 138.308 1223.86 138.308 1223.05 138.308C1222.24 138.308 1221.45 138.308 1220.68 138.308L1220.68 171.076L1195.85 171.076ZM1220.68 118.596L1231.94 118.596C1233.31 118.596 1234.5 118.404 1235.53 118.02C1236.55 117.636 1237.43 117.017 1238.15 116.164C1238.88 115.31 1239.41 114.222 1239.75 112.9C1240.09 111.577 1240.26 109.977 1240.26 108.1C1240.26 106.222 1240.09 104.644 1239.75 103.364C1239.41 102.084 1238.88 101.081 1238.15 100.356C1237.43 99.6301 1236.55 99.0971 1235.53 98.7561C1234.5 98.4141 1233.31 98.2441 1231.94 98.2441L1220.68 98.2441L1220.68 118.596Z" fill="#ffffff" fill-rule="nonzero" opacity="1" stroke="none"/>
<path d="M1307.59 171.844C1304.78 171.844 1302.02 171.758 1299.34 171.588C1296.65 171.417 1294 171.161 1291.4 170.82C1288.8 170.478 1286.3 170.094 1283.91 169.668C1281.52 169.241 1279.22 168.729 1277 168.132L1277 148.42C1279.9 148.676 1283.04 148.889 1286.41 149.06C1289.78 149.23 1293.19 149.358 1296.65 149.444C1300.1 149.529 1303.33 149.572 1306.31 149.572C1309.13 149.572 1311.47 149.358 1313.35 148.932C1315.23 148.505 1316.64 147.822 1317.58 146.884C1318.51 145.945 1318.98 144.665 1318.98 143.044L1318.98 141.508C1318.98 139.63 1318.32 138.222 1317 137.284C1315.68 136.345 1314.12 135.876 1312.33 135.876L1305.54 135.876C1295.65 135.876 1288.14 133.7 1283.02 129.348C1277.9 124.996 1275.34 117.7 1275.34 107.46L1275.34 103.236C1275.34 93.8491 1278.15 86.8304 1283.78 82.1798C1289.42 77.5291 1297.52 75.2038 1308.1 75.2038C1312.11 75.2038 1315.89 75.3958 1319.43 75.7798C1322.97 76.1638 1326.3 76.6331 1329.42 77.1878C1332.53 77.7424 1335.33 78.3184 1337.8 78.9158L1337.8 98.6281C1333.87 98.2861 1329.46 98.0091 1324.55 97.7961C1319.65 97.5824 1315.19 97.4758 1311.18 97.4758C1308.79 97.4758 1306.65 97.6464 1304.78 97.9881C1302.9 98.3291 1301.45 99.0121 1300.42 100.036C1299.4 101.06 1298.89 102.553 1298.89 104.516L1298.89 105.796C1298.89 107.929 1299.57 109.55 1300.94 110.66C1302.3 111.769 1304.39 112.324 1307.21 112.324L1315.66 112.324C1321.63 112.324 1326.6 113.454 1330.57 115.716C1334.54 117.977 1337.52 121.049 1339.53 124.932C1341.53 128.814 1342.54 133.23 1342.54 138.18L1342.54 142.404C1342.54 150.51 1341.13 156.697 1338.31 160.964C1335.5 165.23 1331.49 168.11 1326.28 169.604C1321.07 171.097 1314.85 171.844 1307.59 171.844Z" fill="#ffffff" fill-rule="nonzero" opacity="1" stroke="none"/>
</g>
<g opacity="1">
<path d="M341.186 232.292L341.186 196.792L349.936 196.792C353.37 196.792 356.295 197.334 358.711 198.417C361.128 199.501 363.086 200.926 364.586 202.692C366.086 204.459 367.186 206.392 367.886 208.492C368.586 210.592 368.936 212.676 368.936 214.742C368.936 217.442 368.47 219.867 367.536 222.017C366.603 224.167 365.328 226.009 363.711 227.542C362.095 229.076 360.253 230.251 358.186 231.067C356.12 231.884 353.936 232.292 351.636 232.292L341.186 232.292ZM343.636 229.942L350.986 229.942C353.12 229.942 355.12 229.592 356.986 228.892C358.853 228.192 360.495 227.176 361.911 225.842C363.328 224.509 364.436 222.901 365.236 221.017C366.036 219.134 366.436 216.992 366.436 214.592C366.436 212.559 366.095 210.617 365.411 208.767C364.728 206.917 363.703 205.276 362.336 203.842C360.97 202.409 359.286 201.276 357.286 200.442C355.286 199.609 352.953 199.192 350.286 199.192L343.636 199.192L343.636 229.942Z" fill="#ffffff" fill-rule="nonzero" opacity="1" stroke="none"/>
<path d="M376.786 212.742L379.136 212.742L379.136 232.292L376.786 232.292L376.786 212.742ZM376.286 205.542C376.286 205.076 376.47 204.684 376.836 204.367C377.203 204.051 377.603 203.892 378.036 203.892C378.503 203.892 378.903 204.051 379.236 204.367C379.57 204.684 379.736 205.076 379.736 205.542C379.736 206.042 379.57 206.451 379.236 206.767C378.903 207.084 378.503 207.242 378.036 207.242C377.603 207.242 377.203 207.076 376.836 206.742C376.47 206.409 376.286 206.009 376.286 205.542Z" fill="#ffffff" fill-rule="nonzero" opacity="1" stroke="none"/>
<path d="M396.736 241.842C395.636 241.842 394.586 241.717 393.586 241.467C392.586 241.217 391.603 240.792 390.636 240.192C389.67 239.592 388.67 238.809 387.636 237.842L389.036 236.242C390.47 237.609 391.803 238.534 393.036 239.017C394.27 239.501 395.47 239.742 396.636 239.742C398.67 239.742 400.286 239.417 401.486 238.767C402.686 238.117 403.553 237.251 404.086 236.167C404.62 235.084 404.903 233.876 404.936 232.542L404.986 226.192L405.536 226.792C404.87 228.526 403.678 229.942 401.961 231.042C400.245 232.142 398.303 232.692 396.136 232.692C394.303 232.692 392.628 232.234 391.111 231.317C389.595 230.401 388.386 229.167 387.486 227.617C386.586 226.067 386.136 224.342 386.136 222.442C386.136 220.409 386.603 218.626 387.536 217.092C388.47 215.559 389.736 214.351 391.336 213.467C392.936 212.584 394.703 212.142 396.636 212.142C398.436 212.142 400.145 212.609 401.761 213.542C403.378 214.476 404.553 215.709 405.286 217.242L404.986 218.342L405.236 212.742L407.336 212.742L407.336 232.592C407.336 234.192 406.978 235.701 406.261 237.117C405.545 238.534 404.411 239.676 402.861 240.542C401.311 241.409 399.27 241.842 396.736 241.842ZM388.486 222.392C388.486 223.926 388.853 225.317 389.586 226.567C390.32 227.817 391.311 228.817 392.561 229.567C393.811 230.317 395.203 230.692 396.736 230.692C398.203 230.692 399.536 230.367 400.736 229.717C401.936 229.067 402.92 228.192 403.686 227.092C404.453 225.992 404.886 224.809 404.986 223.542L404.986 220.642C404.72 219.376 404.195 218.259 403.411 217.292C402.628 216.326 401.661 215.559 400.511 214.992C399.361 214.426 398.103 214.142 396.736 214.142C395.203 214.142 393.811 214.492 392.561 215.192C391.311 215.892 390.32 216.859 389.586 218.092C388.853 219.326 388.486 220.759 388.486 222.392Z" fill="#ffffff" fill-rule="nonzero" opacity="1" stroke="none"/>
<path d="M416.236 212.742L418.586 212.742L418.586 232.292L416.236 232.292L416.236 212.742ZM415.736 205.542C415.736 205.076 415.92 204.684 416.286 204.367C416.653 204.051 417.053 203.892 417.486 203.892C417.953 203.892 418.353 204.051 418.686 204.367C419.02 204.684 419.186 205.076 419.186 205.542C419.186 206.042 419.02 206.451 418.686 206.767C418.353 207.084 417.953 207.242 417.486 207.242C417.053 207.242 416.653 207.076 416.286 206.742C415.92 206.409 415.736 206.009 415.736 205.542Z" fill="#ffffff" fill-rule="nonzero" opacity="1" stroke="none"/>
<path d="M429.436 204.142L431.836 204.142L431.836 212.992L437.886 212.992L437.886 214.892L431.836 214.892L431.836 232.292L429.436 232.292L429.436 214.892L425.286 214.892L425.286 212.992L429.436 212.992L429.436 204.142Z" fill="#ffffff" fill-rule="nonzero" opacity="1" stroke="none"/>
<path d="M451.836 232.692C449.97 232.692 448.278 232.267 446.761 231.417C445.245 230.567 444.045 229.376 443.161 227.842C442.278 226.309 441.836 224.526 441.836 222.492C441.836 220.326 442.303 218.467 443.236 216.917C444.17 215.367 445.436 214.184 447.036 213.367C448.636 212.551 450.453 212.142 452.486 212.142C454.22 212.142 455.861 212.659 457.411 213.692C458.961 214.726 460.07 216.026 460.736 217.592L460.386 218.292L460.686 212.742L462.786 212.742L462.786 232.292L460.436 232.292L460.436 226.242L460.936 227.142C460.703 227.809 460.303 228.467 459.736 229.117C459.17 229.767 458.478 230.367 457.661 230.917C456.845 231.467 455.945 231.901 454.961 232.217C453.978 232.534 452.936 232.692 451.836 232.692ZM452.336 230.692C453.803 230.692 455.128 230.384 456.311 229.767C457.495 229.151 458.453 228.292 459.186 227.192C459.92 226.092 460.336 224.826 460.436 223.392L460.436 220.592C460.17 219.359 459.645 218.259 458.861 217.292C458.078 216.326 457.12 215.559 455.986 214.992C454.853 214.426 453.62 214.142 452.286 214.142C450.82 214.142 449.47 214.484 448.236 215.167C447.003 215.851 446.02 216.809 445.286 218.042C444.553 219.276 444.186 220.726 444.186 222.392C444.186 223.926 444.553 225.317 445.286 226.567C446.02 227.817 447.011 228.817 448.261 229.567C449.511 230.317 450.87 230.692 452.336 230.692Z" fill="#ffffff" fill-rule="nonzero" opacity="1" stroke="none"/>
<path d="M471.686 194.292L474.036 194.292L474.036 232.292L471.686 232.292L471.686 194.292Z" fill="#ffffff" fill-rule="nonzero" opacity="1" stroke="none"/>
<path d="M499.486 196.792L501.936 196.792L501.936 229.942L521.386 229.942L521.386 232.292L499.486 232.292L499.486 196.792Z" fill="#ffffff" fill-rule="nonzero" opacity="1" stroke="none"/>
<path d="M528.436 212.742L530.786 212.742L530.786 232.292L528.436 232.292L528.436 212.742ZM527.936 205.542C527.936 205.076 528.12 204.684 528.486 204.367C528.853 204.051 529.253 203.892 529.686 203.892C530.153 203.892 530.553 204.051 530.886 204.367C531.22 204.684 531.386 205.076 531.386 205.542C531.386 206.042 531.22 206.451 530.886 206.767C530.553 207.084 530.153 207.242 529.686 207.242C529.253 207.242 528.853 207.076 528.486 206.742C528.12 206.409 527.936 206.009 527.936 205.542Z" fill="#ffffff" fill-rule="nonzero" opacity="1" stroke="none"/>
<path d="M541.636 204.142L544.036 204.142L544.036 212.992L550.086 212.992L550.086 214.892L544.036 214.892L544.036 232.292L541.636 232.292L541.636 214.892L537.486 214.892L537.486 212.992L541.636 212.992L541.636 204.142Z" fill="#ffffff" fill-rule="nonzero" opacity="1" stroke="none"/>
<path d="M564.436 232.692C562.403 232.692 560.603 232.242 559.036 231.342C557.47 230.442 556.245 229.217 555.361 227.667C554.478 226.117 554.036 224.376 554.036 222.442C554.036 220.542 554.503 218.809 555.436 217.242C556.37 215.676 557.628 214.426 559.211 213.492C560.795 212.559 562.553 212.092 564.486 212.092C566.82 212.092 568.778 212.776 570.361 214.142C571.945 215.509 573.086 217.292 573.786 219.492L556.686 226.092L555.986 224.392L571.636 218.292L571.136 218.992C570.57 217.659 569.711 216.509 568.561 215.542C567.411 214.576 566.003 214.092 564.336 214.092C562.836 214.092 561.486 214.459 560.286 215.192C559.086 215.926 558.128 216.909 557.411 218.142C556.695 219.376 556.336 220.776 556.336 222.342C556.336 223.809 556.678 225.176 557.361 226.442C558.045 227.709 559.003 228.726 560.236 229.492C561.47 230.259 562.886 230.642 564.486 230.642C565.553 230.642 566.578 230.442 567.561 230.042C568.545 229.642 569.42 229.126 570.186 228.492L571.386 230.192C570.453 230.926 569.378 231.526 568.161 231.992C566.945 232.459 565.703 232.692 564.436 232.692Z" fill="#ffffff" fill-rule="nonzero" opacity="1" stroke="none"/>
<path d="M582.336 212.742L582.586 218.742L582.286 217.992C582.72 216.792 583.403 215.759 584.336 214.892C585.27 214.026 586.311 213.359 587.461 212.892C588.611 212.426 589.72 212.192 590.786 212.192L590.686 214.492C589.186 214.492 587.828 214.826 586.611 215.492C585.395 216.159 584.428 217.051 583.711 218.167C582.995 219.284 582.636 220.542 582.636 221.942L582.636 232.292L580.286 232.292L580.286 212.742L582.336 212.742Z" fill="#ffffff" fill-rule="nonzero" opacity="1" stroke="none"/>
<path d="M605.236 232.692C603.37 232.692 601.678 232.267 600.161 231.417C598.645 230.567 597.445 229.376 596.561 227.842C595.678 226.309 595.236 224.526 595.236 222.492C595.236 220.326 595.703 218.467 596.636 216.917C597.57 215.367 598.836 214.184 600.436 213.367C602.036 212.551 603.853 212.142 605.886 212.142C607.62 212.142 609.261 212.659 610.811 213.692C612.361 214.726 613.47 216.026 614.136 217.592L613.786 218.292L614.086 212.742L616.186 212.742L616.186 232.292L613.836 232.292L613.836 226.242L614.336 227.142C614.103 227.809 613.703 228.467 613.136 229.117C612.57 229.767 611.878 230.367 611.061 230.917C610.245 231.467 609.345 231.901 608.361 232.217C607.378 232.534 606.336 232.692 605.236 232.692ZM605.736 230.692C607.203 230.692 608.528 230.384 609.711 229.767C610.895 229.151 611.853 228.292 612.586 227.192C613.32 226.092 613.736 224.826 613.836 223.392L613.836 220.592C613.57 219.359 613.045 218.259 612.261 217.292C611.478 216.326 610.52 215.559 609.386 214.992C608.253 214.426 607.02 214.142 605.686 214.142C604.22 214.142 602.87 214.484 601.636 215.167C600.403 215.851 599.42 216.809 598.686 218.042C597.953 219.276 597.586 220.726 597.586 222.392C597.586 223.926 597.953 225.317 598.686 226.567C599.42 227.817 600.411 228.817 601.661 229.567C602.911 230.317 604.27 230.692 605.736 230.692Z" fill="#ffffff" fill-rule="nonzero" opacity="1" stroke="none"/>
<path d="M640.186 230.392C639.286 231.126 638.27 231.692 637.136 232.092C636.003 232.492 634.82 232.692 633.586 232.692C631.586 232.692 629.803 232.251 628.236 231.367C626.67 230.484 625.436 229.276 624.536 227.742C623.636 226.209 623.186 224.459 623.186 222.492C623.186 220.526 623.653 218.776 624.586 217.242C625.52 215.709 626.761 214.501 628.311 213.617C629.861 212.734 631.553 212.292 633.386 212.292C634.753 212.292 636.02 212.492 637.186 212.892C638.353 213.292 639.37 213.859 640.236 214.592L638.986 216.192C638.286 215.626 637.47 215.159 636.536 214.792C635.603 214.426 634.603 214.242 633.536 214.242C632.07 214.242 630.728 214.609 629.511 215.342C628.295 216.076 627.328 217.067 626.611 218.317C625.895 219.567 625.536 220.959 625.536 222.492C625.536 223.992 625.895 225.367 626.611 226.617C627.328 227.867 628.311 228.859 629.561 229.592C630.811 230.326 632.203 230.692 633.736 230.692C634.736 230.692 635.67 230.534 636.536 230.217C637.403 229.901 638.186 229.476 638.886 228.942L640.186 230.392Z" fill="#ffffff" fill-rule="nonzero" opacity="1" stroke="none"/>
<path d="M648.536 241.692L661.286 212.742L663.586 212.742L650.986 241.692L648.536 241.692ZM652.936 232.492L643.686 212.742L646.336 212.742L654.786 231.242L652.936 232.492Z" fill="#ffffff" fill-rule="nonzero" opacity="1" stroke="none"/>
<path d="M685.986 196.792L705.886 196.792L705.886 199.142L688.436 199.142L688.436 213.792L703.886 213.792L703.886 216.092L688.436 216.092L688.436 232.292L685.986 232.292L685.986 196.792Z" fill="#ffffff" fill-rule="nonzero" opacity="1" stroke="none"/>
<path d="M708.386 222.392C708.386 220.492 708.845 218.759 709.761 217.192C710.678 215.626 711.928 214.384 713.511 213.467C715.095 212.551 716.87 212.092 718.836 212.092C720.836 212.092 722.62 212.551 724.186 213.467C725.753 214.384 726.986 215.626 727.886 217.192C728.786 218.759 729.236 220.492 729.236 222.392C729.236 224.292 728.786 226.026 727.886 227.592C726.986 229.159 725.745 230.401 724.161 231.317C722.578 232.234 720.803 232.692 718.836 232.692C716.836 232.692 715.053 232.251 713.486 231.367C711.92 230.484 710.678 229.267 709.761 227.717C708.845 226.167 708.386 224.392 708.386 222.392ZM710.736 222.442C710.736 223.976 711.095 225.367 711.811 226.617C712.528 227.867 713.495 228.859 714.711 229.592C715.928 230.326 717.286 230.692 718.786 230.692C720.286 230.692 721.645 230.326 722.861 229.592C724.078 228.859 725.045 227.867 725.761 226.617C726.478 225.367 726.836 223.976 726.836 222.442C726.836 220.909 726.478 219.517 725.761 218.267C725.045 217.017 724.078 216.017 722.861 215.267C721.645 214.517 720.286 214.142 718.786 214.142C717.253 214.142 715.878 214.534 714.661 215.317C713.445 216.101 712.486 217.126 711.786 218.392C711.086 219.659 710.736 221.009 710.736 222.442Z" fill="#ffffff" fill-rule="nonzero" opacity="1" stroke="none"/>
<path d="M738.286 212.742L738.536 218.742L738.236 217.992C738.67 216.792 739.353 215.759 740.286 214.892C741.22 214.026 742.261 213.359 743.411 212.892C744.561 212.426 745.67 212.192 746.736 212.192L746.636 214.492C745.136 214.492 743.778 214.826 742.561 215.492C741.345 216.159 740.378 217.051 739.661 218.167C738.945 219.284 738.586 220.542 738.586 221.942L738.586 232.292L736.236 232.292L736.236 212.742L738.286 212.742Z" fill="#ffffff" fill-rule="nonzero" opacity="1" stroke="none"/>
<path d="M767.636 214.592C767.636 212.092 768.103 209.751 769.036 207.567C769.97 205.384 771.27 203.451 772.936 201.767C774.603 200.084 776.528 198.767 778.711 197.817C780.895 196.867 783.236 196.392 785.736 196.392C788.236 196.392 790.586 196.867 792.786 197.817C794.986 198.767 796.92 200.084 798.586 201.767C800.253 203.451 801.561 205.384 802.511 207.567C803.461 209.751 803.936 212.092 803.936 214.592C803.936 217.092 803.461 219.434 802.511 221.617C801.561 223.801 800.253 225.726 798.586 227.392C796.92 229.059 794.986 230.359 792.786 231.292C790.586 232.226 788.236 232.692 785.736 232.692C783.236 232.692 780.895 232.242 778.711 231.342C776.528 230.442 774.603 229.176 772.936 227.542C771.27 225.909 769.97 223.992 769.036 221.792C768.103 219.592 767.636 217.192 767.636 214.592ZM770.136 214.642C770.136 216.809 770.536 218.842 771.336 220.742C772.136 222.642 773.253 224.309 774.686 225.742C776.12 227.176 777.778 228.301 779.661 229.117C781.545 229.934 783.553 230.342 785.686 230.342C787.886 230.342 789.936 229.934 791.836 229.117C793.736 228.301 795.403 227.176 796.836 225.742C798.27 224.309 799.395 222.642 800.211 220.742C801.028 218.842 801.436 216.792 801.436 214.592C801.436 212.426 801.028 210.384 800.211 208.467C799.395 206.551 798.27 204.867 796.836 203.417C795.403 201.967 793.736 200.826 791.836 199.992C789.936 199.159 787.903 198.742 785.736 198.742C783.536 198.742 781.486 199.167 779.586 200.017C777.686 200.867 776.028 202.026 774.611 203.492C773.195 204.959 772.095 206.651 771.311 208.567C770.528 210.484 770.136 212.509 770.136 214.642Z" fill="#ffffff" fill-rule="nonzero" opacity="1" stroke="none"/>
<path d="M811.786 194.292L814.136 194.292L814.136 232.292L811.786 232.292L811.786 194.292Z" fill="#ffffff" fill-rule="nonzero" opacity="1" stroke="none"/>
<path d="M831.036 232.692C829.203 232.692 827.536 232.251 826.036 231.367C824.536 230.484 823.345 229.259 822.461 227.692C821.578 226.126 821.136 224.359 821.136 222.392C821.136 220.292 821.586 218.476 822.486 216.942C823.386 215.409 824.611 214.226 826.161 213.392C827.711 212.559 829.42 212.142 831.286 212.142C833.153 212.142 834.928 212.626 836.611 213.592C838.295 214.559 839.52 215.826 840.286 217.392L839.886 218.492L839.886 194.292L842.236 194.292L842.236 232.292L839.836 232.292L839.836 226.292L840.336 227.392C839.503 228.959 838.253 230.234 836.586 231.217C834.92 232.201 833.07 232.692 831.036 232.692ZM831.636 230.642C833.136 230.642 834.486 230.317 835.686 229.667C836.886 229.017 837.853 228.134 838.586 227.017C839.32 225.901 839.736 224.642 839.836 223.242L839.836 220.742C839.603 219.476 839.086 218.342 838.286 217.342C837.486 216.342 836.52 215.551 835.386 214.967C834.253 214.384 833.003 214.092 831.636 214.092C830.136 214.092 828.77 214.442 827.536 215.142C826.303 215.842 825.32 216.809 824.586 218.042C823.853 219.276 823.486 220.709 823.486 222.342C823.486 223.876 823.853 225.267 824.586 226.517C825.32 227.767 826.311 228.767 827.561 229.517C828.811 230.267 830.17 230.642 831.636 230.642Z" fill="#ffffff" fill-rule="nonzero" opacity="1" stroke="none"/>
<path d="M859.636 232.692C857.603 232.692 855.803 232.242 854.236 231.342C852.67 230.442 851.445 229.217 850.561 227.667C849.678 226.117 849.236 224.376 849.236 222.442C849.236 220.542 849.703 218.809 850.636 217.242C851.57 215.676 852.828 214.426 854.411 213.492C855.995 212.559 857.753 212.092 859.686 212.092C862.02 212.092 863.978 212.776 865.561 214.142C867.145 215.509 868.286 217.292 868.986 219.492L851.886 226.092L851.186 224.392L866.836 218.292L866.336 218.992C865.77 217.659 864.911 216.509 863.761 215.542C862.611 214.576 861.203 214.092 859.536 214.092C858.036 214.092 856.686 214.459 855.486 215.192C854.286 215.926 853.328 216.909 852.611 218.142C851.895 219.376 851.536 220.776 851.536 222.342C851.536 223.809 851.878 225.176 852.561 226.442C853.245 227.709 854.203 228.726 855.436 229.492C856.67 230.259 858.086 230.642 859.686 230.642C860.753 230.642 861.778 230.442 862.761 230.042C863.745 229.642 864.62 229.126 865.386 228.492L866.586 230.192C865.653 230.926 864.578 231.526 863.361 231.992C862.145 232.459 860.903 232.692 859.636 232.692Z" fill="#ffffff" fill-rule="nonzero" opacity="1" stroke="none"/>
<path d="M877.536 212.742L877.786 218.742L877.486 217.992C877.92 216.792 878.603 215.759 879.536 214.892C880.47 214.026 881.511 213.359 882.661 212.892C883.811 212.426 884.92 212.192 885.986 212.192L885.886 214.492C884.386 214.492 883.028 214.826 881.811 215.492C880.595 216.159 879.628 217.051 878.911 218.167C878.195 219.284 877.836 220.542 877.836 221.942L877.836 232.292L875.486 232.292L875.486 212.742L877.536 212.742Z" fill="#ffffff" fill-rule="nonzero" opacity="1" stroke="none"/>
<path d="M906.036 232.292L921.036 195.242L921.236 195.242L936.236 232.292L933.486 232.292L920.436 199.142L922.136 198.192L908.486 232.292L906.036 232.292ZM913.286 218.242L929.036 218.242L929.736 220.542L912.686 220.542L913.286 218.242Z" fill="#ffffff" fill-rule="nonzero" opacity="1" stroke="none"/>
<path d="M950.986 232.692C949.153 232.692 947.486 232.251 945.986 231.367C944.486 230.484 943.295 229.259 942.411 227.692C941.528 226.126 941.086 224.359 941.086 222.392C941.086 220.292 941.536 218.476 942.436 216.942C943.336 215.409 944.561 214.226 946.111 213.392C947.661 212.559 949.37 212.142 951.236 212.142C953.103 212.142 954.878 212.626 956.561 213.592C958.245 214.559 959.47 215.826 960.236 217.392L959.836 218.492L959.836 194.292L962.186 194.292L962.186 232.292L959.786 232.292L959.786 226.292L960.286 227.392C959.453 228.959 958.203 230.234 956.536 231.217C954.87 232.201 953.02 232.692 950.986 232.692ZM951.586 230.642C953.086 230.642 954.436 230.317 955.636 229.667C956.836 229.017 957.803 228.134 958.536 227.017C959.27 225.901 959.686 224.642 959.786 223.242L959.786 220.742C959.553 219.476 959.036 218.342 958.236 217.342C957.436 216.342 956.47 215.551 955.336 214.967C954.203 214.384 952.953 214.092 951.586 214.092C950.086 214.092 948.72 214.442 947.486 215.142C946.253 215.842 945.27 216.809 944.536 218.042C943.803 219.276 943.436 220.709 943.436 222.342C943.436 223.876 943.803 225.267 944.536 226.517C945.27 227.767 946.261 228.767 947.511 229.517C948.761 230.267 950.12 230.642 951.586 230.642Z" fill="#ffffff" fill-rule="nonzero" opacity="1" stroke="none"/>
<path d="M977.236 232.842C975.403 232.842 973.936 232.301 972.836 231.217C971.736 230.134 971.153 228.726 971.086 226.992L971.086 212.742L973.436 212.742L973.436 226.292C973.503 227.559 973.911 228.609 974.661 229.442C975.411 230.276 976.536 230.726 978.036 230.792C979.303 230.792 980.486 230.459 981.586 229.792C982.686 229.126 983.578 228.217 984.261 227.067C984.945 225.917 985.286 224.609 985.286 223.142L985.286 212.742L987.636 212.742L987.636 232.292L985.536 232.292L985.286 226.142L985.636 227.492C985.303 228.492 984.711 229.401 983.861 230.217C983.011 231.034 982.011 231.676 980.861 232.142C979.711 232.609 978.503 232.842 977.236 232.842Z" fill="#ffffff" fill-rule="nonzero" opacity="1" stroke="none"/>
<path d="M996.536 194.292L998.886 194.292L998.886 232.292L996.536 232.292L996.536 194.292Z" fill="#ffffff" fill-rule="nonzero" opacity="1" stroke="none"/>
<path d="M1009.74 204.142L1012.14 204.142L1012.14 212.992L1018.19 212.992L1018.19 214.892L1012.14 214.892L1012.14 232.292L1009.74 232.292L1009.74 214.892L1005.59 214.892L1005.59 212.992L1009.74 212.992L1009.74 204.142Z" fill="#ffffff" fill-rule="nonzero" opacity="1" stroke="none"/>
<path d="M1028.64 232.692C1027.5 232.692 1026.32 232.484 1025.09 232.067C1023.85 231.651 1022.85 230.976 1022.09 230.042L1023.19 228.492C1023.85 229.192 1024.64 229.751 1025.56 230.167C1026.48 230.584 1027.45 230.792 1028.49 230.792C1029.25 230.792 1029.98 230.684 1030.66 230.467C1031.34 230.251 1031.9 229.876 1032.34 229.342C1032.77 228.809 1032.99 228.092 1032.99 227.192C1032.99 226.259 1032.73 225.542 1032.21 225.042C1031.69 224.542 1031.04 224.134 1030.26 223.817C1029.48 223.501 1028.65 223.209 1027.79 222.942C1026.35 222.476 1025.18 221.842 1024.26 221.042C1023.34 220.242 1022.89 219.109 1022.89 217.642C1022.89 216.576 1023.14 215.642 1023.66 214.842C1024.18 214.042 1024.89 213.417 1025.79 212.967C1026.69 212.517 1027.7 212.292 1028.84 212.292C1029.87 212.292 1030.89 212.459 1031.91 212.792C1032.93 213.126 1033.85 213.692 1034.69 214.492L1033.64 216.142C1033.1 215.409 1032.39 214.909 1031.51 214.642C1030.63 214.376 1029.85 214.226 1029.19 214.192C1028.62 214.192 1028.03 214.309 1027.41 214.542C1026.79 214.776 1026.28 215.117 1025.86 215.567C1025.44 216.017 1025.24 216.609 1025.24 217.342C1025.24 218.109 1025.45 218.734 1025.89 219.217C1026.32 219.701 1026.88 220.092 1027.56 220.392C1028.24 220.692 1028.95 220.976 1029.69 221.242C1030.65 221.542 1031.56 221.901 1032.41 222.317C1033.26 222.734 1033.96 223.284 1034.51 223.967C1035.06 224.651 1035.34 225.559 1035.34 226.692C1035.34 227.826 1035.09 228.851 1034.59 229.767C1034.09 230.684 1033.34 231.401 1032.36 231.917C1031.38 232.434 1030.14 232.692 1028.64 232.692Z" fill="#ffffff" fill-rule="nonzero" opacity="1" stroke="none"/>
</g>
</g>
<g id="Icon" vectornator:layerName="Icon">
<path d="M141.523 18.5308C65.8887 18.4599 4.50947 78.9219 4.43947 153.566C4.36947 228.221 65.6353 288.788 141.27 288.858C216.914 288.929 278.283 228.477 278.353 153.823C278.423 79.1787 217.168 18.6017 141.523 18.5308ZM59.2449 231.769C53.9326 226.321 49.1927 220.342 45.0729 213.928C64.93 197.413 90.5402 187.438 118.537 187.464L164.192 187.507C199.321 187.54 231.245 174.405 255.482 152.943C255.482 153.241 255.526 153.515 255.526 153.802C255.516 164.47 253.9 174.744 251.084 184.52C226.036 200.612 196.236 210.066 164.171 210.035L118.516 209.993C95.8702 209.971 75.2199 218.244 59.2449 231.769ZM34.6732 193.336C31.8178 185.856 29.7639 178.001 28.5766 169.859C54.2381 152.535 85.2239 142.369 118.58 142.401L164.234 142.444C196.878 142.474 225.559 125.474 241.723 99.9697C245.996 107.719 249.241 116.072 251.588 124.785C230.645 149.359 199.298 165.005 164.213 164.972L118.558 164.929C86.9181 164.896 57.8595 175.56 34.6732 193.336ZM226.941 79.3096C216.352 103.177 192.297 119.941 164.255 119.915L118.601 119.872C85.5668 119.841 54.5618 128.557 27.7759 143.755C28.6652 133.825 30.9031 124.298 34.2225 115.282C59.9983 103.78 88.5492 97.3154 118.622 97.3436L164.276 97.3864C185.796 97.4066 203.778 82.6061 208.601 62.799C215.307 67.6374 221.451 73.1646 226.941 79.3096ZM141.502 41.0558C157.742 41.071 173.163 44.4849 187.144 50.5364L187.143 52.3307C187.131 64.759 176.88 74.8732 164.297 74.8614L118.643 74.8186C95.0932 74.7965 72.4303 78.4787 51.0486 85.0581C71.9391 58.3152 104.643 41.0213 141.502 41.0558ZM141.291 266.33C117.385 266.308 95.2222 259.008 76.8882 246.593C88.4452 237.805 102.827 232.503 118.495 232.518L164.15 232.561C189.148 232.584 212.949 227.524 234.658 218.502C213.978 247.438 179.899 266.366 141.291 266.33Z" fill="#ffffff" fill-rule="nonzero" opacity="1" stroke="none"/>
</g>
</svg>
