<?xml version="1.0" encoding="UTF-8" standalone="no"?>
<!DOCTYPE svg PUBLIC "-//W3C//DTD SVG 1.1//EN" "http://www.w3.org/Graphics/SVG/1.1/DTD/svg11.dtd">
<!-- Created with Vectornator (http://vectornator.io/) -->
<svg height="100%" stroke-miterlimit="10" style="fill-rule:nonzero;clip-rule:evenodd;stroke-linecap:round;stroke-linejoin:round;" version="1.1" viewBox="0 0 1356.11 309.465" width="100%" xml:space="preserve" xmlns="http://www.w3.org/2000/svg" xmlns:vectornator="http://vectornator.io" xmlns:xlink="http://www.w3.org/1999/xlink">
<defs/>
<g id="Main" vectornator:layerName="Main">
<g fill="#ffffff" opacity="1" stroke="none">
<path d="M348.722 174.137C345.906 174.137 343.154 174.051 340.466 173.881C337.778 173.71 335.133 173.454 332.53 173.113C329.928 172.771 327.432 172.387 325.042 171.961C322.653 171.534 320.349 171.022 318.13 170.425L318.13 150.713C321.032 150.969 324.168 151.182 327.538 151.353C330.909 151.523 334.322 151.651 337.778 151.737C341.234 151.822 344.456 151.865 347.442 151.865C350.258 151.865 352.605 151.651 354.482 151.225C356.36 150.798 357.768 150.115 358.706 149.177C359.645 148.238 360.114 146.958 360.114 145.337L360.114 143.801C360.114 141.923 359.453 140.515 358.13 139.577C356.808 138.638 355.25 138.169 353.458 138.169L346.674 138.169C336.776 138.169 329.266 135.993 324.146 131.641C319.026 127.289 316.466 119.993 316.466 109.753L316.466 105.529C316.466 96.142 319.282 89.1233 324.914 84.4727C330.546 79.822 338.653 77.4967 349.234 77.4967C353.245 77.4967 357.021 77.6887 360.562 78.0727C364.104 78.4567 367.432 78.926 370.546 79.4807C373.661 80.0353 376.456 80.6113 378.93 81.2087L378.93 100.921C375.005 100.579 370.589 100.302 365.682 100.089C360.776 99.8753 356.317 99.7687 352.306 99.7687C349.917 99.7687 347.784 99.9393 345.906 100.281C344.029 100.622 342.578 101.305 341.554 102.329C340.53 103.353 340.018 104.846 340.018 106.809L340.018 108.089C340.018 110.222 340.701 111.843 342.066 112.953C343.432 114.062 345.522 114.617 348.338 114.617L356.786 114.617C362.76 114.617 367.73 115.747 371.698 118.009C375.666 120.27 378.653 123.342 380.658 127.225C382.664 131.107 383.666 135.523 383.666 140.473L383.666 144.697C383.666 152.803 382.258 158.99 379.442 163.257C376.626 167.523 372.616 170.403 367.41 171.897C362.205 173.39 355.976 174.137 348.722 174.137Z"/>
<path d="M395.314 173.369L395.314 78.2647L420.146 78.2647L420.146 173.369L395.314 173.369Z"/>
<path d="M458.93 173.369C453.213 173.369 448.52 172.515 444.85 170.809C441.181 169.102 438.493 166.414 436.786 162.745C435.08 159.075 434.226 154.382 434.226 148.665L434.226 78.2647L459.058 78.2647L459.058 144.441C459.058 145.891 459.293 147.129 459.762 148.153C460.232 149.177 460.978 149.923 462.002 150.393C463.026 150.862 464.264 151.097 465.714 151.097L493.362 151.097L493.362 173.369L458.93 173.369Z"/>
<path d="M521.522 173.369L493.362 78.2647L519.09 78.2647L537.138 146.361L555.186 78.2647L580.658 78.2647L552.498 173.369L521.522 173.369Z"/>
<path d="M610.226 174.137C608.178 174.137 605.725 173.923 602.866 173.497C600.008 173.07 597.234 172.131 594.546 170.681C591.858 169.23 589.618 166.99 587.826 163.961C586.034 160.931 585.138 156.771 585.138 151.481L585.138 101.817C585.138 97.2087 585.864 93.3687 587.314 90.2967C588.765 87.2247 590.642 84.814 592.946 83.0647C595.25 81.3153 597.81 80.078 600.626 79.3527C603.442 78.6273 606.173 78.2647 608.818 78.2647C615.986 78.2647 622.152 78.3713 627.314 78.5847C632.477 78.798 636.957 79.0327 640.754 79.2887C644.552 79.5447 647.901 79.8433 650.802 80.1847L650.802 101.177L616.498 101.177C614.365 101.177 612.744 101.646 611.634 102.585C610.525 103.523 609.97 104.931 609.97 106.809L609.97 114.745L644.402 116.025L644.402 135.737L609.97 137.017L609.97 144.185C609.97 145.721 610.205 146.979 610.674 147.961C611.144 148.942 611.805 149.667 612.658 150.137C613.512 150.606 614.45 150.841 615.474 150.841L650.802 150.841L650.802 171.833C647.133 172.345 642.952 172.771 638.258 173.113C633.565 173.454 628.786 173.71 623.922 173.881C619.058 174.051 614.493 174.137 610.226 174.137Z"/>
<path d="M662.45 173.369L662.45 78.2647L703.026 78.2647C707.208 78.2647 711.048 78.7767 714.546 79.8007C718.045 80.8247 721.074 82.5527 723.634 84.9847C726.194 87.4167 728.178 90.6807 729.586 94.7767C730.994 98.8727 731.698 104.035 731.698 110.265C731.698 114.19 731.357 117.603 730.674 120.505C729.992 123.406 729.074 125.859 727.922 127.865C726.77 129.87 725.405 131.555 723.826 132.921C722.248 134.286 720.562 135.481 718.77 136.505L735.282 173.369L710.066 173.369L696.754 140.601C695.986 140.601 695.197 140.601 694.386 140.601C693.576 140.601 692.786 140.601 692.018 140.601C691.25 140.601 690.461 140.601 689.65 140.601C688.84 140.601 688.05 140.601 687.282 140.601L687.282 173.369L662.45 173.369ZM687.282 120.889L698.546 120.889C699.912 120.889 701.106 120.697 702.13 120.313C703.154 119.929 704.029 119.31 704.754 118.457C705.48 117.603 706.013 116.515 706.354 115.193C706.696 113.87 706.866 112.27 706.866 110.393C706.866 108.515 706.696 106.937 706.354 105.657C706.013 104.377 705.48 103.374 704.754 102.649C704.029 101.923 703.154 101.39 702.13 101.049C701.106 100.707 699.912 100.537 698.546 100.537L687.282 100.537L687.282 120.889Z"/>
<path d="M806.194 174.137C803.378 174.137 800.626 174.051 797.938 173.881C795.25 173.71 792.605 173.454 790.002 173.113C787.4 172.771 784.904 172.387 782.514 171.961C780.125 171.534 777.821 171.022 775.602 170.425L775.602 150.713C778.504 150.969 781.64 151.182 785.01 151.353C788.381 151.523 791.794 151.651 795.25 151.737C798.706 151.822 801.928 151.865 804.914 151.865C807.73 151.865 810.077 151.651 811.954 151.225C813.832 150.798 815.24 150.115 816.178 149.177C817.117 148.238 817.586 146.958 817.586 145.337L817.586 143.801C817.586 141.923 816.925 140.515 815.602 139.577C814.28 138.638 812.722 138.169 810.93 138.169L804.146 138.169C794.248 138.169 786.738 135.993 781.618 131.641C776.498 127.289 773.938 119.993 773.938 109.753L773.938 105.529C773.938 96.142 776.754 89.1233 782.386 84.4727C788.018 79.822 796.125 77.4967 806.706 77.4967C810.717 77.4967 814.493 77.6887 818.034 78.0727C821.576 78.4567 824.904 78.926 828.018 79.4807C831.133 80.0353 833.928 80.6113 836.402 81.2087L836.402 100.921C832.477 100.579 828.061 100.302 823.154 100.089C818.248 99.8753 813.789 99.7687 809.778 99.7687C807.389 99.7687 805.256 99.9393 803.378 100.281C801.501 100.622 800.05 101.305 799.026 102.329C798.002 103.353 797.49 104.846 797.49 106.809L797.49 108.089C797.49 110.222 798.173 111.843 799.538 112.953C800.904 114.062 802.994 114.617 805.81 114.617L814.258 114.617C820.232 114.617 825.202 115.747 829.17 118.009C833.138 120.27 836.125 123.342 838.13 127.225C840.136 131.107 841.138 135.523 841.138 140.473L841.138 144.697C841.138 152.803 839.73 158.99 836.914 163.257C834.098 167.523 830.088 170.403 824.882 171.897C819.677 173.39 813.448 174.137 806.194 174.137Z"/>
<path d="M890.034 174.009C884.829 174.009 879.901 173.582 875.25 172.729C870.6 171.875 866.482 170.297 862.898 167.993C859.314 165.689 856.52 162.446 854.514 158.265C852.509 154.083 851.506 148.665 851.506 142.009L851.506 78.2647L876.338 78.2647L876.338 141.881C876.338 144.099 876.872 145.934 877.938 147.385C879.005 148.835 880.562 149.923 882.61 150.649C884.658 151.374 887.133 151.737 890.034 151.737C892.936 151.737 895.41 151.374 897.458 150.649C899.506 149.923 901.064 148.835 902.13 147.385C903.197 145.934 903.73 144.099 903.73 141.881L903.73 78.2647L928.562 78.2647L928.562 142.009C928.562 148.665 927.56 154.083 925.554 158.265C923.549 162.446 920.754 165.689 917.17 167.993C913.586 170.297 909.49 171.875 904.882 172.729C900.274 173.582 895.325 174.009 890.034 174.009Z"/>
<path d="M941.362 173.369L941.362 78.2647L981.938 78.2647C986.12 78.2647 989.96 78.7767 993.458 79.8007C996.957 80.8247 999.986 82.5527 1002.55 84.9847C1005.11 87.4167 1007.09 90.6807 1008.5 94.7767C1009.91 98.8727 1010.61 104.035 1010.61 110.265C1010.61 114.19 1010.27 117.603 1009.59 120.505C1008.9 123.406 1007.99 125.859 1006.83 127.865C1005.68 129.87 1004.32 131.555 1002.74 132.921C1001.16 134.286 999.474 135.481 997.682 136.505L1014.19 173.369L988.978 173.369L975.666 140.601C974.898 140.601 974.109 140.601 973.298 140.601C972.488 140.601 971.698 140.601 970.93 140.601C970.162 140.601 969.373 140.601 968.562 140.601C967.752 140.601 966.962 140.601 966.194 140.601L966.194 173.369L941.362 173.369ZM966.194 120.889L977.458 120.889C978.824 120.889 980.018 120.697 981.042 120.313C982.066 119.929 982.941 119.31 983.666 118.457C984.392 117.603 984.925 116.515 985.266 115.193C985.608 113.87 985.778 112.27 985.778 110.393C985.778 108.515 985.608 106.937 985.266 105.657C984.925 104.377 984.392 103.374 983.666 102.649C982.941 101.923 982.066 101.39 981.042 101.049C980.018 100.707 978.824 100.537 977.458 100.537L966.194 100.537L966.194 120.889Z"/>
<path d="M1023.28 173.369L1023.28 101.817C1023.28 97.2087 1024.01 93.3687 1025.46 90.2967C1026.91 87.2247 1028.79 84.814 1031.09 83.0647C1033.39 81.3153 1035.95 80.078 1038.77 79.3527C1041.59 78.6273 1044.32 78.2647 1046.96 78.2647C1049.61 78.2647 1053.28 78.286 1057.97 78.3287C1062.66 78.3713 1067.76 78.542 1073.27 78.8407C1078.77 79.1393 1084 79.63 1088.95 80.3127L1088.95 101.177L1054.13 101.177C1052 101.177 1050.46 101.753 1049.52 102.905C1048.58 104.057 1048.11 105.273 1048.11 106.553L1048.11 117.305L1082.55 118.585L1082.55 138.297L1048.11 139.577L1048.11 173.369L1023.28 173.369Z"/>
<path d="M1122.99 174.137C1120.95 174.137 1118.49 173.923 1115.63 173.497C1112.78 173.07 1110 172.131 1107.31 170.681C1104.63 169.23 1102.39 166.99 1100.59 163.961C1098.8 160.931 1097.91 156.771 1097.91 151.481L1097.91 101.817C1097.91 97.2087 1098.63 93.3687 1100.08 90.2967C1101.53 87.2247 1103.41 84.814 1105.71 83.0647C1108.02 81.3153 1110.58 80.078 1113.39 79.3527C1116.21 78.6273 1118.94 78.2647 1121.59 78.2647C1128.75 78.2647 1134.92 78.3713 1140.08 78.5847C1145.24 78.798 1149.72 79.0327 1153.52 79.2887C1157.32 79.5447 1160.67 79.8433 1163.57 80.1847L1163.57 101.177L1129.27 101.177C1127.13 101.177 1125.51 101.646 1124.4 102.585C1123.29 103.523 1122.74 104.931 1122.74 106.809L1122.74 114.745L1157.17 116.025L1157.17 135.737L1122.74 137.017L1122.74 144.185C1122.74 145.721 1122.97 146.979 1123.44 147.961C1123.91 148.942 1124.57 149.667 1125.43 150.137C1126.28 150.606 1127.22 150.841 1128.24 150.841L1163.57 150.841L1163.57 171.833C1159.9 172.345 1155.72 172.771 1151.03 173.113C1146.33 173.454 1141.55 173.71 1136.69 173.881C1131.83 174.051 1127.26 174.137 1122.99 174.137Z"/>
<path d="M1175.22 173.369L1175.22 78.2647L1215.79 78.2647C1219.98 78.2647 1223.82 78.7767 1227.31 79.8007C1230.81 80.8247 1233.84 82.5527 1236.4 84.9847C1238.96 87.4167 1240.95 90.6807 1242.35 94.7767C1243.76 98.8727 1244.47 104.035 1244.47 110.265C1244.47 114.19 1244.12 117.603 1243.44 120.505C1242.76 123.406 1241.84 125.859 1240.69 127.865C1239.54 129.87 1238.17 131.555 1236.59 132.921C1235.02 134.286 1233.33 135.481 1231.54 136.505L1248.05 173.369L1222.83 173.369L1209.52 140.601C1208.75 140.601 1207.96 140.601 1207.15 140.601C1206.34 140.601 1205.55 140.601 1204.79 140.601C1204.02 140.601 1203.23 140.601 1202.42 140.601C1201.61 140.601 1200.82 140.601 1200.05 140.601L1200.05 173.369L1175.22 173.369ZM1200.05 120.889L1211.31 120.889C1212.68 120.889 1213.87 120.697 1214.9 120.313C1215.92 119.929 1216.8 119.31 1217.52 118.457C1218.25 117.603 1218.78 116.515 1219.12 115.193C1219.46 113.87 1219.63 112.27 1219.63 110.393C1219.63 108.515 1219.46 106.937 1219.12 105.657C1218.78 104.377 1218.25 103.374 1217.52 102.649C1216.8 101.923 1215.92 101.39 1214.9 101.049C1213.87 100.707 1212.68 100.537 1211.31 100.537L1200.05 100.537L1200.05 120.889Z"/>
<path d="M1286.96 174.137C1284.15 174.137 1281.39 174.051 1278.71 173.881C1276.02 173.71 1273.37 173.454 1270.77 173.113C1268.17 172.771 1265.67 172.387 1263.28 171.961C1260.89 171.534 1258.59 171.022 1256.37 170.425L1256.37 150.713C1259.27 150.969 1262.41 151.182 1265.78 151.353C1269.15 151.523 1272.56 151.651 1276.02 151.737C1279.47 151.822 1282.7 151.865 1285.68 151.865C1288.5 151.865 1290.84 151.651 1292.72 151.225C1294.6 150.798 1296.01 150.115 1296.95 149.177C1297.88 148.238 1298.35 146.958 1298.35 145.337L1298.35 143.801C1298.35 141.923 1297.69 140.515 1296.37 139.577C1295.05 138.638 1293.49 138.169 1291.7 138.169L1284.91 138.169C1275.02 138.169 1267.51 135.993 1262.39 131.641C1257.27 127.289 1254.71 119.993 1254.71 109.753L1254.71 105.529C1254.71 96.142 1257.52 89.1233 1263.15 84.4727C1268.79 79.822 1276.89 77.4967 1287.47 77.4967C1291.48 77.4967 1295.26 77.6887 1298.8 78.0727C1302.34 78.4567 1305.67 78.926 1308.79 79.4807C1311.9 80.0353 1314.7 80.6113 1317.17 81.2087L1317.17 100.921C1313.24 100.579 1308.83 100.302 1303.92 100.089C1299.02 99.8753 1294.56 99.7687 1290.55 99.7687C1288.16 99.7687 1286.02 99.9393 1284.15 100.281C1282.27 100.622 1280.82 101.305 1279.79 102.329C1278.77 103.353 1278.26 104.846 1278.26 106.809L1278.26 108.089C1278.26 110.222 1278.94 111.843 1280.31 112.953C1281.67 114.062 1283.76 114.617 1286.58 114.617L1295.03 114.617C1301 114.617 1305.97 115.747 1309.94 118.009C1313.91 120.27 1316.89 123.342 1318.9 127.225C1320.9 131.107 1321.91 135.523 1321.91 140.473L1321.91 144.697C1321.91 152.803 1320.5 158.99 1317.68 163.257C1314.87 167.523 1310.86 170.403 1305.65 171.897C1300.44 173.39 1294.22 174.137 1286.96 174.137Z"/>
</g>
<g fill="#ffffff" opacity="1" stroke="none">
<path d="M320.556 234.585L320.556 199.085L329.306 199.085C332.74 199.085 335.665 199.627 338.081 200.71C340.498 201.794 342.456 203.219 343.956 204.985C345.456 206.752 346.556 208.685 347.256 210.785C347.956 212.885 348.306 214.969 348.306 217.035C348.306 219.735 347.84 222.16 346.906 224.31C345.973 226.46 344.698 228.302 343.081 229.835C341.465 231.369 339.623 232.544 337.556 233.36C335.49 234.177 333.306 234.585 331.006 234.585L320.556 234.585ZM323.006 232.235L330.356 232.235C332.49 232.235 334.49 231.885 336.356 231.185C338.223 230.485 339.865 229.469 341.281 228.135C342.698 226.802 343.806 225.194 344.606 223.31C345.406 221.427 345.806 219.285 345.806 216.885C345.806 214.852 345.465 212.91 344.781 211.06C344.098 209.21 343.073 207.569 341.706 206.135C340.34 204.702 338.656 203.569 336.656 202.735C334.656 201.902 332.323 201.485 329.656 201.485L323.006 201.485L323.006 232.235Z"/>
<path d="M356.156 215.035L358.506 215.035L358.506 234.585L356.156 234.585L356.156 215.035ZM355.656 207.835C355.656 207.369 355.84 206.977 356.206 206.66C356.573 206.344 356.973 206.185 357.406 206.185C357.873 206.185 358.273 206.344 358.606 206.66C358.94 206.977 359.106 207.369 359.106 207.835C359.106 208.335 358.94 208.744 358.606 209.06C358.273 209.377 357.873 209.535 357.406 209.535C356.973 209.535 356.573 209.369 356.206 209.035C355.84 208.702 355.656 208.302 355.656 207.835Z"/>
<path d="M376.106 244.135C375.006 244.135 373.956 244.01 372.956 243.76C371.956 243.51 370.973 243.085 370.006 242.485C369.04 241.885 368.04 241.102 367.006 240.135L368.406 238.535C369.84 239.902 371.173 240.827 372.406 241.31C373.64 241.794 374.84 242.035 376.006 242.035C378.04 242.035 379.656 241.71 380.856 241.06C382.056 240.41 382.923 239.544 383.456 238.46C383.99 237.377 384.273 236.169 384.306 234.835L384.356 228.485L384.906 229.085C384.24 230.819 383.048 232.235 381.331 233.335C379.615 234.435 377.673 234.985 375.506 234.985C373.673 234.985 371.998 234.527 370.481 233.61C368.965 232.694 367.756 231.46 366.856 229.91C365.956 228.36 365.506 226.635 365.506 224.735C365.506 222.702 365.973 220.919 366.906 219.385C367.84 217.852 369.106 216.644 370.706 215.76C372.306 214.877 374.073 214.435 376.006 214.435C377.806 214.435 379.515 214.902 381.131 215.835C382.748 216.769 383.923 218.002 384.656 219.535L384.356 220.635L384.606 215.035L386.706 215.035L386.706 234.885C386.706 236.485 386.348 237.994 385.631 239.41C384.915 240.827 383.781 241.969 382.231 242.835C380.681 243.702 378.64 244.135 376.106 244.135ZM367.856 224.685C367.856 226.219 368.223 227.61 368.956 228.86C369.69 230.11 370.681 231.11 371.931 231.86C373.181 232.61 374.573 232.985 376.106 232.985C377.573 232.985 378.906 232.66 380.106 232.01C381.306 231.36 382.29 230.485 383.056 229.385C383.823 228.285 384.256 227.102 384.356 225.835L384.356 222.935C384.09 221.669 383.565 220.552 382.781 219.585C381.998 218.619 381.031 217.852 379.881 217.285C378.731 216.719 377.473 216.435 376.106 216.435C374.573 216.435 373.181 216.785 371.931 217.485C370.681 218.185 369.69 219.152 368.956 220.385C368.223 221.619 367.856 223.052 367.856 224.685Z"/>
<path d="M395.606 215.035L397.956 215.035L397.956 234.585L395.606 234.585L395.606 215.035ZM395.106 207.835C395.106 207.369 395.29 206.977 395.656 206.66C396.023 206.344 396.423 206.185 396.856 206.185C397.323 206.185 397.723 206.344 398.056 206.66C398.39 206.977 398.556 207.369 398.556 207.835C398.556 208.335 398.39 208.744 398.056 209.06C397.723 209.377 397.323 209.535 396.856 209.535C396.423 209.535 396.023 209.369 395.656 209.035C395.29 208.702 395.106 208.302 395.106 207.835Z"/>
<path d="M408.806 206.435L411.206 206.435L411.206 215.285L417.256 215.285L417.256 217.185L411.206 217.185L411.206 234.585L408.806 234.585L408.806 217.185L404.656 217.185L404.656 215.285L408.806 215.285L408.806 206.435Z"/>
<path d="M431.206 234.985C429.34 234.985 427.648 234.56 426.131 233.71C424.615 232.86 423.415 231.669 422.531 230.135C421.648 228.602 421.206 226.819 421.206 224.785C421.206 222.619 421.673 220.76 422.606 219.21C423.54 217.66 424.806 216.477 426.406 215.66C428.006 214.844 429.823 214.435 431.856 214.435C433.59 214.435 435.231 214.952 436.781 215.985C438.331 217.019 439.44 218.319 440.106 219.885L439.756 220.585L440.056 215.035L442.156 215.035L442.156 234.585L439.806 234.585L439.806 228.535L440.306 229.435C440.073 230.102 439.673 230.76 439.106 231.41C438.54 232.06 437.848 232.66 437.031 233.21C436.215 233.76 435.315 234.194 434.331 234.51C433.348 234.827 432.306 234.985 431.206 234.985ZM431.706 232.985C433.173 232.985 434.498 232.677 435.681 232.06C436.865 231.444 437.823 230.585 438.556 229.485C439.29 228.385 439.706 227.119 439.806 225.685L439.806 222.885C439.54 221.652 439.015 220.552 438.231 219.585C437.448 218.619 436.49 217.852 435.356 217.285C434.223 216.719 432.99 216.435 431.656 216.435C430.19 216.435 428.84 216.777 427.606 217.46C426.373 218.144 425.39 219.102 424.656 220.335C423.923 221.569 423.556 223.019 423.556 224.685C423.556 226.219 423.923 227.61 424.656 228.86C425.39 230.11 426.381 231.11 427.631 231.86C428.881 232.61 430.24 232.985 431.706 232.985Z"/>
<path d="M451.056 196.585L453.406 196.585L453.406 234.585L451.056 234.585L451.056 196.585Z"/>
<path d="M478.856 199.085L481.306 199.085L481.306 232.235L500.756 232.235L500.756 234.585L478.856 234.585L478.856 199.085Z"/>
<path d="M507.806 215.035L510.156 215.035L510.156 234.585L507.806 234.585L507.806 215.035ZM507.306 207.835C507.306 207.369 507.49 206.977 507.856 206.66C508.223 206.344 508.623 206.185 509.056 206.185C509.523 206.185 509.923 206.344 510.256 206.66C510.59 206.977 510.756 207.369 510.756 207.835C510.756 208.335 510.59 208.744 510.256 209.06C509.923 209.377 509.523 209.535 509.056 209.535C508.623 209.535 508.223 209.369 507.856 209.035C507.49 208.702 507.306 208.302 507.306 207.835Z"/>
<path d="M521.006 206.435L523.406 206.435L523.406 215.285L529.456 215.285L529.456 217.185L523.406 217.185L523.406 234.585L521.006 234.585L521.006 217.185L516.856 217.185L516.856 215.285L521.006 215.285L521.006 206.435Z"/>
<path d="M543.806 234.985C541.773 234.985 539.973 234.535 538.406 233.635C536.84 232.735 535.615 231.51 534.731 229.96C533.848 228.41 533.406 226.669 533.406 224.735C533.406 222.835 533.873 221.102 534.806 219.535C535.74 217.969 536.998 216.719 538.581 215.785C540.165 214.852 541.923 214.385 543.856 214.385C546.19 214.385 548.148 215.069 549.731 216.435C551.315 217.802 552.456 219.585 553.156 221.785L536.056 228.385L535.356 226.685L551.006 220.585L550.506 221.285C549.94 219.952 549.081 218.802 547.931 217.835C546.781 216.869 545.373 216.385 543.706 216.385C542.206 216.385 540.856 216.752 539.656 217.485C538.456 218.219 537.498 219.202 536.781 220.435C536.065 221.669 535.706 223.069 535.706 224.635C535.706 226.102 536.048 227.469 536.731 228.735C537.415 230.002 538.373 231.019 539.606 231.785C540.84 232.552 542.256 232.935 543.856 232.935C544.923 232.935 545.948 232.735 546.931 232.335C547.915 231.935 548.79 231.419 549.556 230.785L550.756 232.485C549.823 233.219 548.748 233.819 547.531 234.285C546.315 234.752 545.073 234.985 543.806 234.985Z"/>
<path d="M561.706 215.035L561.956 221.035L561.656 220.285C562.09 219.085 562.773 218.052 563.706 217.185C564.64 216.319 565.681 215.652 566.831 215.185C567.981 214.719 569.09 214.485 570.156 214.485L570.056 216.785C568.556 216.785 567.198 217.119 565.981 217.785C564.765 218.452 563.798 219.344 563.081 220.46C562.365 221.577 562.006 222.835 562.006 224.235L562.006 234.585L559.656 234.585L559.656 215.035L561.706 215.035Z"/>
<path d="M584.606 234.985C582.74 234.985 581.048 234.56 579.531 233.71C578.015 232.86 576.815 231.669 575.931 230.135C575.048 228.602 574.606 226.819 574.606 224.785C574.606 222.619 575.073 220.76 576.006 219.21C576.94 217.66 578.206 216.477 579.806 215.66C581.406 214.844 583.223 214.435 585.256 214.435C586.99 214.435 588.631 214.952 590.181 215.985C591.731 217.019 592.84 218.319 593.506 219.885L593.156 220.585L593.456 215.035L595.556 215.035L595.556 234.585L593.206 234.585L593.206 228.535L593.706 229.435C593.473 230.102 593.073 230.76 592.506 231.41C591.94 232.06 591.248 232.66 590.431 233.21C589.615 233.76 588.715 234.194 587.731 234.51C586.748 234.827 585.706 234.985 584.606 234.985ZM585.106 232.985C586.573 232.985 587.898 232.677 589.081 232.06C590.265 231.444 591.223 230.585 591.956 229.485C592.69 228.385 593.106 227.119 593.206 225.685L593.206 222.885C592.94 221.652 592.415 220.552 591.631 219.585C590.848 218.619 589.89 217.852 588.756 217.285C587.623 216.719 586.39 216.435 585.056 216.435C583.59 216.435 582.24 216.777 581.006 217.46C579.773 218.144 578.79 219.102 578.056 220.335C577.323 221.569 576.956 223.019 576.956 224.685C576.956 226.219 577.323 227.61 578.056 228.86C578.79 230.11 579.781 231.11 581.031 231.86C582.281 232.61 583.64 232.985 585.106 232.985Z"/>
<path d="M619.556 232.685C618.656 233.419 617.64 233.985 616.506 234.385C615.373 234.785 614.19 234.985 612.956 234.985C610.956 234.985 609.173 234.544 607.606 233.66C606.04 232.777 604.806 231.569 603.906 230.035C603.006 228.502 602.556 226.752 602.556 224.785C602.556 222.819 603.023 221.069 603.956 219.535C604.89 218.002 606.131 216.794 607.681 215.91C609.231 215.027 610.923 214.585 612.756 214.585C614.123 214.585 615.39 214.785 616.556 215.185C617.723 215.585 618.74 216.152 619.606 216.885L618.356 218.485C617.656 217.919 616.84 217.452 615.906 217.085C614.973 216.719 613.973 216.535 612.906 216.535C611.44 216.535 610.098 216.902 608.881 217.635C607.665 218.369 606.698 219.36 605.981 220.61C605.265 221.86 604.906 223.252 604.906 224.785C604.906 226.285 605.265 227.66 605.981 228.91C606.698 230.16 607.681 231.152 608.931 231.885C610.181 232.619 611.573 232.985 613.106 232.985C614.106 232.985 615.04 232.827 615.906 232.51C616.773 232.194 617.556 231.769 618.256 231.235L619.556 232.685Z"/>
<path d="M627.906 243.985L640.656 215.035L642.956 215.035L630.356 243.985L627.906 243.985ZM632.306 234.785L623.056 215.035L625.706 215.035L634.156 233.535L632.306 234.785Z"/>
<path d="M665.356 199.085L685.256 199.085L685.256 201.435L667.806 201.435L667.806 216.085L683.256 216.085L683.256 218.385L667.806 218.385L667.806 234.585L665.356 234.585L665.356 199.085Z"/>
<path d="M687.756 224.685C687.756 222.785 688.215 221.052 689.131 219.485C690.048 217.919 691.298 216.677 692.881 215.76C694.465 214.844 696.24 214.385 698.206 214.385C700.206 214.385 701.99 214.844 703.556 215.76C705.123 216.677 706.356 217.919 707.256 219.485C708.156 221.052 708.606 222.785 708.606 224.685C708.606 226.585 708.156 228.319 707.256 229.885C706.356 231.452 705.115 232.694 703.531 233.61C701.948 234.527 700.173 234.985 698.206 234.985C696.206 234.985 694.423 234.544 692.856 233.66C691.29 232.777 690.048 231.56 689.131 230.01C688.215 228.46 687.756 226.685 687.756 224.685ZM690.106 224.735C690.106 226.269 690.465 227.66 691.181 228.91C691.898 230.16 692.865 231.152 694.081 231.885C695.298 232.619 696.656 232.985 698.156 232.985C699.656 232.985 701.015 232.619 702.231 231.885C703.448 231.152 704.415 230.16 705.131 228.91C705.848 227.66 706.206 226.269 706.206 224.735C706.206 223.202 705.848 221.81 705.131 220.56C704.415 219.31 703.448 218.31 702.231 217.56C701.015 216.81 699.656 216.435 698.156 216.435C696.623 216.435 695.248 216.827 694.031 217.61C692.815 218.394 691.856 219.419 691.156 220.685C690.456 221.952 690.106 223.302 690.106 224.735Z"/>
<path d="M717.656 215.035L717.906 221.035L717.606 220.285C718.04 219.085 718.723 218.052 719.656 217.185C720.59 216.319 721.631 215.652 722.781 215.185C723.931 214.719 725.04 214.485 726.106 214.485L726.006 216.785C724.506 216.785 723.148 217.119 721.931 217.785C720.715 218.452 719.748 219.344 719.031 220.46C718.315 221.577 717.956 222.835 717.956 224.235L717.956 234.585L715.606 234.585L715.606 215.035L717.656 215.035Z"/>
<path d="M747.006 216.885C747.006 214.385 747.473 212.044 748.406 209.86C749.34 207.677 750.64 205.744 752.306 204.06C753.973 202.377 755.898 201.06 758.081 200.11C760.265 199.16 762.606 198.685 765.106 198.685C767.606 198.685 769.956 199.16 772.156 200.11C774.356 201.06 776.29 202.377 777.956 204.06C779.623 205.744 780.931 207.677 781.881 209.86C782.831 212.044 783.306 214.385 783.306 216.885C783.306 219.385 782.831 221.727 781.881 223.91C780.931 226.094 779.623 228.019 777.956 229.685C776.29 231.352 774.356 232.652 772.156 233.585C769.956 234.519 767.606 234.985 765.106 234.985C762.606 234.985 760.265 234.535 758.081 233.635C755.898 232.735 753.973 231.469 752.306 229.835C750.64 228.202 749.34 226.285 748.406 224.085C747.473 221.885 747.006 219.485 747.006 216.885ZM749.506 216.935C749.506 219.102 749.906 221.135 750.706 223.035C751.506 224.935 752.623 226.602 754.056 228.035C755.49 229.469 757.148 230.594 759.031 231.41C760.915 232.227 762.923 232.635 765.056 232.635C767.256 232.635 769.306 232.227 771.206 231.41C773.106 230.594 774.773 229.469 776.206 228.035C777.64 226.602 778.765 224.935 779.581 223.035C780.398 221.135 780.806 219.085 780.806 216.885C780.806 214.719 780.398 212.677 779.581 210.76C778.765 208.844 777.64 207.16 776.206 205.71C774.773 204.26 773.106 203.119 771.206 202.285C769.306 201.452 767.273 201.035 765.106 201.035C762.906 201.035 760.856 201.46 758.956 202.31C757.056 203.16 755.398 204.319 753.981 205.785C752.565 207.252 751.465 208.944 750.681 210.86C749.898 212.777 749.506 214.802 749.506 216.935Z"/>
<path d="M791.156 196.585L793.506 196.585L793.506 234.585L791.156 234.585L791.156 196.585Z"/>
<path d="M810.406 234.985C808.573 234.985 806.906 234.544 805.406 233.66C803.906 232.777 802.715 231.552 801.831 229.985C800.948 228.419 800.506 226.652 800.506 224.685C800.506 222.585 800.956 220.769 801.856 219.235C802.756 217.702 803.981 216.519 805.531 215.685C807.081 214.852 808.79 214.435 810.656 214.435C812.523 214.435 814.298 214.919 815.981 215.885C817.665 216.852 818.89 218.119 819.656 219.685L819.256 220.785L819.256 196.585L821.606 196.585L821.606 234.585L819.206 234.585L819.206 228.585L819.706 229.685C818.873 231.252 817.623 232.527 815.956 233.51C814.29 234.494 812.44 234.985 810.406 234.985ZM811.006 232.935C812.506 232.935 813.856 232.61 815.056 231.96C816.256 231.31 817.223 230.427 817.956 229.31C818.69 228.194 819.106 226.935 819.206 225.535L819.206 223.035C818.973 221.769 818.456 220.635 817.656 219.635C816.856 218.635 815.89 217.844 814.756 217.26C813.623 216.677 812.373 216.385 811.006 216.385C809.506 216.385 808.14 216.735 806.906 217.435C805.673 218.135 804.69 219.102 803.956 220.335C803.223 221.569 802.856 223.002 802.856 224.635C802.856 226.169 803.223 227.56 803.956 228.81C804.69 230.06 805.681 231.06 806.931 231.81C808.181 232.56 809.54 232.935 811.006 232.935Z"/>
<path d="M839.006 234.985C836.973 234.985 835.173 234.535 833.606 233.635C832.04 232.735 830.815 231.51 829.931 229.96C829.048 228.41 828.606 226.669 828.606 224.735C828.606 222.835 829.073 221.102 830.006 219.535C830.94 217.969 832.198 216.719 833.781 215.785C835.365 214.852 837.123 214.385 839.056 214.385C841.39 214.385 843.348 215.069 844.931 216.435C846.515 217.802 847.656 219.585 848.356 221.785L831.256 228.385L830.556 226.685L846.206 220.585L845.706 221.285C845.14 219.952 844.281 218.802 843.131 217.835C841.981 216.869 840.573 216.385 838.906 216.385C837.406 216.385 836.056 216.752 834.856 217.485C833.656 218.219 832.698 219.202 831.981 220.435C831.265 221.669 830.906 223.069 830.906 224.635C830.906 226.102 831.248 227.469 831.931 228.735C832.615 230.002 833.573 231.019 834.806 231.785C836.04 232.552 837.456 232.935 839.056 232.935C840.123 232.935 841.148 232.735 842.131 232.335C843.115 231.935 843.99 231.419 844.756 230.785L845.956 232.485C845.023 233.219 843.948 233.819 842.731 234.285C841.515 234.752 840.273 234.985 839.006 234.985Z"/>
<path d="M856.906 215.035L857.156 221.035L856.856 220.285C857.29 219.085 857.973 218.052 858.906 217.185C859.84 216.319 860.881 215.652 862.031 215.185C863.181 214.719 864.29 214.485 865.356 214.485L865.256 216.785C863.756 216.785 862.398 217.119 861.181 217.785C859.965 218.452 858.998 219.344 858.281 220.46C857.565 221.577 857.206 222.835 857.206 224.235L857.206 234.585L854.856 234.585L854.856 215.035L856.906 215.035Z"/>
<path d="M885.406 234.585L900.406 197.535L900.606 197.535L915.606 234.585L912.856 234.585L899.806 201.435L901.506 200.485L887.856 234.585L885.406 234.585ZM892.656 220.535L908.406 220.535L909.106 222.835L892.056 222.835L892.656 220.535Z"/>
<path d="M930.356 234.985C928.523 234.985 926.856 234.544 925.356 233.66C923.856 232.777 922.665 231.552 921.781 229.985C920.898 228.419 920.456 226.652 920.456 224.685C920.456 222.585 920.906 220.769 921.806 219.235C922.706 217.702 923.931 216.519 925.481 215.685C927.031 214.852 928.74 214.435 930.606 214.435C932.473 214.435 934.248 214.919 935.931 215.885C937.615 216.852 938.84 218.119 939.606 219.685L939.206 220.785L939.206 196.585L941.556 196.585L941.556 234.585L939.156 234.585L939.156 228.585L939.656 229.685C938.823 231.252 937.573 232.527 935.906 233.51C934.24 234.494 932.39 234.985 930.356 234.985ZM930.956 232.935C932.456 232.935 933.806 232.61 935.006 231.96C936.206 231.31 937.173 230.427 937.906 229.31C938.64 228.194 939.056 226.935 939.156 225.535L939.156 223.035C938.923 221.769 938.406 220.635 937.606 219.635C936.806 218.635 935.84 217.844 934.706 217.26C933.573 216.677 932.323 216.385 930.956 216.385C929.456 216.385 928.09 216.735 926.856 217.435C925.623 218.135 924.64 219.102 923.906 220.335C923.173 221.569 922.806 223.002 922.806 224.635C922.806 226.169 923.173 227.56 923.906 228.81C924.64 230.06 925.631 231.06 926.881 231.81C928.131 232.56 929.49 232.935 930.956 232.935Z"/>
<path d="M956.606 235.135C954.773 235.135 953.306 234.594 952.206 233.51C951.106 232.427 950.523 231.019 950.456 229.285L950.456 215.035L952.806 215.035L952.806 228.585C952.873 229.852 953.281 230.902 954.031 231.735C954.781 232.569 955.906 233.019 957.406 233.085C958.673 233.085 959.856 232.752 960.956 232.085C962.056 231.419 962.948 230.51 963.631 229.36C964.315 228.21 964.656 226.902 964.656 225.435L964.656 215.035L967.006 215.035L967.006 234.585L964.906 234.585L964.656 228.435L965.006 229.785C964.673 230.785 964.081 231.694 963.231 232.51C962.381 233.327 961.381 233.969 960.231 234.435C959.081 234.902 957.873 235.135 956.606 235.135Z"/>
<path d="M975.906 196.585L978.256 196.585L978.256 234.585L975.906 234.585L975.906 196.585Z"/>
<path d="M989.106 206.435L991.506 206.435L991.506 215.285L997.556 215.285L997.556 217.185L991.506 217.185L991.506 234.585L989.106 234.585L989.106 217.185L984.956 217.185L984.956 215.285L989.106 215.285L989.106 206.435Z"/>
<path d="M1008.01 234.985C1006.87 234.985 1005.69 234.777 1004.46 234.36C1003.22 233.944 1002.22 233.269 1001.46 232.335L1002.56 230.785C1003.22 231.485 1004.01 232.044 1004.93 232.46C1005.85 232.877 1006.82 233.085 1007.86 233.085C1008.62 233.085 1009.35 232.977 1010.03 232.76C1010.71 232.544 1011.27 232.169 1011.71 231.635C1012.14 231.102 1012.36 230.385 1012.36 229.485C1012.36 228.552 1012.1 227.835 1011.58 227.335C1011.06 226.835 1010.41 226.427 1009.63 226.11C1008.85 225.794 1008.02 225.502 1007.16 225.235C1005.72 224.769 1004.55 224.135 1003.63 223.335C1002.71 222.535 1002.26 221.402 1002.26 219.935C1002.26 218.869 1002.51 217.935 1003.03 217.135C1003.55 216.335 1004.26 215.71 1005.16 215.26C1006.06 214.81 1007.07 214.585 1008.21 214.585C1009.24 214.585 1010.26 214.752 1011.28 215.085C1012.3 215.419 1013.22 215.985 1014.06 216.785L1013.01 218.435C1012.47 217.702 1011.76 217.202 1010.88 216.935C1010 216.669 1009.22 216.519 1008.56 216.485C1007.99 216.485 1007.4 216.602 1006.78 216.835C1006.16 217.069 1005.65 217.41 1005.23 217.86C1004.81 218.31 1004.61 218.902 1004.61 219.635C1004.61 220.402 1004.82 221.027 1005.26 221.51C1005.69 221.994 1006.25 222.385 1006.93 222.685C1007.61 222.985 1008.32 223.269 1009.06 223.535C1010.02 223.835 1010.93 224.194 1011.78 224.61C1012.63 225.027 1013.33 225.577 1013.88 226.26C1014.43 226.944 1014.71 227.852 1014.71 228.985C1014.71 230.119 1014.46 231.144 1013.96 232.06C1013.46 232.977 1012.71 233.694 1011.73 234.21C1010.75 234.727 1009.51 234.985 1008.01 234.985Z"/>
</g>
</g>
<g id="Icon" vectornator:layerName="Icon">
<path d="M153.183 17.0621C77.5485 16.9912 16.1693 77.4532 16.0993 152.097C16.0293 226.752 77.2951 287.319 152.93 287.389C228.574 287.46 289.943 227.008 290.013 152.354C290.083 77.71 228.828 17.133 153.183 17.0621ZM70.9047 230.3C65.5924 224.852 60.8525 218.873 56.7327 212.459C76.5898 195.944 102.2 185.969 130.197 185.995L175.852 186.038C210.981 186.071 242.905 172.936 267.142 151.474C267.142 151.772 267.186 152.046 267.186 152.333C267.176 163.001 265.56 173.275 262.744 183.051C237.696 199.143 207.896 208.597 175.831 208.566L130.176 208.524C107.53 208.502 86.8797 216.775 70.9047 230.3ZM46.333 191.867C43.4776 184.387 41.4237 176.532 40.2364 168.39C65.8979 151.066 96.8837 140.9 130.24 140.932L175.894 140.975C208.538 141.005 237.219 124.005 253.383 98.501C257.656 106.25 260.901 114.603 263.248 123.316C242.305 147.89 210.958 163.536 175.873 163.503L130.218 163.46C98.5779 163.427 69.5193 174.091 46.333 191.867ZM238.601 77.8409C228.012 101.708 203.957 118.472 175.915 118.446L130.261 118.403C97.2266 118.372 66.2216 127.088 39.4357 142.286C40.325 132.356 42.5629 122.829 45.8823 113.813C71.6581 102.311 100.209 95.8467 130.282 95.8749L175.936 95.9177C197.456 95.9379 215.438 81.1374 220.261 61.3303C226.967 66.1687 233.111 71.6959 238.601 77.8409ZM153.162 39.5871C169.402 39.6023 184.823 43.0162 198.804 49.0677L198.803 50.862C198.791 63.2903 188.54 73.4045 175.957 73.3927L130.303 73.3499C106.753 73.3278 84.0901 77.01 62.7084 83.5894C83.5989 56.8465 116.303 39.5526 153.162 39.5871ZM152.951 264.861C129.045 264.839 106.882 257.539 88.548 245.124C100.105 236.336 114.487 231.034 130.155 231.049L175.81 231.092C200.808 231.115 224.609 226.055 246.318 217.033C225.638 245.969 191.559 264.897 152.951 264.861Z" fill="#ffffff" fill-rule="nonzero" opacity="1" stroke="none"/>
</g>
<g id="Sub" vectornator:layerName="Sub"/>
</svg>
