<?xml version="1.0" encoding="UTF-8" standalone="no"?>
<!DOCTYPE svg PUBLIC "-//W3C//DTD SVG 1.1//EN" "http://www.w3.org/Graphics/SVG/1.1/DTD/svg11.dtd">
<!-- Created with Vectornator (http://vectornator.io/) -->
<svg height="100%" stroke-miterlimit="10" style="fill-rule:nonzero;clip-rule:evenodd;stroke-linecap:round;stroke-linejoin:round;" version="1.1" viewBox="0 0 1356.11 309.465" width="100%" xml:space="preserve" xmlns="http://www.w3.org/2000/svg" xmlns:vectornator="http://vectornator.io" xmlns:xlink="http://www.w3.org/1999/xlink">
<defs/>
<g id="Main" vectornator:layerName="Main">
<g opacity="1">
<path d="M370.283 170.552C367.467 170.552 364.715 170.466 362.027 170.296C359.339 170.125 356.694 169.869 354.091 169.528C351.489 169.186 348.993 168.802 346.603 168.376C344.214 167.949 341.91 167.437 339.691 166.84L339.691 147.128C342.593 147.384 345.729 147.597 349.099 147.768C352.47 147.938 355.883 148.066 359.339 148.152C362.795 148.237 366.017 148.28 369.003 148.28C371.819 148.28 374.166 148.066 376.043 147.64C377.921 147.213 379.329 146.53 380.267 145.592C381.206 144.653 381.675 143.373 381.675 141.752L381.675 140.216C381.675 138.338 381.014 136.93 379.691 135.992C378.369 135.053 376.811 134.584 375.019 134.584L368.235 134.584C358.337 134.584 350.827 132.408 345.707 128.056C340.587 123.704 338.027 116.408 338.027 106.168L338.027 101.944C338.027 92.5572 340.843 85.5385 346.475 80.8879C352.107 76.2372 360.214 73.9119 370.795 73.9119C374.806 73.9119 378.582 74.1039 382.123 74.4879C385.665 74.8719 388.993 75.3412 392.107 75.8959C395.222 76.4505 398.017 77.0265 400.491 77.6239L400.491 97.3362C396.566 96.9942 392.15 96.7172 387.243 96.5042C382.337 96.2905 377.878 96.1839 373.867 96.1839C371.478 96.1839 369.345 96.3545 367.467 96.6962C365.59 97.0372 364.139 97.7202 363.115 98.7442C362.091 99.7682 361.579 101.261 361.579 103.224L361.579 104.504C361.579 106.637 362.262 108.258 363.627 109.368C364.993 110.477 367.083 111.032 369.899 111.032L378.347 111.032C384.321 111.032 389.291 112.162 393.259 114.424C397.227 116.685 400.214 119.757 402.219 123.64C404.225 127.522 405.227 131.938 405.227 136.888L405.227 141.112C405.227 149.218 403.819 155.405 401.003 159.672C398.187 163.938 394.177 166.818 388.971 168.312C383.766 169.805 377.537 170.552 370.283 170.552Z" fill="#ffffff" fill-rule="nonzero" opacity="1" stroke="none"/>
<path d="M416.875 169.784L416.875 74.6799L441.707 74.6799L441.707 169.784L416.875 169.784Z" fill="#ffffff" fill-rule="nonzero" opacity="1" stroke="none"/>
<path d="M480.491 169.784C474.774 169.784 470.081 168.93 466.411 167.224C462.742 165.517 460.054 162.829 458.347 159.16C456.641 155.49 455.787 150.797 455.787 145.08L455.787 74.6799L480.619 74.6799L480.619 140.856C480.619 142.306 480.854 143.544 481.323 144.568C481.793 145.592 482.539 146.338 483.563 146.808C484.587 147.277 485.825 147.512 487.275 147.512L514.923 147.512L514.923 169.784L480.491 169.784Z" fill="#ffffff" fill-rule="nonzero" opacity="1" stroke="none"/>
<path d="M543.083 169.784L514.923 74.6799L540.651 74.6799L558.699 142.776L576.747 74.6799L602.219 74.6799L574.059 169.784L543.083 169.784Z" fill="#ffffff" fill-rule="nonzero" opacity="1" stroke="none"/>
<path d="M631.787 170.552C629.739 170.552 627.286 170.338 624.427 169.912C621.569 169.485 618.795 168.546 616.107 167.096C613.419 165.645 611.179 163.405 609.387 160.376C607.595 157.346 606.699 153.186 606.699 147.896L606.699 98.2322C606.699 93.6239 607.425 89.7839 608.875 86.7119C610.326 83.6399 612.203 81.2292 614.507 79.4799C616.811 77.7305 619.371 76.4932 622.187 75.7679C625.003 75.0425 627.734 74.6799 630.379 74.6799C637.547 74.6799 643.713 74.7865 648.875 74.9999C654.038 75.2132 658.518 75.4479 662.315 75.7039C666.113 75.9599 669.462 76.2585 672.363 76.5999L672.363 97.5922L638.059 97.5922C635.926 97.5922 634.305 98.0612 633.195 99.0002C632.086 99.9382 631.531 101.346 631.531 103.224L631.531 111.16L665.963 112.44L665.963 132.152L631.531 133.432L631.531 140.6C631.531 142.136 631.766 143.394 632.235 144.376C632.705 145.357 633.366 146.082 634.219 146.552C635.073 147.021 636.011 147.256 637.035 147.256L672.363 147.256L672.363 168.248C668.694 168.76 664.513 169.186 659.819 169.528C655.126 169.869 650.347 170.125 645.483 170.296C640.619 170.466 636.054 170.552 631.787 170.552Z" fill="#ffffff" fill-rule="nonzero" opacity="1" stroke="none"/>
<path d="M684.011 169.784L684.011 74.6799L724.587 74.6799C728.769 74.6799 732.609 75.1919 736.107 76.2159C739.606 77.2399 742.635 78.9679 745.195 81.3999C747.755 83.8319 749.739 87.0959 751.147 91.1919C752.555 95.2879 753.259 100.45 753.259 106.68C753.259 110.605 752.918 114.018 752.235 116.92C751.553 119.821 750.635 122.274 749.483 124.28C748.331 126.285 746.966 127.97 745.387 129.336C743.809 130.701 742.123 131.896 740.331 132.92L756.843 169.784L731.627 169.784L718.315 137.016C717.547 137.016 716.758 137.016 715.947 137.016C715.137 137.016 714.347 137.016 713.579 137.016C712.811 137.016 712.022 137.016 711.211 137.016C710.401 137.016 709.611 137.016 708.843 137.016L708.843 169.784L684.011 169.784ZM708.843 117.304L720.107 117.304C721.473 117.304 722.667 117.112 723.691 116.728C724.715 116.344 725.59 115.725 726.315 114.872C727.041 114.018 727.574 112.93 727.915 111.608C728.257 110.285 728.427 108.685 728.427 106.808C728.427 104.93 728.257 103.352 727.915 102.072C727.574 100.792 727.041 99.7892 726.315 99.0642C725.59 98.3382 724.715 97.8052 723.691 97.4642C722.667 97.1222 721.473 96.9522 720.107 96.9522L708.843 96.9522L708.843 117.304Z" fill="#ffffff" fill-rule="nonzero" opacity="1" stroke="none"/>
<path d="M827.755 170.552C824.939 170.552 822.187 170.466 819.499 170.296C816.811 170.125 814.166 169.869 811.563 169.528C808.961 169.186 806.465 168.802 804.075 168.376C801.686 167.949 799.382 167.437 797.163 166.84L797.163 147.128C800.065 147.384 803.201 147.597 806.571 147.768C809.942 147.938 813.355 148.066 816.811 148.152C820.267 148.237 823.489 148.28 826.475 148.28C829.291 148.28 831.638 148.066 833.515 147.64C835.393 147.213 836.801 146.53 837.739 145.592C838.678 144.653 839.147 143.373 839.147 141.752L839.147 140.216C839.147 138.338 838.486 136.93 837.163 135.992C835.841 135.053 834.283 134.584 832.491 134.584L825.707 134.584C815.809 134.584 808.299 132.408 803.179 128.056C798.059 123.704 795.499 116.408 795.499 106.168L795.499 101.944C795.499 92.5572 798.315 85.5385 803.947 80.8879C809.579 76.2372 817.686 73.9119 828.267 73.9119C832.278 73.9119 836.054 74.1039 839.595 74.4879C843.137 74.8719 846.465 75.3412 849.579 75.8959C852.694 76.4505 855.489 77.0265 857.963 77.6239L857.963 97.3362C854.038 96.9942 849.622 96.7172 844.715 96.5042C839.809 96.2905 835.35 96.1839 831.339 96.1839C828.95 96.1839 826.817 96.3545 824.939 96.6962C823.062 97.0372 821.611 97.7202 820.587 98.7442C819.563 99.7682 819.051 101.261 819.051 103.224L819.051 104.504C819.051 106.637 819.734 108.258 821.099 109.368C822.465 110.477 824.555 111.032 827.371 111.032L835.819 111.032C841.793 111.032 846.763 112.162 850.731 114.424C854.699 116.685 857.686 119.757 859.691 123.64C861.697 127.522 862.699 131.938 862.699 136.888L862.699 141.112C862.699 149.218 861.291 155.405 858.475 159.672C855.659 163.938 851.649 166.818 846.443 168.312C841.238 169.805 835.009 170.552 827.755 170.552Z" fill="#ffffff" fill-rule="nonzero" opacity="1" stroke="none"/>
<path d="M911.595 170.424C906.39 170.424 901.462 169.997 896.811 169.144C892.161 168.29 888.043 166.712 884.459 164.408C880.875 162.104 878.081 158.861 876.075 154.68C874.07 150.498 873.067 145.08 873.067 138.424L873.067 74.6799L897.899 74.6799L897.899 138.296C897.899 140.514 898.433 142.349 899.499 143.8C900.566 145.25 902.123 146.338 904.171 147.064C906.219 147.789 908.694 148.152 911.595 148.152C914.497 148.152 916.971 147.789 919.019 147.064C921.067 146.338 922.625 145.25 923.691 143.8C924.758 142.349 925.291 140.514 925.291 138.296L925.291 74.6799L950.123 74.6799L950.123 138.424C950.123 145.08 949.121 150.498 947.115 154.68C945.11 158.861 942.315 162.104 938.731 164.408C935.147 166.712 931.051 168.29 926.443 169.144C921.835 169.997 916.886 170.424 911.595 170.424Z" fill="#ffffff" fill-rule="nonzero" opacity="1" stroke="none"/>
<path d="M962.923 169.784L962.923 74.6799L1003.5 74.6799C1007.68 74.6799 1011.52 75.1919 1015.02 76.2159C1018.52 77.2399 1021.55 78.9679 1024.11 81.3999C1026.67 83.8319 1028.65 87.0959 1030.06 91.1919C1031.47 95.2879 1032.17 100.45 1032.17 106.68C1032.17 110.605 1031.83 114.018 1031.15 116.92C1030.46 119.821 1029.55 122.274 1028.39 124.28C1027.24 126.285 1025.88 127.97 1024.3 129.336C1022.72 130.701 1021.03 131.896 1019.24 132.92L1035.75 169.784L1010.54 169.784L997.227 137.016C996.459 137.016 995.67 137.016 994.859 137.016C994.049 137.016 993.259 137.016 992.491 137.016C991.723 137.016 990.934 137.016 990.123 137.016C989.313 137.016 988.523 137.016 987.755 137.016L987.755 169.784L962.923 169.784ZM987.755 117.304L999.019 117.304C1000.38 117.304 1001.58 117.112 1002.6 116.728C1003.63 116.344 1004.5 115.725 1005.23 114.872C1005.95 114.018 1006.49 112.93 1006.83 111.608C1007.17 110.285 1007.34 108.685 1007.34 106.808C1007.34 104.93 1007.17 103.352 1006.83 102.072C1006.49 100.792 1005.95 99.7892 1005.23 99.0642C1004.5 98.3382 1003.63 97.8052 1002.6 97.4642C1001.58 97.1222 1000.38 96.9522 999.019 96.9522L987.755 96.9522L987.755 117.304Z" fill="#ffffff" fill-rule="nonzero" opacity="1" stroke="none"/>
<path d="M1044.84 169.784L1044.84 98.2322C1044.84 93.6239 1045.57 89.7839 1047.02 86.7119C1048.47 83.6399 1050.35 81.2292 1052.65 79.4799C1054.95 77.7305 1057.51 76.4932 1060.33 75.7679C1063.15 75.0425 1065.88 74.6799 1068.52 74.6799C1071.17 74.6799 1074.84 74.7012 1079.53 74.7439C1084.22 74.7865 1089.32 74.9572 1094.83 75.2559C1100.33 75.5545 1105.56 76.0452 1110.51 76.7279L1110.51 97.5922L1075.69 97.5922C1073.56 97.5922 1072.02 98.1682 1071.08 99.3202C1070.14 100.472 1069.67 101.688 1069.67 102.968L1069.67 113.72L1104.11 115L1104.11 134.712L1069.67 135.992L1069.67 169.784L1044.84 169.784Z" fill="#ffffff" fill-rule="nonzero" opacity="1" stroke="none"/>
<path d="M1144.55 170.552C1142.51 170.552 1140.05 170.338 1137.19 169.912C1134.34 169.485 1131.56 168.546 1128.87 167.096C1126.19 165.645 1123.95 163.405 1122.15 160.376C1120.36 157.346 1119.47 153.186 1119.47 147.896L1119.47 98.2322C1119.47 93.6239 1120.19 89.7839 1121.64 86.7119C1123.09 83.6399 1124.97 81.2292 1127.27 79.4799C1129.58 77.7305 1132.14 76.4932 1134.95 75.7679C1137.77 75.0425 1140.5 74.6799 1143.15 74.6799C1150.31 74.6799 1156.48 74.7865 1161.64 74.9999C1166.8 75.2132 1171.28 75.4479 1175.08 75.7039C1178.88 75.9599 1182.23 76.2585 1185.13 76.5999L1185.13 97.5922L1150.83 97.5922C1148.69 97.5922 1147.07 98.0612 1145.96 99.0002C1144.85 99.9382 1144.3 101.346 1144.3 103.224L1144.3 111.16L1178.73 112.44L1178.73 132.152L1144.3 133.432L1144.3 140.6C1144.3 142.136 1144.53 143.394 1145 144.376C1145.47 145.357 1146.13 146.082 1146.99 146.552C1147.84 147.021 1148.78 147.256 1149.8 147.256L1185.13 147.256L1185.13 168.248C1181.46 168.76 1177.28 169.186 1172.59 169.528C1167.89 169.869 1163.11 170.125 1158.25 170.296C1153.39 170.466 1148.82 170.552 1144.55 170.552Z" fill="#ffffff" fill-rule="nonzero" opacity="1" stroke="none"/>
<path d="M1196.78 169.784L1196.78 74.6799L1237.35 74.6799C1241.54 74.6799 1245.38 75.1919 1248.87 76.2159C1252.37 77.2399 1255.4 78.9679 1257.96 81.3999C1260.52 83.8319 1262.51 87.0959 1263.91 91.1919C1265.32 95.2879 1266.03 100.45 1266.03 106.68C1266.03 110.605 1265.68 114.018 1265 116.92C1264.32 119.821 1263.4 122.274 1262.25 124.28C1261.1 126.285 1259.73 127.97 1258.15 129.336C1256.58 130.701 1254.89 131.896 1253.1 132.92L1269.61 169.784L1244.39 169.784L1231.08 137.016C1230.31 137.016 1229.52 137.016 1228.71 137.016C1227.9 137.016 1227.11 137.016 1226.35 137.016C1225.58 137.016 1224.79 137.016 1223.98 137.016C1223.17 137.016 1222.38 137.016 1221.61 137.016L1221.61 169.784L1196.78 169.784ZM1221.61 117.304L1232.87 117.304C1234.24 117.304 1235.43 117.112 1236.46 116.728C1237.48 116.344 1238.36 115.725 1239.08 114.872C1239.81 114.018 1240.34 112.93 1240.68 111.608C1241.02 110.285 1241.19 108.685 1241.19 106.808C1241.19 104.93 1241.02 103.352 1240.68 102.072C1240.34 100.792 1239.81 99.7892 1239.08 99.0642C1238.36 98.3382 1237.48 97.8052 1236.46 97.4642C1235.43 97.1222 1234.24 96.9522 1232.87 96.9522L1221.61 96.9522L1221.61 117.304Z" fill="#ffffff" fill-rule="nonzero" opacity="1" stroke="none"/>
<path d="M1308.52 170.552C1305.71 170.552 1302.95 170.466 1300.27 170.296C1297.58 170.125 1294.93 169.869 1292.33 169.528C1289.73 169.186 1287.23 168.802 1284.84 168.376C1282.45 167.949 1280.15 167.437 1277.93 166.84L1277.93 147.128C1280.83 147.384 1283.97 147.597 1287.34 147.768C1290.71 147.938 1294.12 148.066 1297.58 148.152C1301.03 148.237 1304.26 148.28 1307.24 148.28C1310.06 148.28 1312.4 148.066 1314.28 147.64C1316.16 147.213 1317.57 146.53 1318.51 145.592C1319.44 144.653 1319.91 143.373 1319.91 141.752L1319.91 140.216C1319.91 138.338 1319.25 136.93 1317.93 135.992C1316.61 135.053 1315.05 134.584 1313.26 134.584L1306.47 134.584C1296.58 134.584 1289.07 132.408 1283.95 128.056C1278.83 123.704 1276.27 116.408 1276.27 106.168L1276.27 101.944C1276.27 92.5572 1279.08 85.5385 1284.71 80.8879C1290.35 76.2372 1298.45 73.9119 1309.03 73.9119C1313.04 73.9119 1316.82 74.1039 1320.36 74.4879C1323.9 74.8719 1327.23 75.3412 1330.35 75.8959C1333.46 76.4505 1336.26 77.0265 1338.73 77.6239L1338.73 97.3362C1334.8 96.9942 1330.39 96.7172 1325.48 96.5042C1320.58 96.2905 1316.12 96.1839 1312.11 96.1839C1309.72 96.1839 1307.58 96.3545 1305.71 96.6962C1303.83 97.0372 1302.38 97.7202 1301.35 98.7442C1300.33 99.7682 1299.82 101.261 1299.82 103.224L1299.82 104.504C1299.82 106.637 1300.5 108.258 1301.87 109.368C1303.23 110.477 1305.32 111.032 1308.14 111.032L1316.59 111.032C1322.56 111.032 1327.53 112.162 1331.5 114.424C1335.47 116.685 1338.45 119.757 1340.46 123.64C1342.46 127.522 1343.47 131.938 1343.47 136.888L1343.47 141.112C1343.47 149.218 1342.06 155.405 1339.24 159.672C1336.43 163.938 1332.42 166.818 1327.21 168.312C1322 169.805 1315.78 170.552 1308.52 170.552Z" fill="#ffffff" fill-rule="nonzero" opacity="1" stroke="none"/>
</g>
<g fill="#ffffff" opacity="1" stroke="none">
<path d="M342.37 250.433L342.37 207.053L354.22 207.053C358.5 207.053 362.145 207.708 365.155 209.018C368.165 210.328 370.595 212.063 372.445 214.223C374.295 216.383 375.65 218.773 376.51 221.393C377.37 224.013 377.8 226.633 377.8 229.253C377.8 232.513 377.225 235.443 376.075 238.043C374.925 240.643 373.355 242.868 371.365 244.718C369.375 246.568 367.09 247.983 364.51 248.963C361.93 249.943 359.2 250.433 356.32 250.433L342.37 250.433ZM348.19 244.823L355.18 244.823C357.56 244.823 359.76 244.468 361.78 243.758C363.8 243.048 365.56 242.013 367.06 240.653C368.56 239.293 369.725 237.623 370.555 235.643C371.385 233.663 371.8 231.403 371.8 228.863C371.8 226.203 371.36 223.863 370.48 221.843C369.6 219.823 368.405 218.133 366.895 216.773C365.385 215.413 363.67 214.388 361.75 213.698C359.83 213.008 357.82 212.663 355.72 212.663L348.19 212.663L348.19 244.823Z"/>
<path d="M386.199 225.593L391.779 225.593L391.779 250.433L386.199 250.433L386.199 225.593ZM385.779 216.593C385.779 215.713 386.129 214.973 386.829 214.373C387.529 213.773 388.299 213.473 389.139 213.473C389.979 213.473 390.729 213.773 391.389 214.373C392.049 214.973 392.379 215.713 392.379 216.593C392.379 217.513 392.049 218.263 391.389 218.843C390.729 219.423 389.979 219.713 389.139 219.713C388.299 219.713 387.529 219.413 386.829 218.813C386.129 218.213 385.779 217.473 385.779 216.593Z"/>
<path d="M413.439 262.763C411.599 262.763 409.974 262.548 408.564 262.118C407.154 261.688 405.879 261.093 404.739 260.333C403.599 259.573 402.499 258.723 401.439 257.783L404.739 253.943C406.059 255.183 407.394 256.143 408.744 256.823C410.094 257.503 411.619 257.843 413.319 257.843C415.199 257.843 416.784 257.533 418.074 256.913C419.364 256.293 420.344 255.438 421.014 254.348C421.684 253.258 422.029 251.983 422.049 250.523L422.079 243.833L422.559 244.943C421.839 246.663 420.544 248.108 418.674 249.278C416.804 250.448 414.539 251.033 411.879 251.033C409.599 251.033 407.499 250.453 405.579 249.293C403.659 248.133 402.129 246.563 400.989 244.583C399.849 242.603 399.279 240.373 399.279 237.893C399.279 235.293 399.879 232.998 401.079 231.008C402.279 229.018 403.869 227.448 405.849 226.298C407.829 225.148 409.969 224.573 412.269 224.573C414.489 224.573 416.499 225.018 418.299 225.908C420.099 226.798 421.429 227.943 422.289 229.343L421.959 230.393L422.559 225.593L427.689 225.593L427.689 250.613C427.689 252.853 427.114 254.893 425.964 256.733C424.814 258.573 423.179 260.038 421.059 261.128C418.939 262.218 416.399 262.763 413.439 262.763ZM404.919 237.743C404.919 239.363 405.299 240.828 406.059 242.138C406.819 243.448 407.849 244.488 409.149 245.258C410.449 246.028 411.899 246.413 413.499 246.413C414.959 246.413 416.274 246.143 417.444 245.603C418.614 245.063 419.604 244.318 420.414 243.368C421.224 242.418 421.779 241.343 422.079 240.143L422.079 235.193C421.739 233.993 421.154 232.948 420.324 232.058C419.494 231.168 418.499 230.468 417.339 229.958C416.179 229.448 414.899 229.193 413.499 229.193C411.899 229.193 410.449 229.558 409.149 230.288C407.849 231.018 406.819 232.023 406.059 233.303C405.299 234.583 404.919 236.063 404.919 237.743Z"/>
<path d="M437.379 225.593L442.959 225.593L442.959 250.433L437.379 250.433L437.379 225.593ZM436.959 216.593C436.959 215.713 437.309 214.973 438.009 214.373C438.709 213.773 439.479 213.473 440.319 213.473C441.159 213.473 441.909 213.773 442.569 214.373C443.229 214.973 443.559 215.713 443.559 216.593C443.559 217.513 443.229 218.263 442.569 218.843C441.909 219.423 441.159 219.713 440.319 219.713C439.479 219.713 438.709 219.413 438.009 218.813C437.309 218.213 436.959 217.473 436.959 216.593Z"/>
<path d="M455.019 214.673L460.659 214.673L460.659 225.683L467.469 225.683L467.469 230.093L460.659 230.093L460.659 250.433L455.019 250.433L455.019 230.093L450.489 230.093L450.489 225.683L455.019 225.683L455.019 214.673Z"/>
<path d="M484.569 251.033C482.229 251.033 480.109 250.533 478.209 249.533C476.309 248.533 474.804 247.063 473.694 245.123C472.584 243.183 472.029 240.813 472.029 238.013C472.029 235.233 472.609 232.838 473.769 230.828C474.929 228.818 476.479 227.273 478.419 226.193C480.359 225.113 482.489 224.573 484.809 224.573C487.149 224.573 489.119 225.098 490.719 226.148C492.319 227.198 493.539 228.453 494.379 229.913L493.989 230.843L494.559 225.593L499.719 225.593L499.719 250.433L494.109 250.433L494.109 243.953L494.739 245.393C494.559 245.793 494.199 246.303 493.659 246.923C493.119 247.543 492.409 248.173 491.529 248.813C490.649 249.453 489.629 249.983 488.469 250.403C487.309 250.823 486.009 251.033 484.569 251.033ZM486.069 246.413C487.449 246.413 488.694 246.153 489.804 245.633C490.914 245.113 491.839 244.378 492.579 243.428C493.319 242.478 493.829 241.353 494.109 240.053L494.109 235.163C493.789 233.983 493.234 232.948 492.444 232.058C491.654 231.168 490.699 230.468 489.579 229.958C488.459 229.448 487.229 229.193 485.889 229.193C484.409 229.193 483.044 229.553 481.794 230.273C480.544 230.993 479.549 231.993 478.809 233.273C478.069 234.553 477.699 236.043 477.699 237.743C477.699 239.363 478.079 240.828 478.839 242.138C479.599 243.448 480.619 244.488 481.899 245.258C483.179 246.028 484.569 246.413 486.069 246.413Z"/>
<path d="M509.379 203.963L514.989 203.963L514.989 250.433L509.379 250.433L509.379 203.963Z"/>
<path d="M545.019 207.053L550.839 207.053L550.839 244.823L572.889 244.823L572.889 250.433L545.019 250.433L545.019 207.053Z"/>
<path d="M580.958 225.593L586.538 225.593L586.538 250.433L580.958 250.433L580.958 225.593ZM580.538 216.593C580.538 215.713 580.888 214.973 581.588 214.373C582.288 213.773 583.058 213.473 583.898 213.473C584.738 213.473 585.488 213.773 586.148 214.373C586.808 214.973 587.138 215.713 587.138 216.593C587.138 217.513 586.808 218.263 586.148 218.843C585.488 219.423 584.738 219.713 583.898 219.713C583.058 219.713 582.288 219.413 581.588 218.813C580.888 218.213 580.538 217.473 580.538 216.593Z"/>
<path d="M598.598 214.673L604.238 214.673L604.238 225.683L611.048 225.683L611.048 230.093L604.238 230.093L604.238 250.433L598.598 250.433L598.598 230.093L594.068 230.093L594.068 225.683L598.598 225.683L598.598 214.673Z"/>
<path d="M629.318 251.033C626.498 251.033 624.063 250.463 622.013 249.323C619.963 248.183 618.383 246.618 617.273 244.628C616.163 242.638 615.608 240.373 615.608 237.833C615.608 235.373 616.228 233.143 617.468 231.143C618.708 229.143 620.373 227.548 622.463 226.358C624.553 225.168 626.878 224.573 629.438 224.573C632.718 224.573 635.438 225.528 637.598 227.438C639.758 229.348 641.228 231.993 642.008 235.373L621.548 242.573L620.198 239.273L636.968 233.123L635.798 233.933C635.298 232.613 634.498 231.468 633.398 230.498C632.298 229.528 630.838 229.043 629.018 229.043C627.498 229.043 626.143 229.408 624.953 230.138C623.763 230.868 622.828 231.868 622.148 233.138C621.468 234.408 621.128 235.873 621.128 237.533C621.128 239.233 621.483 240.738 622.193 242.048C622.903 243.358 623.888 244.383 625.148 245.123C626.408 245.863 627.838 246.233 629.438 246.233C630.538 246.233 631.598 246.033 632.618 245.633C633.638 245.233 634.588 244.713 635.468 244.073L638.048 248.213C636.788 249.053 635.388 249.733 633.848 250.253C632.308 250.773 630.798 251.033 629.318 251.033Z"/>
<path d="M653.978 225.593L654.518 232.793L654.248 231.803C654.888 230.303 655.818 229.018 657.038 227.948C658.258 226.878 659.538 226.053 660.878 225.473C662.218 224.893 663.378 224.603 664.358 224.603L664.088 230.183C662.208 230.063 660.553 230.423 659.123 231.263C657.693 232.103 656.573 233.218 655.763 234.608C654.953 235.998 654.548 237.493 654.548 239.093L654.548 250.433L648.968 250.433L648.968 225.593L653.978 225.593Z"/>
<path d="M681.308 251.033C678.968 251.033 676.848 250.533 674.948 249.533C673.048 248.533 671.543 247.063 670.433 245.123C669.323 243.183 668.768 240.813 668.768 238.013C668.768 235.233 669.348 232.838 670.508 230.828C671.668 228.818 673.218 227.273 675.158 226.193C677.098 225.113 679.228 224.573 681.548 224.573C683.888 224.573 685.858 225.098 687.458 226.148C689.058 227.198 690.278 228.453 691.118 229.913L690.728 230.843L691.298 225.593L696.458 225.593L696.458 250.433L690.848 250.433L690.848 243.953L691.478 245.393C691.298 245.793 690.938 246.303 690.398 246.923C689.858 247.543 689.148 248.173 688.268 248.813C687.388 249.453 686.368 249.983 685.208 250.403C684.048 250.823 682.748 251.033 681.308 251.033ZM682.808 246.413C684.188 246.413 685.433 246.153 686.543 245.633C687.653 245.113 688.578 244.378 689.318 243.428C690.058 242.478 690.568 241.353 690.848 240.053L690.848 235.163C690.528 233.983 689.973 232.948 689.183 232.058C688.393 231.168 687.438 230.468 686.318 229.958C685.198 229.448 683.968 229.193 682.628 229.193C681.148 229.193 679.783 229.553 678.533 230.273C677.283 230.993 676.288 231.993 675.548 233.273C674.808 234.553 674.438 236.043 674.438 237.743C674.438 239.363 674.818 240.828 675.578 242.138C676.338 243.448 677.358 244.488 678.638 245.258C679.918 246.028 681.308 246.413 682.808 246.413Z"/>
<path d="M726.308 248.123C725.188 249.023 723.853 249.733 722.303 250.253C720.753 250.773 719.188 251.033 717.608 251.033C714.908 251.033 712.533 250.493 710.483 249.413C708.433 248.333 706.833 246.818 705.683 244.868C704.533 242.918 703.958 240.623 703.958 237.983C703.958 235.343 704.568 233.048 705.788 231.098C707.008 229.148 708.618 227.638 710.618 226.568C712.618 225.498 714.758 224.963 717.038 224.963C719.038 224.963 720.823 225.243 722.393 225.803C723.963 226.363 725.318 227.123 726.458 228.083L723.668 231.743C722.968 231.183 722.093 230.678 721.043 230.228C719.993 229.778 718.818 229.553 717.518 229.553C716.058 229.553 714.723 229.923 713.513 230.663C712.303 231.403 711.343 232.408 710.633 233.678C709.923 234.948 709.568 236.383 709.568 237.983C709.568 239.523 709.933 240.938 710.663 242.228C711.393 243.518 712.398 244.538 713.678 245.288C714.958 246.038 716.418 246.413 718.058 246.413C719.118 246.413 720.103 246.253 721.013 245.933C721.923 245.613 722.728 245.173 723.428 244.613L726.308 248.123Z"/>
<path d="M735.608 262.373L751.988 225.593L757.148 225.593L741.128 262.373L735.608 262.373ZM741.758 250.613L729.788 225.593L736.088 225.593L746.108 247.763L741.758 250.613Z"/>
<path d="M784.117 250.433L784.117 230.573L779.857 230.573L779.857 225.563L784.117 225.563L784.117 215.093C784.117 211.493 784.937 208.733 786.577 206.813C788.217 204.893 790.617 203.933 793.777 203.933C794.617 203.933 795.542 204.053 796.552 204.293C797.562 204.533 798.457 204.923 799.237 205.463L796.867 209.513C796.527 209.153 796.137 208.903 795.697 208.763C795.257 208.623 794.807 208.553 794.347 208.553C792.887 208.553 791.752 209.053 790.942 210.053C790.132 211.053 789.727 212.763 789.727 215.183L789.727 225.563L797.617 225.563L797.617 230.573L789.727 230.573L789.727 250.433L784.117 250.433Z"/>
<path d="M801.337 237.773C801.337 235.293 801.927 233.053 803.107 231.053C804.287 229.053 805.923 227.473 808.015 226.313C810.107 225.153 812.481 224.573 815.137 224.573C817.837 224.573 820.207 225.153 822.247 226.313C824.287 227.473 825.872 229.053 827.002 231.054C828.132 233.054 828.697 235.289 828.697 237.758C828.697 240.248 828.132 242.498 827.002 244.508C825.872 246.518 824.282 248.108 822.232 249.278C820.182 250.448 817.792 251.033 815.062 251.033C812.432 251.033 810.082 250.488 808.012 249.398C805.942 248.308 804.312 246.768 803.122 244.78C801.932 242.791 801.337 240.455 801.337 237.773ZM806.977 237.833C806.977 239.435 807.331 240.884 808.038 242.18C808.746 243.477 809.708 244.507 810.925 245.269C812.142 246.032 813.496 246.413 814.987 246.413C816.543 246.413 817.927 246.033 819.139 245.273C820.351 244.513 821.302 243.484 821.992 242.186C822.682 240.888 823.027 239.437 823.027 237.833C823.027 236.221 822.682 234.768 821.992 233.474C821.302 232.18 820.353 231.148 819.144 230.378C817.935 229.608 816.554 229.223 815.001 229.223C813.472 229.223 812.102 229.618 810.892 230.408C809.682 231.198 808.727 232.243 808.027 233.543C807.327 234.843 806.977 236.273 806.977 237.833Z"/>
<path d="M841.207 225.593L841.747 232.793L841.477 231.803C842.117 230.303 843.047 229.018 844.267 227.948C845.487 226.878 846.767 226.053 848.107 225.473C849.447 224.893 850.607 224.603 851.587 224.603L851.317 230.183C849.437 230.063 847.782 230.423 846.352 231.263C844.922 232.103 843.802 233.218 842.992 234.608C842.182 235.998 841.777 237.493 841.777 239.093L841.777 250.433L836.197 250.433L836.197 225.593L841.207 225.593Z"/>
<path d="M876.427 228.789C876.427 225.778 876.997 222.938 878.137 220.268C879.277 217.598 880.862 215.233 882.892 213.173C884.922 211.113 887.274 209.498 889.948 208.328C892.622 207.158 895.487 206.573 898.542 206.573C901.579 206.573 904.435 207.158 907.112 208.329C909.789 209.5 912.154 211.115 914.207 213.174C916.26 215.233 917.867 217.598 919.027 220.268C920.187 222.938 920.767 225.781 920.767 228.797C920.767 231.853 920.187 234.718 919.027 237.392C917.867 240.066 916.262 242.418 914.212 244.448C912.162 246.478 909.797 248.063 907.119 249.203C904.44 250.343 901.58 250.913 898.539 250.913C895.477 250.913 892.612 250.353 889.942 249.233C887.272 248.113 884.922 246.548 882.892 244.538C880.862 242.528 879.277 240.183 878.137 237.504C876.997 234.824 876.427 231.919 876.427 228.789ZM882.427 228.82C882.427 231.108 882.844 233.247 883.677 235.236C884.511 237.225 885.671 238.975 887.157 240.486C888.644 241.997 890.368 243.178 892.329 244.028C894.291 244.878 896.402 245.303 898.662 245.303C900.918 245.303 903.022 244.878 904.972 244.028C906.922 243.178 908.626 241.997 910.083 240.485C911.541 238.972 912.686 237.221 913.518 235.23C914.351 233.24 914.767 231.096 914.767 228.8C914.767 226.502 914.347 224.348 913.507 222.338C912.667 220.328 911.511 218.563 910.039 217.042C908.568 215.522 906.852 214.332 904.893 213.472C902.933 212.613 900.824 212.183 898.567 212.183C896.277 212.183 894.155 212.616 892.199 213.482C890.243 214.348 888.53 215.548 887.061 217.082C885.592 218.616 884.452 220.388 883.642 222.398C882.832 224.408 882.427 226.548 882.427 228.82Z"/>
<path d="M929.137 203.963L934.747 203.963L934.747 250.433L929.137 250.433L929.137 203.963Z"/>
<path d="M954.547 251.033C952.227 251.033 950.137 250.483 948.277 249.383C946.417 248.283 944.947 246.723 943.867 244.703C942.787 242.683 942.247 240.343 942.247 237.683C942.247 234.943 942.817 232.593 943.957 230.633C945.097 228.673 946.652 227.173 948.622 226.133C950.592 225.093 952.797 224.573 955.237 224.573C957.197 224.573 959.067 224.993 960.847 225.833C962.627 226.673 964.007 227.833 964.987 229.313L964.747 231.293L964.747 203.963L970.327 203.963L970.327 250.433L964.687 250.433L964.687 244.283L965.317 245.843C964.137 247.343 962.627 248.583 960.787 249.563C958.947 250.543 956.867 251.033 954.547 251.033ZM956.287 246.263C957.747 246.263 959.052 245.993 960.202 245.453C961.352 244.913 962.312 244.163 963.082 243.203C963.852 242.243 964.387 241.123 964.687 239.843L964.687 235.133C964.387 233.933 963.832 232.878 963.022 231.968C962.212 231.058 961.232 230.343 960.082 229.823C958.932 229.303 957.667 229.043 956.287 229.043C954.767 229.043 953.372 229.408 952.102 230.138C950.832 230.868 949.817 231.873 949.057 233.153C948.297 234.433 947.917 235.913 947.917 237.593C947.917 239.213 948.297 240.678 949.057 241.988C949.817 243.298 950.837 244.338 952.117 245.108C953.397 245.878 954.787 246.263 956.287 246.263Z"/>
<path d="M991.537 251.033C988.717 251.033 986.282 250.463 984.232 249.323C982.182 248.183 980.602 246.618 979.492 244.628C978.382 242.638 977.827 240.373 977.827 237.833C977.827 235.373 978.447 233.143 979.687 231.143C980.927 229.143 982.592 227.548 984.682 226.358C986.772 225.168 989.097 224.573 991.657 224.573C994.937 224.573 997.657 225.528 999.817 227.438C1001.98 229.348 1003.45 231.993 1004.23 235.373L983.767 242.573L982.417 239.273L999.187 233.123L998.017 233.933C997.517 232.613 996.717 231.468 995.617 230.498C994.517 229.528 993.057 229.043 991.237 229.043C989.717 229.043 988.362 229.408 987.172 230.138C985.982 230.868 985.047 231.868 984.367 233.138C983.687 234.408 983.347 235.873 983.347 237.533C983.347 239.233 983.702 240.738 984.412 242.048C985.122 243.358 986.107 244.383 987.367 245.123C988.627 245.863 990.057 246.233 991.657 246.233C992.757 246.233 993.817 246.033 994.837 245.633C995.857 245.233 996.807 244.713 997.687 244.073L1000.27 248.213C999.007 249.053 997.607 249.733 996.067 250.253C994.527 250.773 993.017 251.033 991.537 251.033Z"/>
<path d="M1016.2 225.593L1016.74 232.793L1016.47 231.803C1017.11 230.303 1018.04 229.018 1019.26 227.948C1020.48 226.878 1021.76 226.053 1023.1 225.473C1024.44 224.893 1025.6 224.603 1026.58 224.603L1026.31 230.183C1024.43 230.063 1022.77 230.423 1021.34 231.263C1019.91 232.103 1018.79 233.218 1017.98 234.608C1017.17 235.998 1016.77 237.493 1016.77 239.093L1016.77 250.433L1011.19 250.433L1011.19 225.593L1016.2 225.593Z"/>
<path d="M1049.77 250.433L1068.73 205.253L1069.09 205.253L1088.05 250.433L1081.36 250.433L1067.17 214.403L1071.34 211.673L1055.53 250.433L1049.77 250.433ZM1060.93 234.023L1077.01 234.023L1078.96 239.063L1059.22 239.063L1060.93 234.023Z"/>
<path d="M1104.31 251.033C1101.99 251.033 1099.9 250.483 1098.04 249.383C1096.18 248.283 1094.71 246.723 1093.63 244.703C1092.55 242.683 1092.01 240.343 1092.01 237.683C1092.01 234.943 1092.58 232.593 1093.72 230.633C1094.86 228.673 1096.41 227.173 1098.38 226.133C1100.35 225.093 1102.56 224.573 1105 224.573C1106.96 224.573 1108.83 224.993 1110.61 225.833C1112.39 226.673 1113.77 227.833 1114.75 229.313L1114.51 231.293L1114.51 203.963L1120.09 203.963L1120.09 250.433L1114.45 250.433L1114.45 244.283L1115.08 245.843C1113.9 247.343 1112.39 248.583 1110.55 249.563C1108.71 250.543 1106.63 251.033 1104.31 251.033ZM1106.05 246.263C1107.51 246.263 1108.81 245.993 1109.96 245.453C1111.11 244.913 1112.07 244.163 1112.84 243.203C1113.61 242.243 1114.15 241.123 1114.45 239.843L1114.45 235.133C1114.15 233.933 1113.59 232.878 1112.78 231.968C1111.97 231.058 1110.99 230.343 1109.84 229.823C1108.69 229.303 1107.43 229.043 1106.05 229.043C1104.53 229.043 1103.13 229.408 1101.86 230.138C1100.59 230.868 1099.58 231.873 1098.82 233.153C1098.06 234.433 1097.68 235.913 1097.68 237.593C1097.68 239.213 1098.06 240.678 1098.82 241.988C1099.58 243.298 1100.6 244.338 1101.88 245.108C1103.16 245.878 1104.55 246.263 1106.05 246.263Z"/>
<path d="M1137.67 251.393C1135.39 251.393 1133.52 250.703 1132.06 249.323C1130.6 247.943 1129.83 246.153 1129.75 243.953L1129.75 225.593L1135.36 225.593L1135.36 241.973C1135.44 243.313 1135.83 244.408 1136.54 245.258C1137.25 246.108 1138.37 246.553 1139.89 246.593C1141.27 246.593 1142.51 246.183 1143.62 245.363C1144.73 244.543 1145.62 243.423 1146.28 242.003C1146.94 240.583 1147.27 238.973 1147.27 237.173L1147.27 225.593L1152.88 225.593L1152.88 250.433L1147.81 250.433L1147.33 244.343L1147.6 245.423C1147.1 246.563 1146.36 247.588 1145.39 248.498C1144.42 249.408 1143.28 250.118 1141.96 250.628C1140.64 251.138 1139.21 251.393 1137.67 251.393Z"/>
<path d="M1162.54 203.963L1168.15 203.963L1168.15 250.433L1162.54 250.433L1162.54 203.963Z"/>
<path d="M1180.21 214.673L1185.85 214.673L1185.85 225.683L1192.66 225.683L1192.66 230.093L1185.85 230.093L1185.85 250.433L1180.21 250.433L1180.21 230.093L1175.68 230.093L1175.68 225.683L1180.21 225.683L1180.21 214.673Z"/>
<path d="M1206.4 250.943C1204.64 250.943 1202.92 250.628 1201.25 249.998C1199.58 249.368 1198.2 248.433 1197.1 247.193L1199.5 243.953C1200.54 244.953 1201.61 245.703 1202.71 246.203C1203.81 246.703 1204.89 246.953 1205.95 246.953C1206.75 246.953 1207.49 246.853 1208.17 246.653C1208.85 246.453 1209.4 246.118 1209.82 245.648C1210.24 245.178 1210.45 244.553 1210.45 243.773C1210.45 242.873 1210.16 242.173 1209.58 241.673C1209 241.173 1208.26 240.763 1207.37 240.443C1206.48 240.123 1205.54 239.813 1204.54 239.513C1202.48 238.853 1200.91 237.918 1199.83 236.708C1198.75 235.498 1198.21 234.023 1198.21 232.283C1198.21 230.983 1198.54 229.758 1199.2 228.608C1199.86 227.458 1200.84 226.523 1202.15 225.803C1203.46 225.083 1205.07 224.723 1206.97 224.723C1208.69 224.723 1210.23 224.933 1211.6 225.353C1212.97 225.773 1214.25 226.473 1215.43 227.453L1213.21 230.903C1212.51 230.163 1211.66 229.608 1210.66 229.238C1209.66 228.868 1208.76 228.663 1207.96 228.623C1207.26 228.603 1206.6 228.713 1205.98 228.953C1205.36 229.193 1204.85 229.528 1204.46 229.958C1204.07 230.388 1203.88 230.913 1203.88 231.533C1203.86 232.373 1204.13 233.048 1204.7 233.558C1205.27 234.068 1206 234.473 1206.89 234.773C1207.78 235.073 1208.68 235.383 1209.58 235.703C1210.8 236.083 1211.89 236.568 1212.86 237.158C1213.83 237.748 1214.61 238.483 1215.19 239.363C1215.77 240.243 1216.06 241.353 1216.06 242.693C1216.06 244.173 1215.7 245.543 1214.99 246.803C1214.28 248.063 1213.22 249.068 1211.8 249.818C1210.38 250.568 1208.58 250.943 1206.4 250.943Z"/>
</g>
</g>
<g id="Icon" vectornator:layerName="Icon">
<path d="M153.183 17.0621C77.5485 16.9912 16.1693 77.4532 16.0993 152.097C16.0293 226.752 77.2951 287.319 152.93 287.389C228.574 287.46 289.943 227.008 290.013 152.354C290.083 77.71 228.828 17.133 153.183 17.0621ZM70.9047 230.3C65.5924 224.852 60.8525 218.873 56.7327 212.459C76.5898 195.944 102.2 185.969 130.197 185.995L175.852 186.038C210.981 186.071 242.905 172.936 267.142 151.474C267.142 151.772 267.186 152.046 267.186 152.333C267.176 163.001 265.56 173.275 262.744 183.051C237.696 199.143 207.896 208.597 175.831 208.566L130.176 208.524C107.53 208.502 86.8797 216.775 70.9047 230.3ZM46.333 191.867C43.4776 184.387 41.4237 176.532 40.2364 168.39C65.8979 151.066 96.8837 140.9 130.24 140.932L175.894 140.975C208.538 141.005 237.219 124.005 253.383 98.501C257.656 106.25 260.901 114.603 263.248 123.316C242.305 147.89 210.958 163.536 175.873 163.503L130.218 163.46C98.5779 163.427 69.5193 174.091 46.333 191.867ZM238.601 77.8409C228.012 101.708 203.957 118.472 175.915 118.446L130.261 118.403C97.2266 118.372 66.2216 127.088 39.4357 142.286C40.325 132.356 42.5629 122.829 45.8823 113.813C71.6581 102.311 100.209 95.8467 130.282 95.8749L175.936 95.9177C197.456 95.9379 215.438 81.1374 220.261 61.3303C226.967 66.1687 233.111 71.6959 238.601 77.8409ZM153.162 39.5871C169.402 39.6023 184.823 43.0162 198.804 49.0677L198.803 50.862C198.791 63.2903 188.54 73.4045 175.957 73.3927L130.303 73.3499C106.753 73.3278 84.0901 77.01 62.7084 83.5894C83.5989 56.8465 116.303 39.5526 153.162 39.5871ZM152.951 264.861C129.045 264.839 106.882 257.539 88.548 245.124C100.105 236.336 114.487 231.034 130.155 231.049L175.81 231.092C200.808 231.115 224.609 226.055 246.318 217.033C225.638 245.969 191.559 264.897 152.951 264.861Z" fill="#ffffff" fill-rule="nonzero" opacity="1" stroke="none"/>
</g>
</svg>
