<?xml version="1.0" encoding="UTF-8" standalone="no"?>
<!DOCTYPE svg PUBLIC "-//W3C//DTD SVG 1.1//EN" "http://www.w3.org/Graphics/SVG/1.1/DTD/svg11.dtd">
<!-- Created with Vectornator (http://vectornator.io/) -->
<svg height="100%" stroke-miterlimit="10" style="fill-rule:nonzero;clip-rule:evenodd;stroke-linecap:round;stroke-linejoin:round;" version="1.1" viewBox="0 0 1356.11 309.465" width="100%" xml:space="preserve" xmlns="http://www.w3.org/2000/svg" xmlns:vectornator="http://vectornator.io" xmlns:xlink="http://www.w3.org/1999/xlink">
<defs/>
<g id="Main" vectornator:layerName="Main">
<g fill="#3395ff" opacity="1" stroke="none">
<path d="M348.722 174.137C345.906 174.137 343.154 174.051 340.466 173.881C337.778 173.71 335.133 173.454 332.53 173.113C329.928 172.771 327.432 172.387 325.042 171.961C322.653 171.534 320.349 171.022 318.13 170.425L318.13 150.713C321.032 150.969 324.168 151.182 327.538 151.353C330.909 151.523 334.322 151.651 337.778 151.737C341.234 151.822 344.456 151.865 347.442 151.865C350.258 151.865 352.605 151.651 354.482 151.225C356.36 150.798 357.768 150.115 358.706 149.177C359.645 148.238 360.114 146.958 360.114 145.337L360.114 143.801C360.114 141.923 359.453 140.515 358.13 139.577C356.808 138.638 355.25 138.169 353.458 138.169L346.674 138.169C336.776 138.169 329.266 135.993 324.146 131.641C319.026 127.289 316.466 119.993 316.466 109.753L316.466 105.529C316.466 96.142 319.282 89.1233 324.914 84.4727C330.546 79.822 338.653 77.4967 349.234 77.4967C353.245 77.4967 357.021 77.6887 360.562 78.0727C364.104 78.4567 367.432 78.926 370.546 79.4807C373.661 80.0353 376.456 80.6113 378.93 81.2087L378.93 100.921C375.005 100.579 370.589 100.302 365.682 100.089C360.776 99.8753 356.317 99.7687 352.306 99.7687C349.917 99.7687 347.784 99.9393 345.906 100.281C344.029 100.622 342.578 101.305 341.554 102.329C340.53 103.353 340.018 104.846 340.018 106.809L340.018 108.089C340.018 110.222 340.701 111.843 342.066 112.953C343.432 114.062 345.522 114.617 348.338 114.617L356.786 114.617C362.76 114.617 367.73 115.747 371.698 118.009C375.666 120.27 378.653 123.342 380.658 127.225C382.664 131.107 383.666 135.523 383.666 140.473L383.666 144.697C383.666 152.803 382.258 158.99 379.442 163.257C376.626 167.523 372.616 170.403 367.41 171.897C362.205 173.39 355.976 174.137 348.722 174.137Z"/>
<path d="M395.314 173.369L395.314 78.2647L420.146 78.2647L420.146 173.369L395.314 173.369Z"/>
<path d="M458.93 173.369C453.213 173.369 448.52 172.515 444.85 170.809C441.181 169.102 438.493 166.414 436.786 162.745C435.08 159.075 434.226 154.382 434.226 148.665L434.226 78.2647L459.058 78.2647L459.058 144.441C459.058 145.891 459.293 147.129 459.762 148.153C460.232 149.177 460.978 149.923 462.002 150.393C463.026 150.862 464.264 151.097 465.714 151.097L493.362 151.097L493.362 173.369L458.93 173.369Z"/>
<path d="M521.522 173.369L493.362 78.2647L519.09 78.2647L537.138 146.361L555.186 78.2647L580.658 78.2647L552.498 173.369L521.522 173.369Z"/>
<path d="M610.226 174.137C608.178 174.137 605.725 173.923 602.866 173.497C600.008 173.07 597.234 172.131 594.546 170.681C591.858 169.23 589.618 166.99 587.826 163.961C586.034 160.931 585.138 156.771 585.138 151.481L585.138 101.817C585.138 97.2087 585.864 93.3687 587.314 90.2967C588.765 87.2247 590.642 84.814 592.946 83.0647C595.25 81.3153 597.81 80.078 600.626 79.3527C603.442 78.6273 606.173 78.2647 608.818 78.2647C615.986 78.2647 622.152 78.3713 627.314 78.5847C632.477 78.798 636.957 79.0327 640.754 79.2887C644.552 79.5447 647.901 79.8433 650.802 80.1847L650.802 101.177L616.498 101.177C614.365 101.177 612.744 101.646 611.634 102.585C610.525 103.523 609.97 104.931 609.97 106.809L609.97 114.745L644.402 116.025L644.402 135.737L609.97 137.017L609.97 144.185C609.97 145.721 610.205 146.979 610.674 147.961C611.144 148.942 611.805 149.667 612.658 150.137C613.512 150.606 614.45 150.841 615.474 150.841L650.802 150.841L650.802 171.833C647.133 172.345 642.952 172.771 638.258 173.113C633.565 173.454 628.786 173.71 623.922 173.881C619.058 174.051 614.493 174.137 610.226 174.137Z"/>
<path d="M662.45 173.369L662.45 78.2647L703.026 78.2647C707.208 78.2647 711.048 78.7767 714.546 79.8007C718.045 80.8247 721.074 82.5527 723.634 84.9847C726.194 87.4167 728.178 90.6807 729.586 94.7767C730.994 98.8727 731.698 104.035 731.698 110.265C731.698 114.19 731.357 117.603 730.674 120.505C729.992 123.406 729.074 125.859 727.922 127.865C726.77 129.87 725.405 131.555 723.826 132.921C722.248 134.286 720.562 135.481 718.77 136.505L735.282 173.369L710.066 173.369L696.754 140.601C695.986 140.601 695.197 140.601 694.386 140.601C693.576 140.601 692.786 140.601 692.018 140.601C691.25 140.601 690.461 140.601 689.65 140.601C688.84 140.601 688.05 140.601 687.282 140.601L687.282 173.369L662.45 173.369ZM687.282 120.889L698.546 120.889C699.912 120.889 701.106 120.697 702.13 120.313C703.154 119.929 704.029 119.31 704.754 118.457C705.48 117.603 706.013 116.515 706.354 115.193C706.696 113.87 706.866 112.27 706.866 110.393C706.866 108.515 706.696 106.937 706.354 105.657C706.013 104.377 705.48 103.374 704.754 102.649C704.029 101.923 703.154 101.39 702.13 101.049C701.106 100.707 699.912 100.537 698.546 100.537L687.282 100.537L687.282 120.889Z"/>
<path d="M806.194 174.137C803.378 174.137 800.626 174.051 797.938 173.881C795.25 173.71 792.605 173.454 790.002 173.113C787.4 172.771 784.904 172.387 782.514 171.961C780.125 171.534 777.821 171.022 775.602 170.425L775.602 150.713C778.504 150.969 781.64 151.182 785.01 151.353C788.381 151.523 791.794 151.651 795.25 151.737C798.706 151.822 801.928 151.865 804.914 151.865C807.73 151.865 810.077 151.651 811.954 151.225C813.832 150.798 815.24 150.115 816.178 149.177C817.117 148.238 817.586 146.958 817.586 145.337L817.586 143.801C817.586 141.923 816.925 140.515 815.602 139.577C814.28 138.638 812.722 138.169 810.93 138.169L804.146 138.169C794.248 138.169 786.738 135.993 781.618 131.641C776.498 127.289 773.938 119.993 773.938 109.753L773.938 105.529C773.938 96.142 776.754 89.1233 782.386 84.4727C788.018 79.822 796.125 77.4967 806.706 77.4967C810.717 77.4967 814.493 77.6887 818.034 78.0727C821.576 78.4567 824.904 78.926 828.018 79.4807C831.133 80.0353 833.928 80.6113 836.402 81.2087L836.402 100.921C832.477 100.579 828.061 100.302 823.154 100.089C818.248 99.8753 813.789 99.7687 809.778 99.7687C807.389 99.7687 805.256 99.9393 803.378 100.281C801.501 100.622 800.05 101.305 799.026 102.329C798.002 103.353 797.49 104.846 797.49 106.809L797.49 108.089C797.49 110.222 798.173 111.843 799.538 112.953C800.904 114.062 802.994 114.617 805.81 114.617L814.258 114.617C820.232 114.617 825.202 115.747 829.17 118.009C833.138 120.27 836.125 123.342 838.13 127.225C840.136 131.107 841.138 135.523 841.138 140.473L841.138 144.697C841.138 152.803 839.73 158.99 836.914 163.257C834.098 167.523 830.088 170.403 824.882 171.897C819.677 173.39 813.448 174.137 806.194 174.137Z"/>
<path d="M890.034 174.009C884.829 174.009 879.901 173.582 875.25 172.729C870.6 171.875 866.482 170.297 862.898 167.993C859.314 165.689 856.52 162.446 854.514 158.265C852.509 154.083 851.506 148.665 851.506 142.009L851.506 78.2647L876.338 78.2647L876.338 141.881C876.338 144.099 876.872 145.934 877.938 147.385C879.005 148.835 880.562 149.923 882.61 150.649C884.658 151.374 887.133 151.737 890.034 151.737C892.936 151.737 895.41 151.374 897.458 150.649C899.506 149.923 901.064 148.835 902.13 147.385C903.197 145.934 903.73 144.099 903.73 141.881L903.73 78.2647L928.562 78.2647L928.562 142.009C928.562 148.665 927.56 154.083 925.554 158.265C923.549 162.446 920.754 165.689 917.17 167.993C913.586 170.297 909.49 171.875 904.882 172.729C900.274 173.582 895.325 174.009 890.034 174.009Z"/>
<path d="M941.362 173.369L941.362 78.2647L981.938 78.2647C986.12 78.2647 989.96 78.7767 993.458 79.8007C996.957 80.8247 999.986 82.5527 1002.55 84.9847C1005.11 87.4167 1007.09 90.6807 1008.5 94.7767C1009.91 98.8727 1010.61 104.035 1010.61 110.265C1010.61 114.19 1010.27 117.603 1009.59 120.505C1008.9 123.406 1007.99 125.859 1006.83 127.865C1005.68 129.87 1004.32 131.555 1002.74 132.921C1001.16 134.286 999.474 135.481 997.682 136.505L1014.19 173.369L988.978 173.369L975.666 140.601C974.898 140.601 974.109 140.601 973.298 140.601C972.488 140.601 971.698 140.601 970.93 140.601C970.162 140.601 969.373 140.601 968.562 140.601C967.752 140.601 966.962 140.601 966.194 140.601L966.194 173.369L941.362 173.369ZM966.194 120.889L977.458 120.889C978.824 120.889 980.018 120.697 981.042 120.313C982.066 119.929 982.941 119.31 983.666 118.457C984.392 117.603 984.925 116.515 985.266 115.193C985.608 113.87 985.778 112.27 985.778 110.393C985.778 108.515 985.608 106.937 985.266 105.657C984.925 104.377 984.392 103.374 983.666 102.649C982.941 101.923 982.066 101.39 981.042 101.049C980.018 100.707 978.824 100.537 977.458 100.537L966.194 100.537L966.194 120.889Z"/>
<path d="M1023.28 173.369L1023.28 101.817C1023.28 97.2087 1024.01 93.3687 1025.46 90.2967C1026.91 87.2247 1028.79 84.814 1031.09 83.0647C1033.39 81.3153 1035.95 80.078 1038.77 79.3527C1041.59 78.6273 1044.32 78.2647 1046.96 78.2647C1049.61 78.2647 1053.28 78.286 1057.97 78.3287C1062.66 78.3713 1067.76 78.542 1073.27 78.8407C1078.77 79.1393 1084 79.63 1088.95 80.3127L1088.95 101.177L1054.13 101.177C1052 101.177 1050.46 101.753 1049.52 102.905C1048.58 104.057 1048.11 105.273 1048.11 106.553L1048.11 117.305L1082.55 118.585L1082.55 138.297L1048.11 139.577L1048.11 173.369L1023.28 173.369Z"/>
<path d="M1122.99 174.137C1120.95 174.137 1118.49 173.923 1115.63 173.497C1112.78 173.07 1110 172.131 1107.31 170.681C1104.63 169.23 1102.39 166.99 1100.59 163.961C1098.8 160.931 1097.91 156.771 1097.91 151.481L1097.91 101.817C1097.91 97.2087 1098.63 93.3687 1100.08 90.2967C1101.53 87.2247 1103.41 84.814 1105.71 83.0647C1108.02 81.3153 1110.58 80.078 1113.39 79.3527C1116.21 78.6273 1118.94 78.2647 1121.59 78.2647C1128.75 78.2647 1134.92 78.3713 1140.08 78.5847C1145.24 78.798 1149.72 79.0327 1153.52 79.2887C1157.32 79.5447 1160.67 79.8433 1163.57 80.1847L1163.57 101.177L1129.27 101.177C1127.13 101.177 1125.51 101.646 1124.4 102.585C1123.29 103.523 1122.74 104.931 1122.74 106.809L1122.74 114.745L1157.17 116.025L1157.17 135.737L1122.74 137.017L1122.74 144.185C1122.74 145.721 1122.97 146.979 1123.44 147.961C1123.91 148.942 1124.57 149.667 1125.43 150.137C1126.28 150.606 1127.22 150.841 1128.24 150.841L1163.57 150.841L1163.57 171.833C1159.9 172.345 1155.72 172.771 1151.03 173.113C1146.33 173.454 1141.55 173.71 1136.69 173.881C1131.83 174.051 1127.26 174.137 1122.99 174.137Z"/>
<path d="M1175.22 173.369L1175.22 78.2647L1215.79 78.2647C1219.98 78.2647 1223.82 78.7767 1227.31 79.8007C1230.81 80.8247 1233.84 82.5527 1236.4 84.9847C1238.96 87.4167 1240.95 90.6807 1242.35 94.7767C1243.76 98.8727 1244.47 104.035 1244.47 110.265C1244.47 114.19 1244.12 117.603 1243.44 120.505C1242.76 123.406 1241.84 125.859 1240.69 127.865C1239.54 129.87 1238.17 131.555 1236.59 132.921C1235.02 134.286 1233.33 135.481 1231.54 136.505L1248.05 173.369L1222.83 173.369L1209.52 140.601C1208.75 140.601 1207.96 140.601 1207.15 140.601C1206.34 140.601 1205.55 140.601 1204.79 140.601C1204.02 140.601 1203.23 140.601 1202.42 140.601C1201.61 140.601 1200.82 140.601 1200.05 140.601L1200.05 173.369L1175.22 173.369ZM1200.05 120.889L1211.31 120.889C1212.68 120.889 1213.87 120.697 1214.9 120.313C1215.92 119.929 1216.8 119.31 1217.52 118.457C1218.25 117.603 1218.78 116.515 1219.12 115.193C1219.46 113.87 1219.63 112.27 1219.63 110.393C1219.63 108.515 1219.46 106.937 1219.12 105.657C1218.78 104.377 1218.25 103.374 1217.52 102.649C1216.8 101.923 1215.92 101.39 1214.9 101.049C1213.87 100.707 1212.68 100.537 1211.31 100.537L1200.05 100.537L1200.05 120.889Z"/>
<path d="M1286.96 174.137C1284.15 174.137 1281.39 174.051 1278.71 173.881C1276.02 173.71 1273.37 173.454 1270.77 173.113C1268.17 172.771 1265.67 172.387 1263.28 171.961C1260.89 171.534 1258.59 171.022 1256.37 170.425L1256.37 150.713C1259.27 150.969 1262.41 151.182 1265.78 151.353C1269.15 151.523 1272.56 151.651 1276.02 151.737C1279.47 151.822 1282.7 151.865 1285.68 151.865C1288.5 151.865 1290.84 151.651 1292.72 151.225C1294.6 150.798 1296.01 150.115 1296.95 149.177C1297.88 148.238 1298.35 146.958 1298.35 145.337L1298.35 143.801C1298.35 141.923 1297.69 140.515 1296.37 139.577C1295.05 138.638 1293.49 138.169 1291.7 138.169L1284.91 138.169C1275.02 138.169 1267.51 135.993 1262.39 131.641C1257.27 127.289 1254.71 119.993 1254.71 109.753L1254.71 105.529C1254.71 96.142 1257.52 89.1233 1263.15 84.4727C1268.79 79.822 1276.89 77.4967 1287.47 77.4967C1291.48 77.4967 1295.26 77.6887 1298.8 78.0727C1302.34 78.4567 1305.67 78.926 1308.79 79.4807C1311.9 80.0353 1314.7 80.6113 1317.17 81.2087L1317.17 100.921C1313.24 100.579 1308.83 100.302 1303.92 100.089C1299.02 99.8753 1294.56 99.7687 1290.55 99.7687C1288.16 99.7687 1286.02 99.9393 1284.15 100.281C1282.27 100.622 1280.82 101.305 1279.79 102.329C1278.77 103.353 1278.26 104.846 1278.26 106.809L1278.26 108.089C1278.26 110.222 1278.94 111.843 1280.31 112.953C1281.67 114.062 1283.76 114.617 1286.58 114.617L1295.03 114.617C1301 114.617 1305.97 115.747 1309.94 118.009C1313.91 120.27 1316.89 123.342 1318.9 127.225C1320.9 131.107 1321.91 135.523 1321.91 140.473L1321.91 144.697C1321.91 152.803 1320.5 158.99 1317.68 163.257C1314.87 167.523 1310.86 170.403 1305.65 171.897C1300.44 173.39 1294.22 174.137 1286.96 174.137Z"/>
</g>
<g fill="#3395ff" opacity="1" stroke="none">
<path d="M316.858 246.125L316.858 203.525L327.358 203.525C331.478 203.525 334.988 204.175 337.888 205.475C340.788 206.775 343.138 208.485 344.938 210.605C346.738 212.725 348.058 215.045 348.898 217.565C349.738 220.085 350.158 222.585 350.158 225.065C350.158 228.305 349.598 231.215 348.478 233.795C347.358 236.375 345.828 238.585 343.888 240.425C341.948 242.265 339.738 243.675 337.258 244.655C334.778 245.635 332.158 246.125 329.398 246.125L316.858 246.125ZM319.798 243.305L328.618 243.305C331.178 243.305 333.578 242.885 335.818 242.045C338.058 241.205 340.028 239.985 341.728 238.385C343.428 236.785 344.758 234.855 345.718 232.595C346.678 230.335 347.158 227.765 347.158 224.885C347.158 222.445 346.748 220.115 345.928 217.895C345.108 215.675 343.878 213.705 342.238 211.985C340.598 210.265 338.578 208.905 336.178 207.905C333.778 206.905 330.978 206.405 327.778 206.405L319.798 206.405L319.798 243.305Z"/>
<path d="M359.578 222.665L362.398 222.665L362.398 246.125L359.578 246.125L359.578 222.665ZM358.978 214.025C358.978 213.465 359.198 212.995 359.638 212.615C360.078 212.235 360.558 212.045 361.078 212.045C361.638 212.045 362.118 212.235 362.518 212.615C362.918 212.995 363.118 213.465 363.118 214.025C363.118 214.625 362.918 215.115 362.518 215.495C362.118 215.875 361.638 216.065 361.078 216.065C360.558 216.065 360.078 215.865 359.638 215.465C359.198 215.065 358.978 214.585 358.978 214.025Z"/>
<path d="M383.518 257.585C382.198 257.585 380.938 257.435 379.738 257.135C378.538 256.835 377.358 256.325 376.198 255.605C375.038 254.885 373.838 253.945 372.598 252.785L374.278 250.865C375.998 252.505 377.598 253.615 379.078 254.195C380.558 254.775 381.998 255.065 383.398 255.065C385.838 255.065 387.778 254.675 389.218 253.895C390.658 253.115 391.698 252.075 392.338 250.775C392.978 249.475 393.318 248.025 393.358 246.425L393.418 238.805L394.078 239.525C393.278 241.605 391.848 243.305 389.788 244.625C387.728 245.945 385.398 246.605 382.798 246.605C380.598 246.605 378.588 246.055 376.768 244.955C374.948 243.855 373.498 242.375 372.418 240.515C371.338 238.655 370.798 236.585 370.798 234.305C370.798 231.865 371.358 229.725 372.478 227.885C373.598 226.045 375.118 224.595 377.038 223.535C378.958 222.475 381.078 221.945 383.398 221.945C385.558 221.945 387.608 222.505 389.548 223.625C391.488 224.745 392.898 226.225 393.778 228.065L393.418 229.385L393.718 222.665L396.238 222.665L396.238 246.485C396.238 248.405 395.808 250.215 394.948 251.915C394.088 253.615 392.728 254.985 390.868 256.025C389.008 257.065 386.558 257.585 383.518 257.585ZM373.618 234.245C373.618 236.085 374.058 237.755 374.938 239.255C375.818 240.755 377.008 241.955 378.508 242.855C380.008 243.755 381.678 244.205 383.518 244.205C385.278 244.205 386.878 243.815 388.318 243.035C389.758 242.255 390.938 241.205 391.858 239.885C392.778 238.565 393.298 237.145 393.418 235.625L393.418 232.145C393.098 230.625 392.468 229.285 391.528 228.125C390.588 226.965 389.428 226.045 388.048 225.365C386.668 224.685 385.158 224.345 383.518 224.345C381.678 224.345 380.008 224.765 378.508 225.605C377.008 226.445 375.818 227.605 374.938 229.085C374.058 230.565 373.618 232.285 373.618 234.245Z"/>
<path d="M406.918 222.665L409.738 222.665L409.738 246.125L406.918 246.125L406.918 222.665ZM406.318 214.025C406.318 213.465 406.538 212.995 406.978 212.615C407.418 212.235 407.898 212.045 408.418 212.045C408.978 212.045 409.458 212.235 409.858 212.615C410.258 212.995 410.458 213.465 410.458 214.025C410.458 214.625 410.258 215.115 409.858 215.495C409.458 215.875 408.978 216.065 408.418 216.065C407.898 216.065 407.418 215.865 406.978 215.465C406.538 215.065 406.318 214.585 406.318 214.025Z"/>
<path d="M422.758 212.345L425.638 212.345L425.638 222.965L432.898 222.965L432.898 225.245L425.638 225.245L425.638 246.125L422.758 246.125L422.758 225.245L417.778 225.245L417.778 222.965L422.758 222.965L422.758 212.345Z"/>
<path d="M449.638 246.605C447.398 246.605 445.368 246.095 443.548 245.075C441.728 244.055 440.288 242.625 439.228 240.785C438.168 238.945 437.638 236.805 437.638 234.365C437.638 231.765 438.198 229.535 439.318 227.675C440.438 225.815 441.958 224.395 443.878 223.415C445.798 222.435 447.978 221.945 450.418 221.945C452.498 221.945 454.468 222.565 456.328 223.805C458.188 225.045 459.518 226.605 460.318 228.485L459.898 229.325L460.258 222.665L462.778 222.665L462.778 246.125L459.958 246.125L459.958 238.865L460.558 239.945C460.278 240.745 459.798 241.535 459.118 242.315C458.438 243.095 457.608 243.815 456.628 244.475C455.648 245.135 454.568 245.655 453.388 246.035C452.208 246.415 450.958 246.605 449.638 246.605ZM450.238 244.205C451.998 244.205 453.588 243.835 455.008 243.095C456.428 242.355 457.578 241.325 458.458 240.005C459.338 238.685 459.838 237.165 459.958 235.445L459.958 232.085C459.638 230.605 459.008 229.285 458.068 228.125C457.128 226.965 455.978 226.045 454.618 225.365C453.258 224.685 451.778 224.345 450.178 224.345C448.418 224.345 446.798 224.755 445.318 225.575C443.838 226.395 442.658 227.545 441.778 229.025C440.898 230.505 440.458 232.245 440.458 234.245C440.458 236.085 440.898 237.755 441.778 239.255C442.658 240.755 443.848 241.955 445.348 242.855C446.848 243.755 448.478 244.205 450.238 244.205Z"/>
<path d="M473.458 200.525L476.278 200.525L476.278 246.125L473.458 246.125L473.458 200.525Z"/>
<path d="M506.818 203.525L509.758 203.525L509.758 243.305L533.098 243.305L533.098 246.125L506.818 246.125L506.818 203.525Z"/>
<path d="M541.558 222.665L544.378 222.665L544.378 246.125L541.558 246.125L541.558 222.665ZM540.958 214.025C540.958 213.465 541.178 212.995 541.618 212.615C542.058 212.235 542.538 212.045 543.058 212.045C543.618 212.045 544.098 212.235 544.498 212.615C544.898 212.995 545.098 213.465 545.098 214.025C545.098 214.625 544.898 215.115 544.498 215.495C544.098 215.875 543.618 216.065 543.058 216.065C542.538 216.065 542.058 215.865 541.618 215.465C541.178 215.065 540.958 214.585 540.958 214.025Z"/>
<path d="M557.398 212.345L560.278 212.345L560.278 222.965L567.538 222.965L567.538 225.245L560.278 225.245L560.278 246.125L557.398 246.125L557.398 225.245L552.418 225.245L552.418 222.965L557.398 222.965L557.398 212.345Z"/>
<path d="M584.758 246.605C582.318 246.605 580.158 246.065 578.278 244.985C576.398 243.905 574.928 242.435 573.868 240.575C572.808 238.715 572.278 236.625 572.278 234.305C572.278 232.025 572.838 229.945 573.958 228.065C575.078 226.185 576.588 224.685 578.488 223.565C580.388 222.445 582.498 221.885 584.818 221.885C587.618 221.885 589.968 222.705 591.868 224.345C593.768 225.985 595.138 228.125 595.978 230.765L575.458 238.685L574.618 236.645L593.398 229.325L592.798 230.165C592.118 228.565 591.088 227.185 589.708 226.025C588.328 224.865 586.638 224.285 584.638 224.285C582.838 224.285 581.218 224.725 579.778 225.605C578.338 226.485 577.188 227.665 576.328 229.145C575.468 230.625 575.038 232.305 575.038 234.185C575.038 235.945 575.448 237.585 576.268 239.105C577.088 240.625 578.238 241.845 579.718 242.765C581.198 243.685 582.898 244.145 584.818 244.145C586.098 244.145 587.328 243.905 588.508 243.425C589.688 242.945 590.738 242.325 591.658 241.565L593.098 243.605C591.978 244.485 590.688 245.205 589.228 245.765C587.768 246.325 586.278 246.605 584.758 246.605Z"/>
<path d="M606.238 222.665L606.538 229.865L606.178 228.965C606.698 227.525 607.518 226.285 608.638 225.245C609.758 224.205 611.008 223.405 612.388 222.845C613.768 222.285 615.098 222.005 616.378 222.005L616.258 224.765C614.458 224.765 612.828 225.165 611.368 225.965C609.908 226.765 608.748 227.835 607.888 229.175C607.028 230.515 606.598 232.025 606.598 233.705L606.598 246.125L603.778 246.125L603.778 222.665L606.238 222.665Z"/>
<path d="M633.718 246.605C631.478 246.605 629.448 246.095 627.628 245.075C625.808 244.055 624.368 242.625 623.308 240.785C622.248 238.945 621.718 236.805 621.718 234.365C621.718 231.765 622.278 229.535 623.398 227.675C624.518 225.815 626.038 224.395 627.958 223.415C629.878 222.435 632.058 221.945 634.498 221.945C636.578 221.945 638.548 222.565 640.408 223.805C642.268 225.045 643.598 226.605 644.398 228.485L643.978 229.325L644.338 222.665L646.858 222.665L646.858 246.125L644.038 246.125L644.038 238.865L644.638 239.945C644.358 240.745 643.878 241.535 643.198 242.315C642.518 243.095 641.688 243.815 640.708 244.475C639.728 245.135 638.648 245.655 637.468 246.035C636.288 246.415 635.038 246.605 633.718 246.605ZM634.318 244.205C636.078 244.205 637.668 243.835 639.088 243.095C640.508 242.355 641.658 241.325 642.538 240.005C643.418 238.685 643.918 237.165 644.038 235.445L644.038 232.085C643.718 230.605 643.088 229.285 642.148 228.125C641.208 226.965 640.058 226.045 638.698 225.365C637.338 224.685 635.858 224.345 634.258 224.345C632.498 224.345 630.878 224.755 629.398 225.575C627.918 226.395 626.738 227.545 625.858 229.025C624.978 230.505 624.538 232.245 624.538 234.245C624.538 236.085 624.978 237.755 625.858 239.255C626.738 240.755 627.928 241.955 629.428 242.855C630.928 243.755 632.558 244.205 634.318 244.205Z"/>
<path d="M675.658 243.845C674.578 244.725 673.358 245.405 671.998 245.885C670.638 246.365 669.218 246.605 667.738 246.605C665.338 246.605 663.198 246.075 661.318 245.015C659.438 243.955 657.958 242.505 656.878 240.665C655.798 238.825 655.258 236.725 655.258 234.365C655.258 232.005 655.818 229.905 656.938 228.065C658.058 226.225 659.548 224.775 661.408 223.715C663.268 222.655 665.298 222.125 667.498 222.125C669.138 222.125 670.658 222.365 672.058 222.845C673.458 223.325 674.678 224.005 675.718 224.885L674.218 226.805C673.378 226.125 672.398 225.565 671.278 225.125C670.158 224.685 668.958 224.465 667.678 224.465C665.918 224.465 664.308 224.905 662.848 225.785C661.388 226.665 660.228 227.855 659.368 229.355C658.508 230.855 658.078 232.525 658.078 234.365C658.078 236.165 658.508 237.815 659.368 239.315C660.228 240.815 661.408 242.005 662.908 242.885C664.408 243.765 666.078 244.205 667.918 244.205C669.118 244.205 670.238 244.015 671.278 243.635C672.318 243.255 673.258 242.745 674.098 242.105L675.658 243.845Z"/>
<path d="M685.678 257.405L700.978 222.665L703.738 222.665L688.618 257.405L685.678 257.405ZM690.958 246.365L679.858 222.665L683.038 222.665L693.178 244.865L690.958 246.365Z"/>
<path d="M730.618 203.525L754.498 203.525L754.498 206.345L733.558 206.345L733.558 223.925L752.098 223.925L752.098 226.685L733.558 226.685L733.558 246.125L730.618 246.125L730.618 203.525Z"/>
<path d="M757.498 234.245C757.498 231.965 758.048 229.885 759.148 228.005C760.248 226.125 761.748 224.635 763.648 223.535C765.548 222.435 767.678 221.885 770.038 221.885C772.438 221.885 774.578 222.435 776.458 223.535C778.338 224.635 779.818 226.125 780.898 228.005C781.978 229.885 782.518 231.965 782.518 234.245C782.518 236.525 781.978 238.605 780.898 240.485C779.818 242.365 778.328 243.855 776.428 244.955C774.528 246.055 772.398 246.605 770.038 246.605C767.638 246.605 765.498 246.075 763.618 245.015C761.738 243.955 760.248 242.495 759.148 240.635C758.048 238.775 757.498 236.645 757.498 234.245ZM760.318 234.305C760.318 236.145 760.748 237.815 761.608 239.315C762.468 240.815 763.628 242.005 765.088 242.885C766.548 243.765 768.178 244.205 769.978 244.205C771.778 244.205 773.408 243.765 774.868 242.885C776.328 242.005 777.488 240.815 778.348 239.315C779.208 237.815 779.638 236.145 779.638 234.305C779.638 232.465 779.208 230.795 778.348 229.295C777.488 227.795 776.328 226.595 774.868 225.695C773.408 224.795 771.778 224.345 769.978 224.345C768.138 224.345 766.488 224.815 765.028 225.755C763.568 226.695 762.418 227.925 761.578 229.445C760.738 230.965 760.318 232.585 760.318 234.305Z"/>
<path d="M793.378 222.665L793.678 229.865L793.318 228.965C793.838 227.525 794.658 226.285 795.778 225.245C796.898 224.205 798.148 223.405 799.528 222.845C800.908 222.285 802.238 222.005 803.518 222.005L803.398 224.765C801.598 224.765 799.968 225.165 798.508 225.965C797.048 226.765 795.888 227.835 795.028 229.175C794.168 230.515 793.738 232.025 793.738 233.705L793.738 246.125L790.918 246.125L790.918 222.665L793.378 222.665Z"/>
<path d="M828.598 224.885C828.598 221.885 829.158 219.075 830.278 216.455C831.398 213.835 832.958 211.515 834.958 209.495C836.958 207.475 839.268 205.895 841.888 204.755C844.508 203.615 847.318 203.045 850.318 203.045C853.318 203.045 856.138 203.615 858.778 204.755C861.418 205.895 863.738 207.475 865.738 209.495C867.738 211.515 869.308 213.835 870.448 216.455C871.588 219.075 872.158 221.885 872.158 224.885C872.158 227.885 871.588 230.695 870.448 233.315C869.308 235.935 867.738 238.245 865.738 240.245C863.738 242.245 861.418 243.805 858.778 244.925C856.138 246.045 853.318 246.605 850.318 246.605C847.318 246.605 844.508 246.065 841.888 244.985C839.268 243.905 836.958 242.385 834.958 240.425C832.958 238.465 831.398 236.165 830.278 233.525C829.158 230.885 828.598 228.005 828.598 224.885ZM831.598 224.945C831.598 227.545 832.078 229.985 833.038 232.265C833.998 234.545 835.338 236.545 837.058 238.265C838.778 239.985 840.768 241.335 843.028 242.315C845.288 243.295 847.698 243.785 850.258 243.785C852.898 243.785 855.358 243.295 857.638 242.315C859.918 241.335 861.918 239.985 863.638 238.265C865.358 236.545 866.708 234.545 867.688 232.265C868.668 229.985 869.158 227.525 869.158 224.885C869.158 222.285 868.668 219.835 867.688 217.535C866.708 215.235 865.358 213.215 863.638 211.475C861.918 209.735 859.918 208.365 857.638 207.365C855.358 206.365 852.918 205.865 850.318 205.865C847.678 205.865 845.218 206.375 842.938 207.395C840.658 208.415 838.668 209.805 836.968 211.565C835.268 213.325 833.948 215.355 833.008 217.655C832.068 219.955 831.598 222.385 831.598 224.945Z"/>
<path d="M881.578 200.525L884.398 200.525L884.398 246.125L881.578 246.125L881.578 200.525Z"/>
<path d="M904.678 246.605C902.478 246.605 900.478 246.075 898.678 245.015C896.878 243.955 895.448 242.485 894.388 240.605C893.328 238.725 892.798 236.605 892.798 234.245C892.798 231.725 893.338 229.545 894.418 227.705C895.498 225.865 896.968 224.445 898.828 223.445C900.688 222.445 902.738 221.945 904.978 221.945C907.218 221.945 909.348 222.525 911.368 223.685C913.388 224.845 914.858 226.365 915.778 228.245L915.298 229.565L915.298 200.525L918.118 200.525L918.118 246.125L915.238 246.125L915.238 238.925L915.838 240.245C914.838 242.125 913.338 243.655 911.338 244.835C909.338 246.015 907.118 246.605 904.678 246.605ZM905.398 244.145C907.198 244.145 908.818 243.755 910.258 242.975C911.698 242.195 912.858 241.135 913.738 239.795C914.618 238.455 915.118 236.945 915.238 235.265L915.238 232.265C914.958 230.745 914.338 229.385 913.378 228.185C912.418 226.985 911.258 226.035 909.898 225.335C908.538 224.635 907.038 224.285 905.398 224.285C903.598 224.285 901.958 224.705 900.478 225.545C898.998 226.385 897.818 227.545 896.938 229.025C896.058 230.505 895.618 232.225 895.618 234.185C895.618 236.025 896.058 237.695 896.938 239.195C897.818 240.695 899.008 241.895 900.508 242.795C902.008 243.695 903.638 244.145 905.398 244.145Z"/>
<path d="M938.998 246.605C936.558 246.605 934.398 246.065 932.518 244.985C930.638 243.905 929.168 242.435 928.108 240.575C927.048 238.715 926.518 236.625 926.518 234.305C926.518 232.025 927.078 229.945 928.198 228.065C929.318 226.185 930.828 224.685 932.728 223.565C934.628 222.445 936.738 221.885 939.058 221.885C941.858 221.885 944.208 222.705 946.108 224.345C948.008 225.985 949.378 228.125 950.218 230.765L929.698 238.685L928.858 236.645L947.638 229.325L947.038 230.165C946.358 228.565 945.328 227.185 943.948 226.025C942.568 224.865 940.878 224.285 938.878 224.285C937.078 224.285 935.458 224.725 934.018 225.605C932.578 226.485 931.428 227.665 930.568 229.145C929.708 230.625 929.278 232.305 929.278 234.185C929.278 235.945 929.688 237.585 930.508 239.105C931.328 240.625 932.478 241.845 933.958 242.765C935.438 243.685 937.138 244.145 939.058 244.145C940.338 244.145 941.568 243.905 942.748 243.425C943.928 242.945 944.978 242.325 945.898 241.565L947.338 243.605C946.218 244.485 944.928 245.205 943.468 245.765C942.008 246.325 940.518 246.605 938.998 246.605Z"/>
<path d="M960.478 222.665L960.778 229.865L960.418 228.965C960.938 227.525 961.758 226.285 962.878 225.245C963.998 224.205 965.248 223.405 966.628 222.845C968.008 222.285 969.338 222.005 970.618 222.005L970.498 224.765C968.698 224.765 967.068 225.165 965.608 225.965C964.148 226.765 962.988 227.835 962.128 229.175C961.268 230.515 960.838 232.025 960.838 233.705L960.838 246.125L958.018 246.125L958.018 222.665L960.478 222.665Z"/>
<path d="M994.678 246.125L1012.68 201.665L1012.92 201.665L1030.92 246.125L1027.62 246.125L1011.96 206.345L1014 205.205L997.618 246.125L994.678 246.125ZM1003.38 229.265L1022.28 229.265L1023.12 232.025L1002.66 232.025L1003.38 229.265Z"/>
<path d="M1048.62 246.605C1046.42 246.605 1044.42 246.075 1042.62 245.015C1040.82 243.955 1039.39 242.485 1038.33 240.605C1037.27 238.725 1036.74 236.605 1036.74 234.245C1036.74 231.725 1037.28 229.545 1038.36 227.705C1039.44 225.865 1040.91 224.445 1042.77 223.445C1044.63 222.445 1046.68 221.945 1048.92 221.945C1051.16 221.945 1053.29 222.525 1055.31 223.685C1057.33 224.845 1058.8 226.365 1059.72 228.245L1059.24 229.565L1059.24 200.525L1062.06 200.525L1062.06 246.125L1059.18 246.125L1059.18 238.925L1059.78 240.245C1058.78 242.125 1057.28 243.655 1055.28 244.835C1053.28 246.015 1051.06 246.605 1048.62 246.605ZM1049.34 244.145C1051.14 244.145 1052.76 243.755 1054.2 242.975C1055.64 242.195 1056.8 241.135 1057.68 239.795C1058.56 238.455 1059.06 236.945 1059.18 235.265L1059.18 232.265C1058.9 230.745 1058.28 229.385 1057.32 228.185C1056.36 226.985 1055.2 226.035 1053.84 225.335C1052.48 224.635 1050.98 224.285 1049.34 224.285C1047.54 224.285 1045.9 224.705 1044.42 225.545C1042.94 226.385 1041.76 227.545 1040.88 229.025C1040 230.505 1039.56 232.225 1039.56 234.185C1039.56 236.025 1040 237.695 1040.88 239.195C1041.76 240.695 1042.95 241.895 1044.45 242.795C1045.95 243.695 1047.58 244.145 1049.34 244.145Z"/>
<path d="M1080.12 246.785C1077.92 246.785 1076.16 246.135 1074.84 244.835C1073.52 243.535 1072.82 241.845 1072.74 239.765L1072.74 222.665L1075.56 222.665L1075.56 238.925C1075.64 240.445 1076.13 241.705 1077.03 242.705C1077.93 243.705 1079.28 244.245 1081.08 244.325C1082.6 244.325 1084.02 243.925 1085.34 243.125C1086.66 242.325 1087.73 241.235 1088.55 239.855C1089.37 238.475 1089.78 236.905 1089.78 235.145L1089.78 222.665L1092.6 222.665L1092.6 246.125L1090.08 246.125L1089.78 238.745L1090.2 240.365C1089.8 241.565 1089.09 242.655 1088.07 243.635C1087.05 244.615 1085.85 245.385 1084.47 245.945C1083.09 246.505 1081.64 246.785 1080.12 246.785Z"/>
<path d="M1103.28 200.525L1106.1 200.525L1106.1 246.125L1103.28 246.125L1103.28 200.525Z"/>
<path d="M1119.12 212.345L1122 212.345L1122 222.965L1129.26 222.965L1129.26 225.245L1122 225.245L1122 246.125L1119.12 246.125L1119.12 225.245L1114.14 225.245L1114.14 222.965L1119.12 222.965L1119.12 212.345Z"/>
<path d="M1141.8 246.605C1140.44 246.605 1139.02 246.355 1137.54 245.855C1136.06 245.355 1134.86 244.545 1133.94 243.425L1135.26 241.565C1136.06 242.405 1137.01 243.075 1138.11 243.575C1139.21 244.075 1140.38 244.325 1141.62 244.325C1142.54 244.325 1143.41 244.195 1144.23 243.935C1145.05 243.675 1145.72 243.225 1146.24 242.585C1146.76 241.945 1147.02 241.085 1147.02 240.005C1147.02 238.885 1146.71 238.025 1146.09 237.425C1145.47 236.825 1144.69 236.335 1143.75 235.955C1142.81 235.575 1141.82 235.225 1140.78 234.905C1139.06 234.345 1137.65 233.585 1136.55 232.625C1135.45 231.665 1134.9 230.305 1134.9 228.545C1134.9 227.265 1135.21 226.145 1135.83 225.185C1136.45 224.225 1137.3 223.475 1138.38 222.935C1139.46 222.395 1140.68 222.125 1142.04 222.125C1143.28 222.125 1144.51 222.325 1145.73 222.725C1146.95 223.125 1148.06 223.805 1149.06 224.765L1147.8 226.745C1147.16 225.865 1146.31 225.265 1145.25 224.945C1144.19 224.625 1143.26 224.445 1142.46 224.405C1141.78 224.405 1141.07 224.545 1140.33 224.825C1139.59 225.105 1138.97 225.515 1138.47 226.055C1137.97 226.595 1137.72 227.305 1137.72 228.185C1137.72 229.105 1137.98 229.855 1138.5 230.435C1139.02 231.015 1139.69 231.485 1140.51 231.845C1141.33 232.205 1142.18 232.545 1143.06 232.865C1144.22 233.225 1145.31 233.655 1146.33 234.155C1147.35 234.655 1148.19 235.315 1148.85 236.135C1149.51 236.955 1149.84 238.045 1149.84 239.405C1149.84 240.765 1149.54 241.995 1148.94 243.095C1148.34 244.195 1147.45 245.055 1146.27 245.675C1145.09 246.295 1143.6 246.605 1141.8 246.605Z"/>
</g>
</g>
<g id="Icon" vectornator:layerName="Icon">
<path d="M153.183 17.0621C77.5485 16.9912 16.1693 77.4532 16.0993 152.097C16.0293 226.752 77.2951 287.319 152.93 287.389C228.574 287.46 289.943 227.008 290.013 152.354C290.083 77.71 228.828 17.133 153.183 17.0621ZM70.9047 230.3C65.5924 224.852 60.8525 218.873 56.7327 212.459C76.5898 195.944 102.2 185.969 130.197 185.995L175.852 186.038C210.981 186.071 242.905 172.936 267.142 151.474C267.142 151.772 267.186 152.046 267.186 152.333C267.176 163.001 265.56 173.275 262.744 183.051C237.696 199.143 207.896 208.597 175.831 208.566L130.176 208.524C107.53 208.502 86.8797 216.775 70.9047 230.3ZM46.333 191.867C43.4776 184.387 41.4237 176.532 40.2364 168.39C65.8979 151.066 96.8837 140.9 130.24 140.932L175.894 140.975C208.538 141.005 237.219 124.005 253.383 98.501C257.656 106.25 260.901 114.603 263.248 123.316C242.305 147.89 210.958 163.536 175.873 163.503L130.218 163.46C98.5779 163.427 69.5193 174.091 46.333 191.867ZM238.601 77.8409C228.012 101.708 203.957 118.472 175.915 118.446L130.261 118.403C97.2266 118.372 66.2216 127.088 39.4357 142.286C40.325 132.356 42.5629 122.829 45.8823 113.813C71.6581 102.311 100.209 95.8467 130.282 95.8749L175.936 95.9177C197.456 95.9379 215.438 81.1374 220.261 61.3303C226.967 66.1687 233.111 71.6959 238.601 77.8409ZM153.162 39.5871C169.402 39.6023 184.823 43.0162 198.804 49.0677L198.803 50.862C198.791 63.2903 188.54 73.4045 175.957 73.3927L130.303 73.3499C106.753 73.3278 84.0901 77.01 62.7084 83.5894C83.5989 56.8465 116.303 39.5526 153.162 39.5871ZM152.951 264.861C129.045 264.839 106.882 257.539 88.548 245.124C100.105 236.336 114.487 231.034 130.155 231.049L175.81 231.092C200.808 231.115 224.609 226.055 246.318 217.033C225.638 245.969 191.559 264.897 152.951 264.861Z" fill="#3395ff" fill-rule="nonzero" opacity="1" stroke="none"/>
</g>
<g id="Sub" vectornator:layerName="Sub"/>
</svg>
