<?xml version="1.0" encoding="UTF-8" standalone="no"?>
<!DOCTYPE svg PUBLIC "-//W3C//DTD SVG 1.1//EN" "http://www.w3.org/Graphics/SVG/1.1/DTD/svg11.dtd">
<!-- Created with Vectornator (http://vectornator.io/) -->
<svg height="100%" stroke-miterlimit="10" style="fill-rule:nonzero;clip-rule:evenodd;stroke-linecap:round;stroke-linejoin:round;" version="1.1" viewBox="0 0 1356.11 309.465" width="100%" xml:space="preserve" xmlns="http://www.w3.org/2000/svg" xmlns:vectornator="http://vectornator.io" xmlns:xlink="http://www.w3.org/1999/xlink">
<defs/>
<g id="Main" vectornator:layerName="Main">
<g fill="#ffffff" opacity="1" stroke="none">
<path d="M357.722 164.137C354.906 164.137 352.154 164.051 349.466 163.881C346.778 163.71 344.133 163.454 341.53 163.113C338.928 162.771 336.432 162.387 334.042 161.961C331.653 161.534 329.349 161.022 327.13 160.425L327.13 140.713C330.032 140.969 333.168 141.182 336.538 141.353C339.909 141.523 343.322 141.651 346.778 141.737C350.234 141.822 353.456 141.865 356.442 141.865C359.258 141.865 361.605 141.651 363.482 141.225C365.36 140.798 366.768 140.115 367.706 139.177C368.645 138.238 369.114 136.958 369.114 135.337L369.114 133.801C369.114 131.923 368.453 130.515 367.13 129.577C365.808 128.638 364.25 128.169 362.458 128.169L355.674 128.169C345.776 128.169 338.266 125.993 333.146 121.641C328.026 117.289 325.466 109.993 325.466 99.7527L325.466 95.5287C325.466 86.142 328.282 79.1233 333.914 74.4727C339.546 69.822 347.653 67.4967 358.234 67.4967C362.245 67.4967 366.021 67.6887 369.562 68.0727C373.104 68.4567 376.432 68.926 379.546 69.4807C382.661 70.0353 385.456 70.6113 387.93 71.2087L387.93 90.9207C384.005 90.5793 379.589 90.302 374.682 90.0887C369.776 89.8753 365.317 89.7687 361.306 89.7687C358.917 89.7687 356.784 89.9393 354.906 90.2807C353.029 90.622 351.578 91.3047 350.554 92.3287C349.53 93.3527 349.018 94.846 349.018 96.8087L349.018 98.0887C349.018 100.222 349.701 101.843 351.066 102.953C352.432 104.062 354.522 104.617 357.338 104.617L365.786 104.617C371.76 104.617 376.73 105.747 380.698 108.009C384.666 110.27 387.653 113.342 389.658 117.225C391.664 121.107 392.666 125.523 392.666 130.473L392.666 134.697C392.666 142.803 391.258 148.99 388.442 153.257C385.626 157.523 381.616 160.403 376.41 161.897C371.205 163.39 364.976 164.137 357.722 164.137Z"/>
<path d="M404.314 163.369L404.314 68.2647L429.146 68.2647L429.146 163.369L404.314 163.369Z"/>
<path d="M467.93 163.369C462.213 163.369 457.52 162.515 453.85 160.809C450.181 159.102 447.493 156.414 445.786 152.745C444.08 149.075 443.226 144.382 443.226 138.665L443.226 68.2647L468.058 68.2647L468.058 134.441C468.058 135.891 468.293 137.129 468.762 138.153C469.232 139.177 469.978 139.923 471.002 140.393C472.026 140.862 473.264 141.097 474.714 141.097L502.362 141.097L502.362 163.369L467.93 163.369Z"/>
<path d="M530.522 163.369L502.362 68.2647L528.09 68.2647L546.138 136.361L564.186 68.2647L589.658 68.2647L561.498 163.369L530.522 163.369Z"/>
<path d="M619.226 164.137C617.178 164.137 614.725 163.923 611.866 163.497C609.008 163.07 606.234 162.131 603.546 160.681C600.858 159.23 598.618 156.99 596.826 153.961C595.034 150.931 594.138 146.771 594.138 141.481L594.138 91.8167C594.138 87.2087 594.864 83.3687 596.314 80.2967C597.765 77.2247 599.642 74.814 601.946 73.0647C604.25 71.3153 606.81 70.078 609.626 69.3527C612.442 68.6273 615.173 68.2647 617.818 68.2647C624.986 68.2647 631.152 68.3713 636.314 68.5847C641.477 68.798 645.957 69.0327 649.754 69.2887C653.552 69.5447 656.901 69.8433 659.802 70.1847L659.802 91.1767L625.498 91.1767C623.365 91.1767 621.744 91.646 620.634 92.5847C619.525 93.5233 618.97 94.9313 618.97 96.8087L618.97 104.745L653.402 106.025L653.402 125.737L618.97 127.017L618.97 134.185C618.97 135.721 619.205 136.979 619.674 137.961C620.144 138.942 620.805 139.667 621.658 140.137C622.512 140.606 623.45 140.841 624.474 140.841L659.802 140.841L659.802 161.833C656.133 162.345 651.952 162.771 647.258 163.113C642.565 163.454 637.786 163.71 632.922 163.881C628.058 164.051 623.493 164.137 619.226 164.137Z"/>
<path d="M671.45 163.369L671.45 68.2647L712.026 68.2647C716.208 68.2647 720.048 68.7767 723.546 69.8007C727.045 70.8247 730.074 72.5527 732.634 74.9847C735.194 77.4167 737.178 80.6807 738.586 84.7767C739.994 88.8727 740.698 94.0353 740.698 100.265C740.698 104.19 740.357 107.603 739.674 110.505C738.992 113.406 738.074 115.859 736.922 117.865C735.77 119.87 734.405 121.555 732.826 122.921C731.248 124.286 729.562 125.481 727.77 126.505L744.282 163.369L719.066 163.369L705.754 130.601C704.986 130.601 704.197 130.601 703.386 130.601C702.576 130.601 701.786 130.601 701.018 130.601C700.25 130.601 699.461 130.601 698.65 130.601C697.84 130.601 697.05 130.601 696.282 130.601L696.282 163.369L671.45 163.369ZM696.282 110.889L707.546 110.889C708.912 110.889 710.106 110.697 711.13 110.313C712.154 109.929 713.029 109.31 713.754 108.457C714.48 107.603 715.013 106.515 715.354 105.193C715.696 103.87 715.866 102.27 715.866 100.393C715.866 98.5153 715.696 96.9367 715.354 95.6567C715.013 94.3767 714.48 93.374 713.754 92.6487C713.029 91.9233 712.154 91.39 711.13 91.0487C710.106 90.7073 708.912 90.5367 707.546 90.5367L696.282 90.5367L696.282 110.889Z"/>
<path d="M815.194 164.137C812.378 164.137 809.626 164.051 806.938 163.881C804.25 163.71 801.605 163.454 799.002 163.113C796.4 162.771 793.904 162.387 791.514 161.961C789.125 161.534 786.821 161.022 784.602 160.425L784.602 140.713C787.504 140.969 790.64 141.182 794.01 141.353C797.381 141.523 800.794 141.651 804.25 141.737C807.706 141.822 810.928 141.865 813.914 141.865C816.73 141.865 819.077 141.651 820.954 141.225C822.832 140.798 824.24 140.115 825.178 139.177C826.117 138.238 826.586 136.958 826.586 135.337L826.586 133.801C826.586 131.923 825.925 130.515 824.602 129.577C823.28 128.638 821.722 128.169 819.93 128.169L813.146 128.169C803.248 128.169 795.738 125.993 790.618 121.641C785.498 117.289 782.938 109.993 782.938 99.7527L782.938 95.5287C782.938 86.142 785.754 79.1233 791.386 74.4727C797.018 69.822 805.125 67.4967 815.706 67.4967C819.717 67.4967 823.493 67.6887 827.034 68.0727C830.576 68.4567 833.904 68.926 837.018 69.4807C840.133 70.0353 842.928 70.6113 845.402 71.2087L845.402 90.9207C841.477 90.5793 837.061 90.302 832.154 90.0887C827.248 89.8753 822.789 89.7687 818.778 89.7687C816.389 89.7687 814.256 89.9393 812.378 90.2807C810.501 90.622 809.05 91.3047 808.026 92.3287C807.002 93.3527 806.49 94.846 806.49 96.8087L806.49 98.0887C806.49 100.222 807.173 101.843 808.538 102.953C809.904 104.062 811.994 104.617 814.81 104.617L823.258 104.617C829.232 104.617 834.202 105.747 838.17 108.009C842.138 110.27 845.125 113.342 847.13 117.225C849.136 121.107 850.138 125.523 850.138 130.473L850.138 134.697C850.138 142.803 848.73 148.99 845.914 153.257C843.098 157.523 839.088 160.403 833.882 161.897C828.677 163.39 822.448 164.137 815.194 164.137Z"/>
<path d="M899.034 164.009C893.829 164.009 888.901 163.582 884.25 162.729C879.6 161.875 875.482 160.297 871.898 157.993C868.314 155.689 865.52 152.446 863.514 148.265C861.509 144.083 860.506 138.665 860.506 132.009L860.506 68.2647L885.338 68.2647L885.338 131.881C885.338 134.099 885.872 135.934 886.938 137.385C888.005 138.835 889.562 139.923 891.61 140.649C893.658 141.374 896.133 141.737 899.034 141.737C901.936 141.737 904.41 141.374 906.458 140.649C908.506 139.923 910.064 138.835 911.13 137.385C912.197 135.934 912.73 134.099 912.73 131.881L912.73 68.2647L937.562 68.2647L937.562 132.009C937.562 138.665 936.56 144.083 934.554 148.265C932.549 152.446 929.754 155.689 926.17 157.993C922.586 160.297 918.49 161.875 913.882 162.729C909.274 163.582 904.325 164.009 899.034 164.009Z"/>
<path d="M950.362 163.369L950.362 68.2647L990.938 68.2647C995.12 68.2647 998.96 68.7767 1002.46 69.8007C1005.96 70.8247 1008.99 72.5527 1011.55 74.9847C1014.11 77.4167 1016.09 80.6807 1017.5 84.7767C1018.91 88.8727 1019.61 94.0353 1019.61 100.265C1019.61 104.19 1019.27 107.603 1018.59 110.505C1017.9 113.406 1016.99 115.859 1015.83 117.865C1014.68 119.87 1013.32 121.555 1011.74 122.921C1010.16 124.286 1008.47 125.481 1006.68 126.505L1023.19 163.369L997.978 163.369L984.666 130.601C983.898 130.601 983.109 130.601 982.298 130.601C981.488 130.601 980.698 130.601 979.93 130.601C979.162 130.601 978.373 130.601 977.562 130.601C976.752 130.601 975.962 130.601 975.194 130.601L975.194 163.369L950.362 163.369ZM975.194 110.889L986.458 110.889C987.824 110.889 989.018 110.697 990.042 110.313C991.066 109.929 991.941 109.31 992.666 108.457C993.392 107.603 993.925 106.515 994.266 105.193C994.608 103.87 994.778 102.27 994.778 100.393C994.778 98.5153 994.608 96.9367 994.266 95.6567C993.925 94.3767 993.392 93.374 992.666 92.6487C991.941 91.9233 991.066 91.39 990.042 91.0487C989.018 90.7073 987.824 90.5367 986.458 90.5367L975.194 90.5367L975.194 110.889Z"/>
<path d="M1032.28 163.369L1032.28 91.8167C1032.28 87.2087 1033.01 83.3687 1034.46 80.2967C1035.91 77.2247 1037.79 74.814 1040.09 73.0647C1042.39 71.3153 1044.95 70.078 1047.77 69.3527C1050.59 68.6273 1053.32 68.2647 1055.96 68.2647C1058.61 68.2647 1062.28 68.286 1066.97 68.3287C1071.66 68.3713 1076.76 68.542 1082.27 68.8407C1087.77 69.1393 1093 69.63 1097.95 70.3127L1097.95 91.1767L1063.13 91.1767C1061 91.1767 1059.46 91.7527 1058.52 92.9047C1057.58 94.0567 1057.11 95.2727 1057.11 96.5527L1057.11 107.305L1091.55 108.585L1091.55 128.297L1057.11 129.577L1057.11 163.369L1032.28 163.369Z"/>
<path d="M1108.19 163.369L1108.19 68.2647L1133.02 68.2647L1133.02 163.369L1108.19 163.369Z"/>
<path d="M1147.1 163.369L1147.1 68.2647L1166.81 68.2647L1200.22 121.257L1200.22 68.2647L1225.05 68.2647L1225.05 163.369L1205.34 163.369L1171.93 110.377L1171.93 163.369L1147.1 163.369Z"/>
<path d="M1265.24 164.009C1259.35 164.009 1254.55 162.75 1250.84 160.233C1247.13 157.715 1244.25 154.259 1242.2 149.865C1240.15 145.47 1238.72 140.371 1237.91 134.569C1237.1 128.766 1236.7 122.579 1236.7 116.009C1236.7 108.67 1237.19 102.014 1238.17 96.0407C1239.15 90.0673 1240.94 84.9473 1243.55 80.6807C1246.15 76.414 1249.88 73.1287 1254.75 70.8247C1259.61 68.5207 1265.92 67.3687 1273.69 67.3687C1278.72 67.3687 1283.06 67.5607 1286.68 67.9447C1290.31 68.3287 1293.7 68.8833 1296.86 69.6087C1300.02 70.334 1303.3 71.166 1306.71 72.1047L1306.71 91.4327C1304.84 91.0913 1302.45 90.7927 1299.55 90.5367C1296.64 90.2807 1293.4 90.0673 1289.82 89.8967C1286.23 89.726 1282.44 89.6407 1278.43 89.6407C1273.48 89.6407 1269.81 90.3873 1267.42 91.8807C1265.03 93.374 1263.45 96.0407 1262.68 99.8807C1261.91 103.721 1261.53 109.097 1261.53 116.009C1261.53 121.299 1261.74 125.587 1262.17 128.873C1262.6 132.158 1263.3 134.697 1264.28 136.489C1265.26 138.281 1266.52 139.518 1268.06 140.201C1269.59 140.883 1271.43 141.225 1273.56 141.225C1276.72 141.225 1279.54 141.075 1282.01 140.777C1284.48 140.478 1286.36 140.201 1287.64 139.945L1287.64 127.657L1274.46 127.657L1274.46 107.945C1276.34 107.689 1278.58 107.475 1281.18 107.305C1283.78 107.134 1286.47 106.985 1289.24 106.857C1292.02 106.729 1294.55 106.665 1296.86 106.665C1299.93 106.665 1302.64 106.686 1304.99 106.729C1307.33 106.771 1309.49 106.835 1311.45 106.921L1311.45 163.369L1292.76 163.369L1289.43 157.097C1287.39 158.462 1284.19 159.955 1279.83 161.577C1275.48 163.198 1270.62 164.009 1265.24 164.009Z"/>
</g>
<g fill="#ffffff" opacity="1" stroke="none">
<path d="M329.938 244.585L329.938 202.651L341.393 202.651C345.531 202.651 349.054 203.284 351.964 204.551C354.873 205.817 357.222 207.494 359.011 209.582C360.799 211.67 362.109 213.981 362.94 216.513C363.772 219.046 364.187 221.579 364.187 224.111C364.187 227.263 363.631 230.095 362.52 232.608C361.408 235.122 359.89 237.272 357.967 239.061C356.043 240.849 353.834 242.217 351.34 243.164C348.846 244.112 346.207 244.585 343.423 244.585L329.938 244.585ZM335.564 239.162L342.321 239.162C344.622 239.162 346.749 238.819 348.701 238.133C350.654 237.446 352.355 236.446 353.805 235.131C355.255 233.817 356.381 232.202 357.184 230.288C357.986 228.374 358.387 226.19 358.387 223.734C358.387 221.163 357.962 218.901 357.111 216.948C356.261 214.996 355.105 213.362 353.646 212.047C352.186 210.733 350.528 209.742 348.672 209.075C346.816 208.408 344.873 208.074 342.843 208.074L335.564 208.074L335.564 239.162Z"/>
<path d="M372.307 220.573L377.701 220.573L377.701 244.585L372.307 244.585L372.307 220.573ZM371.901 211.873C371.901 211.023 372.24 210.307 372.916 209.727C373.593 209.147 374.337 208.857 375.149 208.857C375.961 208.857 376.686 209.147 377.324 209.727C377.962 210.307 378.281 211.023 378.281 211.873C378.281 212.763 377.962 213.488 377.324 214.048C376.686 214.609 375.961 214.889 375.149 214.889C374.337 214.889 373.593 214.599 372.916 214.019C372.24 213.439 371.901 212.724 371.901 211.873Z"/>
<path d="M398.639 256.504C396.86 256.504 395.29 256.296 393.927 255.881C392.564 255.465 391.331 254.89 390.229 254.155C389.127 253.421 388.064 252.599 387.039 251.69L390.229 247.978C391.505 249.177 392.796 250.105 394.101 250.762C395.406 251.42 396.88 251.748 398.523 251.748C400.34 251.748 401.873 251.449 403.12 250.849C404.367 250.25 405.314 249.423 405.962 248.37C406.609 247.316 406.943 246.084 406.962 244.672L406.991 238.205L407.455 239.278C406.759 240.941 405.507 242.338 403.7 243.469C401.892 244.6 399.702 245.165 397.131 245.165C394.927 245.165 392.897 244.605 391.041 243.483C389.185 242.362 387.706 240.844 386.604 238.93C385.502 237.016 384.951 234.861 384.951 232.463C384.951 229.95 385.531 227.731 386.691 225.808C387.851 223.884 389.388 222.366 391.302 221.255C393.216 220.143 395.285 219.587 397.508 219.587C399.654 219.587 401.597 220.017 403.337 220.878C405.077 221.738 406.363 222.845 407.194 224.198L406.875 225.213L407.455 220.573L412.414 220.573L412.414 244.759C412.414 246.925 411.858 248.897 410.747 250.675C409.635 252.454 408.054 253.87 406.005 254.924C403.956 255.977 401.5 256.504 398.639 256.504ZM390.403 232.318C390.403 233.884 390.77 235.3 391.505 236.567C392.24 237.833 393.235 238.838 394.492 239.583C395.749 240.327 397.15 240.699 398.697 240.699C400.108 240.699 401.38 240.438 402.511 239.916C403.642 239.394 404.599 238.674 405.382 237.756C406.165 236.837 406.701 235.798 406.991 234.638L406.991 229.853C406.662 228.693 406.097 227.683 405.295 226.823C404.492 225.962 403.53 225.286 402.409 224.793C401.288 224.3 400.05 224.053 398.697 224.053C397.15 224.053 395.749 224.406 394.492 225.112C393.235 225.817 392.24 226.789 391.505 228.026C390.77 229.264 390.403 230.694 390.403 232.318Z"/>
<path d="M421.781 220.573L427.175 220.573L427.175 244.585L421.781 244.585L421.781 220.573ZM421.375 211.873C421.375 211.023 421.713 210.307 422.39 209.727C423.067 209.147 423.811 208.857 424.623 208.857C425.435 208.857 426.16 209.147 426.798 209.727C427.436 210.307 427.755 211.023 427.755 211.873C427.755 212.763 427.436 213.488 426.798 214.048C426.16 214.609 425.435 214.889 424.623 214.889C423.811 214.889 423.067 214.599 422.39 214.019C421.713 213.439 421.375 212.724 421.375 211.873Z"/>
<path d="M438.833 210.017L444.285 210.017L444.285 220.66L450.868 220.66L450.868 224.923L444.285 224.923L444.285 244.585L438.833 244.585L438.833 224.923L434.454 224.923L434.454 220.66L438.833 220.66L438.833 210.017Z"/>
<path d="M467.398 245.165C465.136 245.165 463.086 244.682 461.25 243.715C459.413 242.749 457.958 241.328 456.885 239.452C455.812 237.577 455.276 235.286 455.276 232.579C455.276 229.892 455.836 227.577 456.958 225.634C458.079 223.691 459.577 222.197 461.453 221.153C463.328 220.109 465.387 219.587 467.63 219.587C469.892 219.587 471.796 220.095 473.343 221.11C474.889 222.125 476.069 223.338 476.881 224.749L476.504 225.648L477.055 220.573L482.043 220.573L482.043 244.585L476.62 244.585L476.62 238.321L477.229 239.713C477.055 240.1 476.707 240.593 476.185 241.192C475.663 241.792 474.976 242.401 474.126 243.019C473.275 243.638 472.289 244.15 471.168 244.556C470.046 244.962 468.79 245.165 467.398 245.165ZM468.848 240.699C470.182 240.699 471.385 240.448 472.458 239.945C473.531 239.443 474.425 238.732 475.141 237.814C475.856 236.895 476.349 235.808 476.62 234.551L476.62 229.824C476.31 228.684 475.774 227.683 475.01 226.823C474.246 225.962 473.323 225.286 472.241 224.793C471.158 224.3 469.969 224.053 468.674 224.053C467.243 224.053 465.923 224.401 464.715 225.097C463.507 225.793 462.545 226.76 461.83 227.997C461.114 229.235 460.757 230.675 460.757 232.318C460.757 233.884 461.124 235.3 461.859 236.567C462.593 237.833 463.579 238.838 464.817 239.583C466.054 240.327 467.398 240.699 468.848 240.699Z"/>
<path d="M491.38 199.664L496.803 199.664L496.803 244.585L491.38 244.585L491.38 199.664Z"/>
<path d="M525.832 202.651L531.458 202.651L531.458 239.162L552.773 239.162L552.773 244.585L525.832 244.585L525.832 202.651Z"/>
<path d="M560.574 220.573L565.968 220.573L565.968 244.585L560.574 244.585L560.574 220.573ZM560.168 211.873C560.168 211.023 560.507 210.307 561.183 209.727C561.86 209.147 562.604 208.857 563.416 208.857C564.228 208.857 564.953 209.147 565.591 209.727C566.229 210.307 566.548 211.023 566.548 211.873C566.548 212.763 566.229 213.488 565.591 214.048C564.953 214.609 564.228 214.889 563.416 214.889C562.604 214.889 561.86 214.599 561.183 214.019C560.507 213.439 560.168 212.724 560.168 211.873Z"/>
<path d="M577.626 210.017L583.078 210.017L583.078 220.66L589.661 220.66L589.661 224.923L583.078 224.923L583.078 244.585L577.626 244.585L577.626 224.923L573.247 224.923L573.247 220.66L577.626 220.66L577.626 210.017Z"/>
<path d="M607.322 245.165C604.596 245.165 602.242 244.614 600.26 243.512C598.279 242.41 596.751 240.897 595.678 238.974C594.605 237.05 594.069 234.861 594.069 232.405C594.069 230.027 594.668 227.872 595.867 225.938C597.066 224.005 598.675 222.463 600.695 221.313C602.716 220.162 604.963 219.587 607.438 219.587C610.609 219.587 613.238 220.51 615.326 222.357C617.414 224.203 618.835 226.76 619.589 230.027L599.811 236.987L598.506 233.797L614.717 227.852L613.586 228.635C613.103 227.359 612.329 226.252 611.266 225.315C610.203 224.377 608.791 223.908 607.032 223.908C605.563 223.908 604.253 224.261 603.102 224.967C601.952 225.672 601.048 226.639 600.391 227.867C599.734 229.094 599.405 230.511 599.405 232.115C599.405 233.759 599.748 235.213 600.434 236.48C601.121 237.746 602.073 238.737 603.291 239.452C604.509 240.168 605.891 240.525 607.438 240.525C608.501 240.525 609.526 240.332 610.512 239.945C611.498 239.559 612.416 239.056 613.267 238.437L615.761 242.439C614.543 243.251 613.19 243.909 611.701 244.411C610.212 244.914 608.753 245.165 607.322 245.165Z"/>
<path d="M631.16 220.573L631.682 227.533L631.421 226.576C632.039 225.126 632.938 223.884 634.118 222.85C635.297 221.815 636.534 221.018 637.83 220.457C639.125 219.897 640.246 219.616 641.194 219.616L640.933 225.01C639.115 224.894 637.516 225.242 636.133 226.054C634.751 226.866 633.668 227.944 632.885 229.288C632.102 230.631 631.711 232.077 631.711 233.623L631.711 244.585L626.317 244.585L626.317 220.573L631.16 220.573Z"/>
<path d="M657.579 245.165C655.317 245.165 653.267 244.682 651.431 243.715C649.594 242.749 648.139 241.328 647.066 239.452C645.993 237.577 645.457 235.286 645.457 232.579C645.457 229.892 646.017 227.577 647.139 225.634C648.26 223.691 649.758 222.197 651.634 221.153C653.509 220.109 655.568 219.587 657.811 219.587C660.073 219.587 661.977 220.095 663.524 221.11C665.07 222.125 666.25 223.338 667.062 224.749L666.685 225.648L667.236 220.573L672.224 220.573L672.224 244.585L666.801 244.585L666.801 238.321L667.41 239.713C667.236 240.1 666.888 240.593 666.366 241.192C665.844 241.792 665.157 242.401 664.307 243.019C663.456 243.638 662.47 244.15 661.349 244.556C660.227 244.962 658.971 245.165 657.579 245.165ZM659.029 240.699C660.363 240.699 661.566 240.448 662.639 239.945C663.712 239.443 664.606 238.732 665.322 237.814C666.037 236.895 666.53 235.808 666.801 234.551L666.801 229.824C666.491 228.684 665.955 227.683 665.191 226.823C664.427 225.962 663.504 225.286 662.422 224.793C661.339 224.3 660.15 224.053 658.855 224.053C657.424 224.053 656.104 224.401 654.896 225.097C653.688 225.793 652.726 226.76 652.011 227.997C651.295 229.235 650.938 230.675 650.938 232.318C650.938 233.884 651.305 235.3 652.04 236.567C652.774 237.833 653.76 238.838 654.998 239.583C656.235 240.327 657.579 240.699 659.029 240.699Z"/>
<path d="M701.079 242.352C699.996 243.222 698.705 243.909 697.207 244.411C695.709 244.914 694.196 245.165 692.669 245.165C690.059 245.165 687.763 244.643 685.781 243.599C683.799 242.555 682.253 241.091 681.141 239.206C680.029 237.321 679.474 235.102 679.474 232.55C679.474 229.998 680.063 227.78 681.243 225.895C682.422 224.01 683.978 222.55 685.912 221.516C687.845 220.481 689.914 219.964 692.118 219.964C694.051 219.964 695.776 220.235 697.294 220.776C698.812 221.318 700.122 222.052 701.224 222.98L698.527 226.518C697.85 225.977 697.004 225.489 695.989 225.054C694.974 224.619 693.838 224.401 692.582 224.401C691.17 224.401 689.88 224.759 688.71 225.474C687.54 226.19 686.612 227.161 685.926 228.389C685.24 229.616 684.897 231.004 684.897 232.55C684.897 234.039 685.249 235.407 685.955 236.654C686.661 237.901 687.632 238.887 688.87 239.612C690.107 240.337 691.518 240.699 693.104 240.699C694.128 240.699 695.08 240.545 695.96 240.235C696.84 239.926 697.618 239.501 698.295 238.959L701.079 242.352Z"/>
<path d="M710.068 256.127L725.902 220.573L730.89 220.573L715.404 256.127L710.068 256.127ZM716.013 244.759L704.442 220.573L710.532 220.573L720.218 242.004L716.013 244.759Z"/>
<path d="M756.352 202.651L781.234 202.651L781.234 208.074L761.978 208.074L761.978 221.414L778.856 221.414L778.856 226.808L761.978 226.808L761.978 244.585L756.352 244.585L756.352 202.651Z"/>
<path d="M783.931 232.347C783.931 229.95 784.501 227.785 785.642 225.851C786.783 223.918 788.364 222.391 790.386 221.269C792.408 220.148 794.703 219.587 797.271 219.587C799.881 219.587 802.172 220.148 804.144 221.269C806.116 222.391 807.648 223.918 808.741 225.852C809.833 227.786 810.379 229.946 810.379 232.333C810.379 234.74 809.833 236.915 808.741 238.858C807.648 240.801 806.111 242.338 804.13 243.469C802.148 244.6 799.838 245.165 797.199 245.165C794.656 245.165 792.385 244.638 790.384 243.585C788.383 242.531 786.807 241.043 785.657 239.121C784.506 237.198 783.931 234.94 783.931 232.347ZM789.383 232.405C789.383 233.954 789.725 235.355 790.409 236.608C791.093 237.861 792.023 238.857 793.199 239.594C794.376 240.331 795.685 240.699 797.126 240.699C798.63 240.699 799.968 240.332 801.14 239.597C802.311 238.863 803.231 237.868 803.898 236.613C804.565 235.358 804.898 233.956 804.898 232.405C804.898 230.847 804.565 229.443 803.898 228.192C803.231 226.941 802.313 225.943 801.144 225.199C799.976 224.454 798.641 224.082 797.14 224.082C795.661 224.082 794.337 224.464 793.168 225.228C791.998 225.991 791.075 227.002 790.398 228.258C789.721 229.515 789.383 230.897 789.383 232.405Z"/>
<path d="M822.472 220.573L822.994 227.533L822.733 226.576C823.352 225.126 824.251 223.884 825.43 222.85C826.609 221.815 827.847 221.018 829.142 220.457C830.437 219.897 831.559 219.616 832.506 219.616L832.245 225.01C830.428 224.894 828.828 225.242 827.445 226.054C826.063 226.866 824.98 227.944 824.197 229.288C823.414 230.631 823.023 232.077 823.023 233.623L823.023 244.585L817.629 244.585L817.629 220.573L822.472 220.573Z"/>
<path d="M856.518 223.663C856.518 220.752 857.069 218.007 858.171 215.426C859.273 212.845 860.805 210.559 862.767 208.567C864.73 206.576 867.003 205.015 869.588 203.884C872.173 202.753 874.942 202.187 877.896 202.187C880.831 202.187 883.593 202.753 886.18 203.885C888.768 205.017 891.054 206.578 893.039 208.569C895.023 210.559 896.576 212.845 897.698 215.426C898.819 218.007 899.38 220.755 899.38 223.671C899.38 226.625 898.819 229.394 897.698 231.979C896.576 234.564 895.025 236.837 893.043 238.8C891.062 240.762 888.776 242.294 886.187 243.396C883.597 244.498 880.832 245.049 877.893 245.049C874.933 245.049 872.163 244.508 869.582 243.425C867.001 242.343 864.73 240.83 862.767 238.887C860.805 236.944 859.273 234.677 858.171 232.087C857.069 229.497 856.518 226.689 856.518 223.663ZM862.318 223.693C862.318 225.905 862.721 227.973 863.527 229.895C864.333 231.818 865.454 233.51 866.891 234.97C868.327 236.431 869.994 237.572 871.89 238.394C873.786 239.215 875.827 239.626 878.011 239.626C880.193 239.626 882.226 239.215 884.111 238.394C885.996 237.572 887.643 236.43 889.052 234.969C890.461 233.507 891.568 231.814 892.373 229.89C893.177 227.965 893.58 225.893 893.58 223.674C893.58 221.452 893.174 219.37 892.362 217.427C891.55 215.484 890.432 213.777 889.01 212.308C887.587 210.838 885.929 209.688 884.035 208.857C882.14 208.026 880.102 207.61 877.92 207.61C875.707 207.61 873.655 208.029 871.764 208.866C869.873 209.704 868.218 210.864 866.797 212.346C865.377 213.829 864.275 215.542 863.492 217.485C862.709 219.428 862.318 221.497 862.318 223.693Z"/>
<path d="M907.471 199.664L912.894 199.664L912.894 244.585L907.471 244.585L907.471 199.664Z"/>
<path d="M932.034 245.165C929.791 245.165 927.771 244.634 925.973 243.57C924.175 242.507 922.754 240.999 921.71 239.046C920.666 237.094 920.144 234.832 920.144 232.26C920.144 229.612 920.695 227.34 921.797 225.445C922.899 223.551 924.402 222.101 926.306 221.095C928.21 220.09 930.342 219.587 932.701 219.587C934.595 219.587 936.403 219.993 938.124 220.805C939.844 221.617 941.178 222.739 942.126 224.169L941.894 226.083L941.894 199.664L947.288 199.664L947.288 244.585L941.836 244.585L941.836 238.64L942.445 240.148C941.304 241.598 939.844 242.797 938.066 243.744C936.287 244.692 934.276 245.165 932.034 245.165ZM933.716 240.554C935.127 240.554 936.388 240.293 937.5 239.771C938.612 239.249 939.54 238.524 940.284 237.596C941.028 236.668 941.546 235.586 941.836 234.348L941.836 229.795C941.546 228.635 941.009 227.615 940.226 226.736C939.443 225.856 938.496 225.165 937.384 224.662C936.272 224.16 935.05 223.908 933.716 223.908C932.246 223.908 930.898 224.261 929.67 224.967C928.442 225.672 927.461 226.644 926.727 227.881C925.992 229.119 925.625 230.549 925.625 232.173C925.625 233.739 925.992 235.155 926.727 236.422C927.461 237.688 928.447 238.693 929.685 239.438C930.922 240.182 932.266 240.554 933.716 240.554Z"/>
<path d="M967.79 245.165C965.064 245.165 962.711 244.614 960.729 243.512C958.747 242.41 957.22 240.897 956.147 238.974C955.074 237.05 954.537 234.861 954.537 232.405C954.537 230.027 955.137 227.872 956.335 225.938C957.534 224.005 959.144 222.463 961.164 221.313C963.184 220.162 965.432 219.587 967.906 219.587C971.077 219.587 973.706 220.51 975.794 222.357C977.882 224.203 979.303 226.76 980.057 230.027L960.279 236.987L958.974 233.797L975.185 227.852L974.054 228.635C973.571 227.359 972.798 226.252 971.734 225.315C970.671 224.377 969.26 223.908 967.5 223.908C966.031 223.908 964.721 224.261 963.571 224.967C962.421 225.672 961.517 226.639 960.859 227.867C960.202 229.094 959.873 230.511 959.873 232.115C959.873 233.759 960.217 235.213 960.903 236.48C961.589 237.746 962.541 238.737 963.759 239.452C964.977 240.168 966.36 240.525 967.906 240.525C968.97 240.525 969.994 240.332 970.98 239.945C971.966 239.559 972.885 239.056 973.735 238.437L976.229 242.439C975.011 243.251 973.658 243.909 972.169 244.411C970.681 244.914 969.221 245.165 967.79 245.165Z"/>
<path d="M991.628 220.573L992.15 227.533L991.889 226.576C992.508 225.126 993.407 223.884 994.586 222.85C995.766 221.815 997.003 221.018 998.298 220.457C999.594 219.897 1000.72 219.616 1001.66 219.616L1001.4 225.01C999.584 224.894 997.984 225.242 996.602 226.054C995.22 226.866 994.137 227.944 993.354 229.288C992.571 230.631 992.179 232.077 992.179 233.623L992.179 244.585L986.785 244.585L986.785 220.573L991.628 220.573Z"/>
<path d="M1024.08 244.585L1042.41 200.911L1042.76 200.911L1061.08 244.585L1054.62 244.585L1040.9 209.756L1044.93 207.117L1029.65 244.585L1024.08 244.585ZM1034.87 228.722L1050.41 228.722L1052.3 233.594L1033.21 233.594L1034.87 228.722Z"/>
<path d="M1076.8 245.165C1074.56 245.165 1072.54 244.634 1070.74 243.57C1068.94 242.507 1067.52 240.999 1066.48 239.046C1065.43 237.094 1064.91 234.832 1064.91 232.26C1064.91 229.612 1065.46 227.34 1066.56 225.445C1067.67 223.551 1069.17 222.101 1071.07 221.095C1072.98 220.09 1075.11 219.587 1077.47 219.587C1079.36 219.587 1081.17 219.993 1082.89 220.805C1084.61 221.617 1085.95 222.739 1086.89 224.169L1086.66 226.083L1086.66 199.664L1092.06 199.664L1092.06 244.585L1086.6 244.585L1086.6 238.64L1087.21 240.148C1086.07 241.598 1084.61 242.797 1082.83 243.744C1081.05 244.692 1079.04 245.165 1076.8 245.165ZM1078.48 240.554C1079.89 240.554 1081.16 240.293 1082.27 239.771C1083.38 239.249 1084.31 238.524 1085.05 237.596C1085.8 236.668 1086.31 235.586 1086.6 234.348L1086.6 229.795C1086.31 228.635 1085.78 227.615 1084.99 226.736C1084.21 225.856 1083.26 225.165 1082.15 224.662C1081.04 224.16 1079.82 223.908 1078.48 223.908C1077.01 223.908 1075.67 224.261 1074.44 224.967C1073.21 225.672 1072.23 226.644 1071.49 227.881C1070.76 229.119 1070.39 230.549 1070.39 232.173C1070.39 233.739 1070.76 235.155 1071.49 236.422C1072.23 237.688 1073.21 238.693 1074.45 239.438C1075.69 240.182 1077.03 240.554 1078.48 240.554Z"/>
<path d="M1109.05 245.513C1106.85 245.513 1105.04 244.846 1103.63 243.512C1102.21 242.178 1101.47 240.448 1101.39 238.321L1101.39 220.573L1106.82 220.573L1106.82 236.407C1106.89 237.703 1107.28 238.761 1107.96 239.583C1108.65 240.404 1109.73 240.835 1111.2 240.873C1112.53 240.873 1113.73 240.477 1114.81 239.684C1115.88 238.892 1116.73 237.809 1117.37 236.436C1118.01 235.064 1118.33 233.507 1118.33 231.767L1118.33 220.573L1123.75 220.573L1123.75 244.585L1118.85 244.585L1118.39 238.698L1118.65 239.742C1118.16 240.844 1117.45 241.835 1116.52 242.715C1115.58 243.594 1114.47 244.281 1113.2 244.774C1111.92 245.267 1110.54 245.513 1109.05 245.513Z"/>
<path d="M1133.09 199.664L1138.51 199.664L1138.51 244.585L1133.09 244.585L1133.09 199.664Z"/>
<path d="M1150.17 210.017L1155.62 210.017L1155.62 220.66L1162.21 220.66L1162.21 224.923L1155.62 224.923L1155.62 244.585L1150.17 244.585L1150.17 224.923L1145.79 224.923L1145.79 220.66L1150.17 220.66L1150.17 210.017Z"/>
<path d="M1175.49 245.078C1173.79 245.078 1172.13 244.774 1170.51 244.165C1168.9 243.556 1167.56 242.652 1166.5 241.453L1168.82 238.321C1169.82 239.288 1170.86 240.013 1171.92 240.496C1172.98 240.98 1174.03 241.221 1175.05 241.221C1175.83 241.221 1176.54 241.125 1177.2 240.931C1177.86 240.738 1178.39 240.414 1178.79 239.96C1179.2 239.505 1179.4 238.901 1179.4 238.147C1179.4 237.277 1179.12 236.601 1178.56 236.117C1178 235.634 1177.29 235.238 1176.43 234.928C1175.57 234.619 1174.66 234.319 1173.69 234.029C1171.7 233.391 1170.18 232.487 1169.14 231.318C1168.09 230.148 1167.57 228.722 1167.57 227.04C1167.57 225.784 1167.89 224.599 1168.53 223.488C1169.17 222.376 1170.12 221.472 1171.38 220.776C1172.65 220.08 1174.2 219.732 1176.04 219.732C1177.7 219.732 1179.19 219.935 1180.52 220.341C1181.84 220.747 1183.08 221.424 1184.22 222.371L1182.07 225.706C1181.39 224.991 1180.57 224.454 1179.61 224.097C1178.64 223.739 1177.77 223.541 1177 223.502C1176.32 223.483 1175.68 223.589 1175.08 223.821C1174.48 224.053 1173.99 224.377 1173.62 224.793C1173.24 225.208 1173.05 225.716 1173.05 226.315C1173.03 227.127 1173.3 227.78 1173.85 228.273C1174.4 228.766 1175.11 229.157 1175.97 229.447C1176.83 229.737 1177.69 230.037 1178.56 230.346C1179.74 230.714 1180.8 231.182 1181.74 231.753C1182.67 232.323 1183.42 233.034 1183.98 233.884C1184.55 234.735 1184.83 235.808 1184.83 237.103C1184.83 238.534 1184.48 239.858 1183.8 241.076C1183.11 242.294 1182.08 243.266 1180.71 243.991C1179.33 244.716 1177.59 245.078 1175.49 245.078Z"/>
</g>
</g>
<g id="Icon" vectornator:layerName="Icon">
<path d="M144.183 17.0621C68.5485 16.9912 7.16929 77.4532 7.0993 152.097C7.02931 226.752 68.2951 287.319 143.93 287.389C219.574 287.46 280.943 227.008 281.013 152.354C281.083 77.71 219.828 17.133 144.183 17.0621ZM61.9047 230.3C56.5924 224.852 51.8525 218.873 47.7327 212.459C67.5898 195.944 93.1999 185.969 121.197 185.995L166.852 186.038C201.981 186.071 233.905 172.936 258.142 151.474C258.142 151.772 258.186 152.046 258.186 152.333C258.176 163.001 256.56 173.275 253.744 183.051C228.696 199.143 198.896 208.597 166.831 208.566L121.176 208.524C98.5303 208.502 77.8797 216.775 61.9047 230.3ZM37.333 191.867C34.4776 184.387 32.4237 176.532 31.2364 168.39C56.8979 151.066 87.8837 140.9 121.24 140.932L166.894 140.975C199.538 141.005 228.219 124.005 244.383 98.501C248.656 106.25 251.901 114.603 254.248 123.316C233.305 147.89 201.958 163.536 166.873 163.503L121.218 163.46C89.5779 163.427 60.5193 174.091 37.333 191.867ZM229.601 77.8409C219.012 101.708 194.957 118.472 166.915 118.446L121.261 118.403C88.2266 118.372 57.2216 127.088 30.4357 142.286C31.325 132.356 33.5629 122.829 36.8823 113.813C62.6581 102.311 91.2094 95.8467 121.282 95.8749L166.936 95.9177C188.456 95.9379 206.438 81.1374 211.261 61.3303C217.967 66.1687 224.111 71.6959 229.601 77.8409ZM144.162 39.5871C160.402 39.6023 175.823 43.0162 189.804 49.0677L189.803 50.862C189.791 63.2903 179.54 73.4045 166.957 73.3927L121.303 73.3499C97.7531 73.3278 75.0901 77.01 53.7084 83.5894C74.5989 56.8465 107.303 39.5526 144.162 39.5871ZM143.951 264.861C120.045 264.839 97.8817 257.539 79.548 245.124C91.1051 236.336 105.487 231.034 121.155 231.049L166.81 231.092C191.808 231.115 215.609 226.055 237.318 217.033C216.638 245.969 182.559 264.897 143.951 264.861Z" fill="#ffffff" fill-rule="nonzero" opacity="1" stroke="none"/>
</g>
<g id="Sub" vectornator:layerName="Sub"/>
</svg>
