<?xml version="1.0" encoding="UTF-8" standalone="no"?>
<!DOCTYPE svg PUBLIC "-//W3C//DTD SVG 1.1//EN" "http://www.w3.org/Graphics/SVG/1.1/DTD/svg11.dtd">
<!-- Created with Vectornator (http://vectornator.io/) -->
<svg height="100%" stroke-miterlimit="10" style="fill-rule:nonzero;clip-rule:evenodd;stroke-linecap:round;stroke-linejoin:round;" version="1.1" viewBox="0 0 1356.11 309.465" width="100%" xml:space="preserve" xmlns="http://www.w3.org/2000/svg" xmlns:vectornator="http://vectornator.io" xmlns:xlink="http://www.w3.org/1999/xlink">
<defs/>
<g id="Main" vectornator:layerName="Main">
<g opacity="1">
<path d="M370.283 170.552C367.467 170.552 364.715 170.466 362.027 170.296C359.339 170.125 356.694 169.869 354.091 169.528C351.489 169.186 348.993 168.802 346.603 168.376C344.214 167.949 341.91 167.437 339.691 166.84L339.691 147.128C342.593 147.384 345.729 147.597 349.099 147.768C352.47 147.938 355.883 148.066 359.339 148.152C362.795 148.237 366.017 148.28 369.003 148.28C371.819 148.28 374.166 148.066 376.043 147.64C377.921 147.213 379.329 146.53 380.267 145.592C381.206 144.653 381.675 143.373 381.675 141.752L381.675 140.216C381.675 138.338 381.014 136.93 379.691 135.992C378.369 135.053 376.811 134.584 375.019 134.584L368.235 134.584C358.337 134.584 350.827 132.408 345.707 128.056C340.587 123.704 338.027 116.408 338.027 106.168L338.027 101.944C338.027 92.5572 340.843 85.5385 346.475 80.8879C352.107 76.2372 360.214 73.9119 370.795 73.9119C374.806 73.9119 378.582 74.1039 382.123 74.4879C385.665 74.8719 388.993 75.3412 392.107 75.8959C395.222 76.4505 398.017 77.0265 400.491 77.6239L400.491 97.3362C396.566 96.9942 392.15 96.7172 387.243 96.5042C382.337 96.2905 377.878 96.1839 373.867 96.1839C371.478 96.1839 369.345 96.3545 367.467 96.6962C365.59 97.0372 364.139 97.7202 363.115 98.7442C362.091 99.7682 361.579 101.261 361.579 103.224L361.579 104.504C361.579 106.637 362.262 108.258 363.627 109.368C364.993 110.477 367.083 111.032 369.899 111.032L378.347 111.032C384.321 111.032 389.291 112.162 393.259 114.424C397.227 116.685 400.214 119.757 402.219 123.64C404.225 127.522 405.227 131.938 405.227 136.888L405.227 141.112C405.227 149.218 403.819 155.405 401.003 159.672C398.187 163.938 394.177 166.818 388.971 168.312C383.766 169.805 377.537 170.552 370.283 170.552Z" fill="#ffffff" fill-rule="nonzero" opacity="1" stroke="none"/>
<path d="M416.875 169.784L416.875 74.6799L441.707 74.6799L441.707 169.784L416.875 169.784Z" fill="#ffffff" fill-rule="nonzero" opacity="1" stroke="none"/>
<path d="M480.491 169.784C474.774 169.784 470.081 168.93 466.411 167.224C462.742 165.517 460.054 162.829 458.347 159.16C456.641 155.49 455.787 150.797 455.787 145.08L455.787 74.6799L480.619 74.6799L480.619 140.856C480.619 142.306 480.854 143.544 481.323 144.568C481.793 145.592 482.539 146.338 483.563 146.808C484.587 147.277 485.825 147.512 487.275 147.512L514.923 147.512L514.923 169.784L480.491 169.784Z" fill="#ffffff" fill-rule="nonzero" opacity="1" stroke="none"/>
<path d="M543.083 169.784L514.923 74.6799L540.651 74.6799L558.699 142.776L576.747 74.6799L602.219 74.6799L574.059 169.784L543.083 169.784Z" fill="#ffffff" fill-rule="nonzero" opacity="1" stroke="none"/>
<path d="M631.787 170.552C629.739 170.552 627.286 170.338 624.427 169.912C621.569 169.485 618.795 168.546 616.107 167.096C613.419 165.645 611.179 163.405 609.387 160.376C607.595 157.346 606.699 153.186 606.699 147.896L606.699 98.2322C606.699 93.6239 607.425 89.7839 608.875 86.7119C610.326 83.6399 612.203 81.2292 614.507 79.4799C616.811 77.7305 619.371 76.4932 622.187 75.7679C625.003 75.0425 627.734 74.6799 630.379 74.6799C637.547 74.6799 643.713 74.7865 648.875 74.9999C654.038 75.2132 658.518 75.4479 662.315 75.7039C666.113 75.9599 669.462 76.2585 672.363 76.5999L672.363 97.5922L638.059 97.5922C635.926 97.5922 634.305 98.0612 633.195 99.0002C632.086 99.9382 631.531 101.346 631.531 103.224L631.531 111.16L665.963 112.44L665.963 132.152L631.531 133.432L631.531 140.6C631.531 142.136 631.766 143.394 632.235 144.376C632.705 145.357 633.366 146.082 634.219 146.552C635.073 147.021 636.011 147.256 637.035 147.256L672.363 147.256L672.363 168.248C668.694 168.76 664.513 169.186 659.819 169.528C655.126 169.869 650.347 170.125 645.483 170.296C640.619 170.466 636.054 170.552 631.787 170.552Z" fill="#ffffff" fill-rule="nonzero" opacity="1" stroke="none"/>
<path d="M684.011 169.784L684.011 74.6799L724.587 74.6799C728.769 74.6799 732.609 75.1919 736.107 76.2159C739.606 77.2399 742.635 78.9679 745.195 81.3999C747.755 83.8319 749.739 87.0959 751.147 91.1919C752.555 95.2879 753.259 100.45 753.259 106.68C753.259 110.605 752.918 114.018 752.235 116.92C751.553 119.821 750.635 122.274 749.483 124.28C748.331 126.285 746.966 127.97 745.387 129.336C743.809 130.701 742.123 131.896 740.331 132.92L756.843 169.784L731.627 169.784L718.315 137.016C717.547 137.016 716.758 137.016 715.947 137.016C715.137 137.016 714.347 137.016 713.579 137.016C712.811 137.016 712.022 137.016 711.211 137.016C710.401 137.016 709.611 137.016 708.843 137.016L708.843 169.784L684.011 169.784ZM708.843 117.304L720.107 117.304C721.473 117.304 722.667 117.112 723.691 116.728C724.715 116.344 725.59 115.725 726.315 114.872C727.041 114.018 727.574 112.93 727.915 111.608C728.257 110.285 728.427 108.685 728.427 106.808C728.427 104.93 728.257 103.352 727.915 102.072C727.574 100.792 727.041 99.7892 726.315 99.0642C725.59 98.3382 724.715 97.8052 723.691 97.4642C722.667 97.1222 721.473 96.9522 720.107 96.9522L708.843 96.9522L708.843 117.304Z" fill="#ffffff" fill-rule="nonzero" opacity="1" stroke="none"/>
<path d="M827.755 170.552C824.939 170.552 822.187 170.466 819.499 170.296C816.811 170.125 814.166 169.869 811.563 169.528C808.961 169.186 806.465 168.802 804.075 168.376C801.686 167.949 799.382 167.437 797.163 166.84L797.163 147.128C800.065 147.384 803.201 147.597 806.571 147.768C809.942 147.938 813.355 148.066 816.811 148.152C820.267 148.237 823.489 148.28 826.475 148.28C829.291 148.28 831.638 148.066 833.515 147.64C835.393 147.213 836.801 146.53 837.739 145.592C838.678 144.653 839.147 143.373 839.147 141.752L839.147 140.216C839.147 138.338 838.486 136.93 837.163 135.992C835.841 135.053 834.283 134.584 832.491 134.584L825.707 134.584C815.809 134.584 808.299 132.408 803.179 128.056C798.059 123.704 795.499 116.408 795.499 106.168L795.499 101.944C795.499 92.5572 798.315 85.5385 803.947 80.8879C809.579 76.2372 817.686 73.9119 828.267 73.9119C832.278 73.9119 836.054 74.1039 839.595 74.4879C843.137 74.8719 846.465 75.3412 849.579 75.8959C852.694 76.4505 855.489 77.0265 857.963 77.6239L857.963 97.3362C854.038 96.9942 849.622 96.7172 844.715 96.5042C839.809 96.2905 835.35 96.1839 831.339 96.1839C828.95 96.1839 826.817 96.3545 824.939 96.6962C823.062 97.0372 821.611 97.7202 820.587 98.7442C819.563 99.7682 819.051 101.261 819.051 103.224L819.051 104.504C819.051 106.637 819.734 108.258 821.099 109.368C822.465 110.477 824.555 111.032 827.371 111.032L835.819 111.032C841.793 111.032 846.763 112.162 850.731 114.424C854.699 116.685 857.686 119.757 859.691 123.64C861.697 127.522 862.699 131.938 862.699 136.888L862.699 141.112C862.699 149.218 861.291 155.405 858.475 159.672C855.659 163.938 851.649 166.818 846.443 168.312C841.238 169.805 835.009 170.552 827.755 170.552Z" fill="#ffffff" fill-rule="nonzero" opacity="1" stroke="none"/>
<path d="M911.595 170.424C906.39 170.424 901.462 169.997 896.811 169.144C892.161 168.29 888.043 166.712 884.459 164.408C880.875 162.104 878.081 158.861 876.075 154.68C874.07 150.498 873.067 145.08 873.067 138.424L873.067 74.6799L897.899 74.6799L897.899 138.296C897.899 140.514 898.433 142.349 899.499 143.8C900.566 145.25 902.123 146.338 904.171 147.064C906.219 147.789 908.694 148.152 911.595 148.152C914.497 148.152 916.971 147.789 919.019 147.064C921.067 146.338 922.625 145.25 923.691 143.8C924.758 142.349 925.291 140.514 925.291 138.296L925.291 74.6799L950.123 74.6799L950.123 138.424C950.123 145.08 949.121 150.498 947.115 154.68C945.11 158.861 942.315 162.104 938.731 164.408C935.147 166.712 931.051 168.29 926.443 169.144C921.835 169.997 916.886 170.424 911.595 170.424Z" fill="#ffffff" fill-rule="nonzero" opacity="1" stroke="none"/>
<path d="M962.923 169.784L962.923 74.6799L1003.5 74.6799C1007.68 74.6799 1011.52 75.1919 1015.02 76.2159C1018.52 77.2399 1021.55 78.9679 1024.11 81.3999C1026.67 83.8319 1028.65 87.0959 1030.06 91.1919C1031.47 95.2879 1032.17 100.45 1032.17 106.68C1032.17 110.605 1031.83 114.018 1031.15 116.92C1030.46 119.821 1029.55 122.274 1028.39 124.28C1027.24 126.285 1025.88 127.97 1024.3 129.336C1022.72 130.701 1021.03 131.896 1019.24 132.92L1035.75 169.784L1010.54 169.784L997.227 137.016C996.459 137.016 995.67 137.016 994.859 137.016C994.049 137.016 993.259 137.016 992.491 137.016C991.723 137.016 990.934 137.016 990.123 137.016C989.313 137.016 988.523 137.016 987.755 137.016L987.755 169.784L962.923 169.784ZM987.755 117.304L999.019 117.304C1000.38 117.304 1001.58 117.112 1002.6 116.728C1003.63 116.344 1004.5 115.725 1005.23 114.872C1005.95 114.018 1006.49 112.93 1006.83 111.608C1007.17 110.285 1007.34 108.685 1007.34 106.808C1007.34 104.93 1007.17 103.352 1006.83 102.072C1006.49 100.792 1005.95 99.7892 1005.23 99.0642C1004.5 98.3382 1003.63 97.8052 1002.6 97.4642C1001.58 97.1222 1000.38 96.9522 999.019 96.9522L987.755 96.9522L987.755 117.304Z" fill="#ffffff" fill-rule="nonzero" opacity="1" stroke="none"/>
<path d="M1044.84 169.784L1044.84 98.2322C1044.84 93.6239 1045.57 89.7839 1047.02 86.7119C1048.47 83.6399 1050.35 81.2292 1052.65 79.4799C1054.95 77.7305 1057.51 76.4932 1060.33 75.7679C1063.15 75.0425 1065.88 74.6799 1068.52 74.6799C1071.17 74.6799 1074.84 74.7012 1079.53 74.7439C1084.22 74.7865 1089.32 74.9572 1094.83 75.2559C1100.33 75.5545 1105.56 76.0452 1110.51 76.7279L1110.51 97.5922L1075.69 97.5922C1073.56 97.5922 1072.02 98.1682 1071.08 99.3202C1070.14 100.472 1069.67 101.688 1069.67 102.968L1069.67 113.72L1104.11 115L1104.11 134.712L1069.67 135.992L1069.67 169.784L1044.84 169.784Z" fill="#ffffff" fill-rule="nonzero" opacity="1" stroke="none"/>
<path d="M1144.55 170.552C1142.51 170.552 1140.05 170.338 1137.19 169.912C1134.34 169.485 1131.56 168.546 1128.87 167.096C1126.19 165.645 1123.95 163.405 1122.15 160.376C1120.36 157.346 1119.47 153.186 1119.47 147.896L1119.47 98.2322C1119.47 93.6239 1120.19 89.7839 1121.64 86.7119C1123.09 83.6399 1124.97 81.2292 1127.27 79.4799C1129.58 77.7305 1132.14 76.4932 1134.95 75.7679C1137.77 75.0425 1140.5 74.6799 1143.15 74.6799C1150.31 74.6799 1156.48 74.7865 1161.64 74.9999C1166.8 75.2132 1171.28 75.4479 1175.08 75.7039C1178.88 75.9599 1182.23 76.2585 1185.13 76.5999L1185.13 97.5922L1150.83 97.5922C1148.69 97.5922 1147.07 98.0612 1145.96 99.0002C1144.85 99.9382 1144.3 101.346 1144.3 103.224L1144.3 111.16L1178.73 112.44L1178.73 132.152L1144.3 133.432L1144.3 140.6C1144.3 142.136 1144.53 143.394 1145 144.376C1145.47 145.357 1146.13 146.082 1146.99 146.552C1147.84 147.021 1148.78 147.256 1149.8 147.256L1185.13 147.256L1185.13 168.248C1181.46 168.76 1177.28 169.186 1172.59 169.528C1167.89 169.869 1163.11 170.125 1158.25 170.296C1153.39 170.466 1148.82 170.552 1144.55 170.552Z" fill="#ffffff" fill-rule="nonzero" opacity="1" stroke="none"/>
<path d="M1196.78 169.784L1196.78 74.6799L1237.35 74.6799C1241.54 74.6799 1245.38 75.1919 1248.87 76.2159C1252.37 77.2399 1255.4 78.9679 1257.96 81.3999C1260.52 83.8319 1262.51 87.0959 1263.91 91.1919C1265.32 95.2879 1266.03 100.45 1266.03 106.68C1266.03 110.605 1265.68 114.018 1265 116.92C1264.32 119.821 1263.4 122.274 1262.25 124.28C1261.1 126.285 1259.73 127.97 1258.15 129.336C1256.58 130.701 1254.89 131.896 1253.1 132.92L1269.61 169.784L1244.39 169.784L1231.08 137.016C1230.31 137.016 1229.52 137.016 1228.71 137.016C1227.9 137.016 1227.11 137.016 1226.35 137.016C1225.58 137.016 1224.79 137.016 1223.98 137.016C1223.17 137.016 1222.38 137.016 1221.61 137.016L1221.61 169.784L1196.78 169.784ZM1221.61 117.304L1232.87 117.304C1234.24 117.304 1235.43 117.112 1236.46 116.728C1237.48 116.344 1238.36 115.725 1239.08 114.872C1239.81 114.018 1240.34 112.93 1240.68 111.608C1241.02 110.285 1241.19 108.685 1241.19 106.808C1241.19 104.93 1241.02 103.352 1240.68 102.072C1240.34 100.792 1239.81 99.7892 1239.08 99.0642C1238.36 98.3382 1237.48 97.8052 1236.46 97.4642C1235.43 97.1222 1234.24 96.9522 1232.87 96.9522L1221.61 96.9522L1221.61 117.304Z" fill="#ffffff" fill-rule="nonzero" opacity="1" stroke="none"/>
<path d="M1308.52 170.552C1305.71 170.552 1302.95 170.466 1300.27 170.296C1297.58 170.125 1294.93 169.869 1292.33 169.528C1289.73 169.186 1287.23 168.802 1284.84 168.376C1282.45 167.949 1280.15 167.437 1277.93 166.84L1277.93 147.128C1280.83 147.384 1283.97 147.597 1287.34 147.768C1290.71 147.938 1294.12 148.066 1297.58 148.152C1301.03 148.237 1304.26 148.28 1307.24 148.28C1310.06 148.28 1312.4 148.066 1314.28 147.64C1316.16 147.213 1317.57 146.53 1318.51 145.592C1319.44 144.653 1319.91 143.373 1319.91 141.752L1319.91 140.216C1319.91 138.338 1319.25 136.93 1317.93 135.992C1316.61 135.053 1315.05 134.584 1313.26 134.584L1306.47 134.584C1296.58 134.584 1289.07 132.408 1283.95 128.056C1278.83 123.704 1276.27 116.408 1276.27 106.168L1276.27 101.944C1276.27 92.5572 1279.08 85.5385 1284.71 80.8879C1290.35 76.2372 1298.45 73.9119 1309.03 73.9119C1313.04 73.9119 1316.82 74.1039 1320.36 74.4879C1323.9 74.8719 1327.23 75.3412 1330.35 75.8959C1333.46 76.4505 1336.26 77.0265 1338.73 77.6239L1338.73 97.3362C1334.8 96.9942 1330.39 96.7172 1325.48 96.5042C1320.58 96.2905 1316.12 96.1839 1312.11 96.1839C1309.72 96.1839 1307.58 96.3545 1305.71 96.6962C1303.83 97.0372 1302.38 97.7202 1301.35 98.7442C1300.33 99.7682 1299.82 101.261 1299.82 103.224L1299.82 104.504C1299.82 106.637 1300.5 108.258 1301.87 109.368C1303.23 110.477 1305.32 111.032 1308.14 111.032L1316.59 111.032C1322.56 111.032 1327.53 112.162 1331.5 114.424C1335.47 116.685 1338.45 119.757 1340.46 123.64C1342.46 127.522 1343.47 131.938 1343.47 136.888L1343.47 141.112C1343.47 149.218 1342.06 155.405 1339.24 159.672C1336.43 163.938 1332.42 166.818 1327.21 168.312C1322 169.805 1315.78 170.552 1308.52 170.552Z" fill="#ffffff" fill-rule="nonzero" opacity="1" stroke="none"/>
</g>
<g opacity="1">
<path d="M338.419 242.54L338.419 199.94L348.919 199.94C353.039 199.94 356.549 200.59 359.449 201.89C362.349 203.19 364.699 204.9 366.499 207.02C368.299 209.14 369.619 211.46 370.459 213.98C371.299 216.5 371.719 219 371.719 221.48C371.719 224.72 371.159 227.63 370.039 230.21C368.919 232.79 367.389 235 365.449 236.84C363.509 238.68 361.299 240.09 358.819 241.07C356.339 242.05 353.719 242.54 350.959 242.54L338.419 242.54ZM341.359 239.72L350.179 239.72C352.739 239.72 355.139 239.3 357.379 238.46C359.619 237.62 361.589 236.4 363.289 234.8C364.989 233.2 366.319 231.27 367.279 229.01C368.239 226.75 368.719 224.18 368.719 221.3C368.719 218.86 368.309 216.53 367.489 214.31C366.669 212.09 365.439 210.12 363.799 208.4C362.159 206.68 360.139 205.32 357.739 204.32C355.339 203.32 352.539 202.82 349.339 202.82L341.359 202.82L341.359 239.72Z" fill="#ffffff" fill-rule="nonzero" opacity="1" stroke="none"/>
<path d="M381.139 219.08L383.959 219.08L383.959 242.54L381.139 242.54L381.139 219.08ZM380.539 210.44C380.539 209.88 380.759 209.41 381.199 209.03C381.639 208.65 382.119 208.46 382.639 208.46C383.199 208.46 383.679 208.65 384.079 209.03C384.479 209.41 384.679 209.88 384.679 210.44C384.679 211.04 384.479 211.53 384.079 211.91C383.679 212.29 383.199 212.48 382.639 212.48C382.119 212.48 381.639 212.28 381.199 211.88C380.759 211.48 380.539 211 380.539 210.44Z" fill="#ffffff" fill-rule="nonzero" opacity="1" stroke="none"/>
<path d="M405.079 254C403.759 254 402.499 253.85 401.299 253.55C400.099 253.25 398.919 252.74 397.759 252.02C396.599 251.3 395.399 250.36 394.159 249.2L395.839 247.28C397.559 248.92 399.159 250.03 400.639 250.61C402.119 251.19 403.559 251.48 404.959 251.48C407.399 251.48 409.339 251.09 410.779 250.31C412.219 249.53 413.259 248.49 413.899 247.19C414.539 245.89 414.879 244.44 414.919 242.84L414.979 235.22L415.639 235.94C414.839 238.02 413.409 239.72 411.349 241.04C409.289 242.36 406.959 243.02 404.359 243.02C402.159 243.02 400.149 242.47 398.329 241.37C396.509 240.27 395.059 238.79 393.979 236.93C392.899 235.07 392.359 233 392.359 230.72C392.359 228.28 392.919 226.14 394.039 224.3C395.159 222.46 396.679 221.01 398.599 219.95C400.519 218.89 402.639 218.36 404.959 218.36C407.119 218.36 409.169 218.92 411.109 220.04C413.049 221.16 414.459 222.64 415.339 224.48L414.979 225.8L415.279 219.08L417.799 219.08L417.799 242.9C417.799 244.82 417.369 246.63 416.509 248.33C415.649 250.03 414.289 251.4 412.429 252.44C410.569 253.48 408.119 254 405.079 254ZM395.179 230.66C395.179 232.5 395.619 234.17 396.499 235.67C397.379 237.17 398.569 238.37 400.069 239.27C401.569 240.17 403.239 240.62 405.079 240.62C406.839 240.62 408.439 240.23 409.879 239.45C411.319 238.67 412.499 237.62 413.419 236.3C414.339 234.98 414.859 233.56 414.979 232.04L414.979 228.56C414.659 227.04 414.029 225.7 413.089 224.54C412.149 223.38 410.989 222.46 409.609 221.78C408.229 221.1 406.719 220.76 405.079 220.76C403.239 220.76 401.569 221.18 400.069 222.02C398.569 222.86 397.379 224.02 396.499 225.5C395.619 226.98 395.179 228.7 395.179 230.66Z" fill="#ffffff" fill-rule="nonzero" opacity="1" stroke="none"/>
<path d="M428.479 219.08L431.299 219.08L431.299 242.54L428.479 242.54L428.479 219.08ZM427.879 210.44C427.879 209.88 428.099 209.41 428.539 209.03C428.979 208.65 429.459 208.46 429.979 208.46C430.539 208.46 431.019 208.65 431.419 209.03C431.819 209.41 432.019 209.88 432.019 210.44C432.019 211.04 431.819 211.53 431.419 211.91C431.019 212.29 430.539 212.48 429.979 212.48C429.459 212.48 428.979 212.28 428.539 211.88C428.099 211.48 427.879 211 427.879 210.44Z" fill="#ffffff" fill-rule="nonzero" opacity="1" stroke="none"/>
<path d="M444.319 208.76L447.199 208.76L447.199 219.38L454.459 219.38L454.459 221.66L447.199 221.66L447.199 242.54L444.319 242.54L444.319 221.66L439.339 221.66L439.339 219.38L444.319 219.38L444.319 208.76Z" fill="#ffffff" fill-rule="nonzero" opacity="1" stroke="none"/>
<path d="M471.199 243.02C468.959 243.02 466.929 242.51 465.109 241.49C463.289 240.47 461.849 239.04 460.789 237.2C459.729 235.36 459.199 233.22 459.199 230.78C459.199 228.18 459.759 225.95 460.879 224.09C461.999 222.23 463.519 220.81 465.439 219.83C467.359 218.85 469.539 218.36 471.979 218.36C474.059 218.36 476.029 218.98 477.889 220.22C479.749 221.46 481.079 223.02 481.879 224.9L481.459 225.74L481.819 219.08L484.339 219.08L484.339 242.54L481.519 242.54L481.519 235.28L482.119 236.36C481.839 237.16 481.359 237.95 480.679 238.73C479.999 239.51 479.169 240.23 478.189 240.89C477.209 241.55 476.129 242.07 474.949 242.45C473.769 242.83 472.519 243.02 471.199 243.02ZM471.799 240.62C473.559 240.62 475.149 240.25 476.569 239.51C477.989 238.77 479.139 237.74 480.019 236.42C480.899 235.1 481.399 233.58 481.519 231.86L481.519 228.5C481.199 227.02 480.569 225.7 479.629 224.54C478.689 223.38 477.539 222.46 476.179 221.78C474.819 221.1 473.339 220.76 471.739 220.76C469.979 220.76 468.359 221.17 466.879 221.99C465.399 222.81 464.219 223.96 463.339 225.44C462.459 226.92 462.019 228.66 462.019 230.66C462.019 232.5 462.459 234.17 463.339 235.67C464.219 237.17 465.409 238.37 466.909 239.27C468.409 240.17 470.039 240.62 471.799 240.62Z" fill="#ffffff" fill-rule="nonzero" opacity="1" stroke="none"/>
<path d="M495.019 196.94L497.839 196.94L497.839 242.54L495.019 242.54L495.019 196.94Z" fill="#ffffff" fill-rule="nonzero" opacity="1" stroke="none"/>
<path d="M528.379 199.94L531.319 199.94L531.319 239.72L554.659 239.72L554.659 242.54L528.379 242.54L528.379 199.94Z" fill="#ffffff" fill-rule="nonzero" opacity="1" stroke="none"/>
<path d="M563.119 219.08L565.939 219.08L565.939 242.54L563.119 242.54L563.119 219.08ZM562.519 210.44C562.519 209.88 562.739 209.41 563.179 209.03C563.619 208.65 564.099 208.46 564.619 208.46C565.179 208.46 565.659 208.65 566.059 209.03C566.459 209.41 566.659 209.88 566.659 210.44C566.659 211.04 566.459 211.53 566.059 211.91C565.659 212.29 565.179 212.48 564.619 212.48C564.099 212.48 563.619 212.28 563.179 211.88C562.739 211.48 562.519 211 562.519 210.44Z" fill="#ffffff" fill-rule="nonzero" opacity="1" stroke="none"/>
<path d="M578.959 208.76L581.839 208.76L581.839 219.38L589.099 219.38L589.099 221.66L581.839 221.66L581.839 242.54L578.959 242.54L578.959 221.66L573.979 221.66L573.979 219.38L578.959 219.38L578.959 208.76Z" fill="#ffffff" fill-rule="nonzero" opacity="1" stroke="none"/>
<path d="M606.319 243.02C603.879 243.02 601.719 242.48 599.839 241.4C597.959 240.32 596.489 238.85 595.429 236.99C594.369 235.13 593.839 233.04 593.839 230.72C593.839 228.44 594.399 226.36 595.519 224.48C596.639 222.6 598.149 221.1 600.049 219.98C601.949 218.86 604.059 218.3 606.379 218.3C609.179 218.3 611.529 219.12 613.429 220.76C615.329 222.4 616.699 224.54 617.539 227.18L597.019 235.1L596.179 233.06L614.959 225.74L614.359 226.58C613.679 224.98 612.649 223.6 611.269 222.44C609.889 221.28 608.199 220.7 606.199 220.7C604.399 220.7 602.779 221.14 601.339 222.02C599.899 222.9 598.749 224.08 597.889 225.56C597.029 227.04 596.599 228.72 596.599 230.6C596.599 232.36 597.009 234 597.829 235.52C598.649 237.04 599.799 238.26 601.279 239.18C602.759 240.1 604.459 240.56 606.379 240.56C607.659 240.56 608.889 240.32 610.069 239.84C611.249 239.36 612.299 238.74 613.219 237.98L614.659 240.02C613.539 240.9 612.249 241.62 610.789 242.18C609.329 242.74 607.839 243.02 606.319 243.02Z" fill="#ffffff" fill-rule="nonzero" opacity="1" stroke="none"/>
<path d="M627.799 219.08L628.099 226.28L627.739 225.38C628.259 223.94 629.079 222.7 630.199 221.66C631.319 220.62 632.569 219.82 633.949 219.26C635.329 218.7 636.659 218.42 637.939 218.42L637.819 221.18C636.019 221.18 634.389 221.58 632.929 222.38C631.469 223.18 630.309 224.25 629.449 225.59C628.589 226.93 628.159 228.44 628.159 230.12L628.159 242.54L625.339 242.54L625.339 219.08L627.799 219.08Z" fill="#ffffff" fill-rule="nonzero" opacity="1" stroke="none"/>
<path d="M655.279 243.02C653.039 243.02 651.009 242.51 649.189 241.49C647.369 240.47 645.929 239.04 644.869 237.2C643.809 235.36 643.279 233.22 643.279 230.78C643.279 228.18 643.839 225.95 644.959 224.09C646.079 222.23 647.599 220.81 649.519 219.83C651.439 218.85 653.619 218.36 656.059 218.36C658.139 218.36 660.109 218.98 661.969 220.22C663.829 221.46 665.159 223.02 665.959 224.9L665.539 225.74L665.899 219.08L668.419 219.08L668.419 242.54L665.599 242.54L665.599 235.28L666.199 236.36C665.919 237.16 665.439 237.95 664.759 238.73C664.079 239.51 663.249 240.23 662.269 240.89C661.289 241.55 660.209 242.07 659.029 242.45C657.849 242.83 656.599 243.02 655.279 243.02ZM655.879 240.62C657.639 240.62 659.229 240.25 660.649 239.51C662.069 238.77 663.219 237.74 664.099 236.42C664.979 235.1 665.479 233.58 665.599 231.86L665.599 228.5C665.279 227.02 664.649 225.7 663.709 224.54C662.769 223.38 661.619 222.46 660.259 221.78C658.899 221.1 657.419 220.76 655.819 220.76C654.059 220.76 652.439 221.17 650.959 221.99C649.479 222.81 648.299 223.96 647.419 225.44C646.539 226.92 646.099 228.66 646.099 230.66C646.099 232.5 646.539 234.17 647.419 235.67C648.299 237.17 649.489 238.37 650.989 239.27C652.489 240.17 654.119 240.62 655.879 240.62Z" fill="#ffffff" fill-rule="nonzero" opacity="1" stroke="none"/>
<path d="M697.219 240.26C696.139 241.14 694.919 241.82 693.559 242.3C692.199 242.78 690.779 243.02 689.299 243.02C686.899 243.02 684.759 242.49 682.879 241.43C680.999 240.37 679.519 238.92 678.439 237.08C677.359 235.24 676.819 233.14 676.819 230.78C676.819 228.42 677.379 226.32 678.499 224.48C679.619 222.64 681.109 221.19 682.969 220.13C684.829 219.07 686.859 218.54 689.059 218.54C690.699 218.54 692.219 218.78 693.619 219.26C695.019 219.74 696.239 220.42 697.279 221.3L695.779 223.22C694.939 222.54 693.959 221.98 692.839 221.54C691.719 221.1 690.519 220.88 689.239 220.88C687.479 220.88 685.869 221.32 684.409 222.2C682.949 223.08 681.789 224.27 680.929 225.77C680.069 227.27 679.639 228.94 679.639 230.78C679.639 232.58 680.069 234.23 680.929 235.73C681.789 237.23 682.969 238.42 684.469 239.3C685.969 240.18 687.639 240.62 689.479 240.62C690.679 240.62 691.799 240.43 692.839 240.05C693.879 239.67 694.819 239.16 695.659 238.52L697.219 240.26Z" fill="#ffffff" fill-rule="nonzero" opacity="1" stroke="none"/>
<path d="M707.239 253.82L722.539 219.08L725.299 219.08L710.179 253.82L707.239 253.82ZM712.519 242.78L701.419 219.08L704.599 219.08L714.739 241.28L712.519 242.78Z" fill="#ffffff" fill-rule="nonzero" opacity="1" stroke="none"/>
<path d="M752.179 199.94L776.059 199.94L776.059 202.76L755.119 202.76L755.119 220.34L773.659 220.34L773.659 223.1L755.119 223.1L755.119 242.54L752.179 242.54L752.179 199.94Z" fill="#ffffff" fill-rule="nonzero" opacity="1" stroke="none"/>
<path d="M779.059 230.66C779.059 228.38 779.609 226.3 780.709 224.42C781.809 222.54 783.309 221.05 785.209 219.95C787.109 218.85 789.239 218.3 791.599 218.3C793.999 218.3 796.139 218.85 798.019 219.95C799.899 221.05 801.379 222.54 802.459 224.42C803.539 226.3 804.079 228.38 804.079 230.66C804.079 232.94 803.539 235.02 802.459 236.9C801.379 238.78 799.889 240.27 797.989 241.37C796.089 242.47 793.959 243.02 791.599 243.02C789.199 243.02 787.059 242.49 785.179 241.43C783.299 240.37 781.809 238.91 780.709 237.05C779.609 235.19 779.059 233.06 779.059 230.66ZM781.879 230.72C781.879 232.56 782.309 234.23 783.169 235.73C784.029 237.23 785.189 238.42 786.649 239.3C788.109 240.18 789.739 240.62 791.539 240.62C793.339 240.62 794.969 240.18 796.429 239.3C797.889 238.42 799.049 237.23 799.909 235.73C800.769 234.23 801.199 232.56 801.199 230.72C801.199 228.88 800.769 227.21 799.909 225.71C799.049 224.21 797.889 223.01 796.429 222.11C794.969 221.21 793.339 220.76 791.539 220.76C789.699 220.76 788.049 221.23 786.589 222.17C785.129 223.11 783.979 224.34 783.139 225.86C782.299 227.38 781.879 229 781.879 230.72Z" fill="#ffffff" fill-rule="nonzero" opacity="1" stroke="none"/>
<path d="M814.939 219.08L815.239 226.28L814.879 225.38C815.399 223.94 816.219 222.7 817.339 221.66C818.459 220.62 819.709 219.82 821.089 219.26C822.469 218.7 823.799 218.42 825.079 218.42L824.959 221.18C823.159 221.18 821.529 221.58 820.069 222.38C818.609 223.18 817.449 224.25 816.589 225.59C815.729 226.93 815.299 228.44 815.299 230.12L815.299 242.54L812.479 242.54L812.479 219.08L814.939 219.08Z" fill="#ffffff" fill-rule="nonzero" opacity="1" stroke="none"/>
<path d="M850.159 221.3C850.159 218.3 850.719 215.49 851.839 212.87C852.959 210.25 854.519 207.93 856.519 205.91C858.519 203.89 860.829 202.31 863.449 201.17C866.069 200.03 868.879 199.46 871.879 199.46C874.879 199.46 877.699 200.03 880.339 201.17C882.979 202.31 885.299 203.89 887.299 205.91C889.299 207.93 890.869 210.25 892.009 212.87C893.149 215.49 893.719 218.3 893.719 221.3C893.719 224.3 893.149 227.11 892.009 229.73C890.869 232.35 889.299 234.66 887.299 236.66C885.299 238.66 882.979 240.22 880.339 241.34C877.699 242.46 874.879 243.02 871.879 243.02C868.879 243.02 866.069 242.48 863.449 241.4C860.829 240.32 858.519 238.8 856.519 236.84C854.519 234.88 852.959 232.58 851.839 229.94C850.719 227.3 850.159 224.42 850.159 221.3ZM853.159 221.36C853.159 223.96 853.639 226.4 854.599 228.68C855.559 230.96 856.899 232.96 858.619 234.68C860.339 236.4 862.329 237.75 864.589 238.73C866.849 239.71 869.259 240.2 871.819 240.2C874.459 240.2 876.919 239.71 879.199 238.73C881.479 237.75 883.479 236.4 885.199 234.68C886.919 232.96 888.269 230.96 889.249 228.68C890.229 226.4 890.719 223.94 890.719 221.3C890.719 218.7 890.229 216.25 889.249 213.95C888.269 211.65 886.919 209.63 885.199 207.89C883.479 206.15 881.479 204.78 879.199 203.78C876.919 202.78 874.479 202.28 871.879 202.28C869.239 202.28 866.779 202.79 864.499 203.81C862.219 204.83 860.229 206.22 858.529 207.98C856.829 209.74 855.509 211.77 854.569 214.07C853.629 216.37 853.159 218.8 853.159 221.36Z" fill="#ffffff" fill-rule="nonzero" opacity="1" stroke="none"/>
<path d="M903.139 196.94L905.959 196.94L905.959 242.54L903.139 242.54L903.139 196.94Z" fill="#ffffff" fill-rule="nonzero" opacity="1" stroke="none"/>
<path d="M926.239 243.02C924.039 243.02 922.039 242.49 920.239 241.43C918.439 240.37 917.009 238.9 915.949 237.02C914.889 235.14 914.359 233.02 914.359 230.66C914.359 228.14 914.899 225.96 915.979 224.12C917.059 222.28 918.529 220.86 920.389 219.86C922.249 218.86 924.299 218.36 926.539 218.36C928.779 218.36 930.909 218.94 932.929 220.1C934.949 221.26 936.419 222.78 937.339 224.66L936.859 225.98L936.859 196.94L939.679 196.94L939.679 242.54L936.799 242.54L936.799 235.34L937.399 236.66C936.399 238.54 934.899 240.07 932.899 241.25C930.899 242.43 928.679 243.02 926.239 243.02ZM926.959 240.56C928.759 240.56 930.379 240.17 931.819 239.39C933.259 238.61 934.419 237.55 935.299 236.21C936.179 234.87 936.679 233.36 936.799 231.68L936.799 228.68C936.519 227.16 935.899 225.8 934.939 224.6C933.979 223.4 932.819 222.45 931.459 221.75C930.099 221.05 928.599 220.7 926.959 220.7C925.159 220.7 923.519 221.12 922.039 221.96C920.559 222.8 919.379 223.96 918.499 225.44C917.619 226.92 917.179 228.64 917.179 230.6C917.179 232.44 917.619 234.11 918.499 235.61C919.379 237.11 920.569 238.31 922.069 239.21C923.569 240.11 925.199 240.56 926.959 240.56Z" fill="#ffffff" fill-rule="nonzero" opacity="1" stroke="none"/>
<path d="M960.559 243.02C958.119 243.02 955.959 242.48 954.079 241.4C952.199 240.32 950.729 238.85 949.669 236.99C948.609 235.13 948.079 233.04 948.079 230.72C948.079 228.44 948.639 226.36 949.759 224.48C950.879 222.6 952.389 221.1 954.289 219.98C956.189 218.86 958.299 218.3 960.619 218.3C963.419 218.3 965.769 219.12 967.669 220.76C969.569 222.4 970.939 224.54 971.779 227.18L951.259 235.1L950.419 233.06L969.199 225.74L968.599 226.58C967.919 224.98 966.889 223.6 965.509 222.44C964.129 221.28 962.439 220.7 960.439 220.7C958.639 220.7 957.019 221.14 955.579 222.02C954.139 222.9 952.989 224.08 952.129 225.56C951.269 227.04 950.839 228.72 950.839 230.6C950.839 232.36 951.249 234 952.069 235.52C952.889 237.04 954.039 238.26 955.519 239.18C956.999 240.1 958.699 240.56 960.619 240.56C961.899 240.56 963.129 240.32 964.309 239.84C965.489 239.36 966.539 238.74 967.459 237.98L968.899 240.02C967.779 240.9 966.489 241.62 965.029 242.18C963.569 242.74 962.079 243.02 960.559 243.02Z" fill="#ffffff" fill-rule="nonzero" opacity="1" stroke="none"/>
<path d="M982.039 219.08L982.339 226.28L981.979 225.38C982.499 223.94 983.319 222.7 984.439 221.66C985.559 220.62 986.809 219.82 988.189 219.26C989.569 218.7 990.899 218.42 992.179 218.42L992.059 221.18C990.259 221.18 988.629 221.58 987.169 222.38C985.709 223.18 984.549 224.25 983.689 225.59C982.829 226.93 982.399 228.44 982.399 230.12L982.399 242.54L979.579 242.54L979.579 219.08L982.039 219.08Z" fill="#ffffff" fill-rule="nonzero" opacity="1" stroke="none"/>
<path d="M1016.24 242.54L1034.24 198.08L1034.48 198.08L1052.48 242.54L1049.18 242.54L1033.52 202.76L1035.56 201.62L1019.18 242.54L1016.24 242.54ZM1024.94 225.68L1043.84 225.68L1044.68 228.44L1024.22 228.44L1024.94 225.68Z" fill="#ffffff" fill-rule="nonzero" opacity="1" stroke="none"/>
<path d="M1070.18 243.02C1067.98 243.02 1065.98 242.49 1064.18 241.43C1062.38 240.37 1060.95 238.9 1059.89 237.02C1058.83 235.14 1058.3 233.02 1058.3 230.66C1058.3 228.14 1058.84 225.96 1059.92 224.12C1061 222.28 1062.47 220.86 1064.33 219.86C1066.19 218.86 1068.24 218.36 1070.48 218.36C1072.72 218.36 1074.85 218.94 1076.87 220.1C1078.89 221.26 1080.36 222.78 1081.28 224.66L1080.8 225.98L1080.8 196.94L1083.62 196.94L1083.62 242.54L1080.74 242.54L1080.74 235.34L1081.34 236.66C1080.34 238.54 1078.84 240.07 1076.84 241.25C1074.84 242.43 1072.62 243.02 1070.18 243.02ZM1070.9 240.56C1072.7 240.56 1074.32 240.17 1075.76 239.39C1077.2 238.61 1078.36 237.55 1079.24 236.21C1080.12 234.87 1080.62 233.36 1080.74 231.68L1080.74 228.68C1080.46 227.16 1079.84 225.8 1078.88 224.6C1077.92 223.4 1076.76 222.45 1075.4 221.75C1074.04 221.05 1072.54 220.7 1070.9 220.7C1069.1 220.7 1067.46 221.12 1065.98 221.96C1064.5 222.8 1063.32 223.96 1062.44 225.44C1061.56 226.92 1061.12 228.64 1061.12 230.6C1061.12 232.44 1061.56 234.11 1062.44 235.61C1063.32 237.11 1064.51 238.31 1066.01 239.21C1067.51 240.11 1069.14 240.56 1070.9 240.56Z" fill="#ffffff" fill-rule="nonzero" opacity="1" stroke="none"/>
<path d="M1101.68 243.2C1099.48 243.2 1097.72 242.55 1096.4 241.25C1095.08 239.95 1094.38 238.26 1094.3 236.18L1094.3 219.08L1097.12 219.08L1097.12 235.34C1097.2 236.86 1097.69 238.12 1098.59 239.12C1099.49 240.12 1100.84 240.66 1102.64 240.74C1104.16 240.74 1105.58 240.34 1106.9 239.54C1108.22 238.74 1109.29 237.65 1110.11 236.27C1110.93 234.89 1111.34 233.32 1111.34 231.56L1111.34 219.08L1114.16 219.08L1114.16 242.54L1111.64 242.54L1111.34 235.16L1111.76 236.78C1111.36 237.98 1110.65 239.07 1109.63 240.05C1108.61 241.03 1107.41 241.8 1106.03 242.36C1104.65 242.92 1103.2 243.2 1101.68 243.2Z" fill="#ffffff" fill-rule="nonzero" opacity="1" stroke="none"/>
<path d="M1124.84 196.94L1127.66 196.94L1127.66 242.54L1124.84 242.54L1124.84 196.94Z" fill="#ffffff" fill-rule="nonzero" opacity="1" stroke="none"/>
<path d="M1140.68 208.76L1143.56 208.76L1143.56 219.38L1150.82 219.38L1150.82 221.66L1143.56 221.66L1143.56 242.54L1140.68 242.54L1140.68 221.66L1135.7 221.66L1135.7 219.38L1140.68 219.38L1140.68 208.76Z" fill="#ffffff" fill-rule="nonzero" opacity="1" stroke="none"/>
<path d="M1163.36 243.02C1162 243.02 1160.58 242.77 1159.1 242.27C1157.62 241.77 1156.42 240.96 1155.5 239.84L1156.82 237.98C1157.62 238.82 1158.57 239.49 1159.67 239.99C1160.77 240.49 1161.94 240.74 1163.18 240.74C1164.1 240.74 1164.97 240.61 1165.79 240.35C1166.61 240.09 1167.28 239.64 1167.8 239C1168.32 238.36 1168.58 237.5 1168.58 236.42C1168.58 235.3 1168.27 234.44 1167.65 233.84C1167.03 233.24 1166.25 232.75 1165.31 232.37C1164.37 231.99 1163.38 231.64 1162.34 231.32C1160.62 230.76 1159.21 230 1158.11 229.04C1157.01 228.08 1156.46 226.72 1156.46 224.96C1156.46 223.68 1156.77 222.56 1157.39 221.6C1158.01 220.64 1158.86 219.89 1159.94 219.35C1161.02 218.81 1162.24 218.54 1163.6 218.54C1164.84 218.54 1166.07 218.74 1167.29 219.14C1168.51 219.54 1169.62 220.22 1170.62 221.18L1169.36 223.16C1168.72 222.28 1167.87 221.68 1166.81 221.36C1165.75 221.04 1164.82 220.86 1164.02 220.82C1163.34 220.82 1162.63 220.96 1161.89 221.24C1161.15 221.52 1160.53 221.93 1160.03 222.47C1159.53 223.01 1159.28 223.72 1159.28 224.6C1159.28 225.52 1159.54 226.27 1160.06 226.85C1160.58 227.43 1161.25 227.9 1162.07 228.26C1162.89 228.62 1163.74 228.96 1164.62 229.28C1165.78 229.64 1166.87 230.07 1167.89 230.57C1168.91 231.07 1169.75 231.73 1170.41 232.55C1171.07 233.37 1171.4 234.46 1171.4 235.82C1171.4 237.18 1171.1 238.41 1170.5 239.51C1169.9 240.61 1169.01 241.47 1167.83 242.09C1166.65 242.71 1165.16 243.02 1163.36 243.02Z" fill="#ffffff" fill-rule="nonzero" opacity="1" stroke="none"/>
</g>
</g>
<g id="Icon" vectornator:layerName="Icon">
<path d="M153.183 17.0621C77.5485 16.9912 16.1693 77.4532 16.0993 152.097C16.0293 226.752 77.2951 287.319 152.93 287.389C228.574 287.46 289.943 227.008 290.013 152.354C290.083 77.71 228.828 17.133 153.183 17.0621ZM70.9047 230.3C65.5924 224.852 60.8525 218.873 56.7327 212.459C76.5898 195.944 102.2 185.969 130.197 185.995L175.852 186.038C210.981 186.071 242.905 172.936 267.142 151.474C267.142 151.772 267.186 152.046 267.186 152.333C267.176 163.001 265.56 173.275 262.744 183.051C237.696 199.143 207.896 208.597 175.831 208.566L130.176 208.524C107.53 208.502 86.8797 216.775 70.9047 230.3ZM46.333 191.867C43.4776 184.387 41.4237 176.532 40.2364 168.39C65.8979 151.066 96.8837 140.9 130.24 140.932L175.894 140.975C208.538 141.005 237.219 124.005 253.383 98.501C257.656 106.25 260.901 114.603 263.248 123.316C242.305 147.89 210.958 163.536 175.873 163.503L130.218 163.46C98.5779 163.427 69.5193 174.091 46.333 191.867ZM238.601 77.8409C228.012 101.708 203.957 118.472 175.915 118.446L130.261 118.403C97.2266 118.372 66.2216 127.088 39.4357 142.286C40.325 132.356 42.5629 122.829 45.8823 113.813C71.6581 102.311 100.209 95.8467 130.282 95.8749L175.936 95.9177C197.456 95.9379 215.438 81.1374 220.261 61.3303C226.967 66.1687 233.111 71.6959 238.601 77.8409ZM153.162 39.5871C169.402 39.6023 184.823 43.0162 198.804 49.0677L198.803 50.862C198.791 63.2903 188.54 73.4045 175.957 73.3927L130.303 73.3499C106.753 73.3278 84.0901 77.01 62.7084 83.5894C83.5989 56.8465 116.303 39.5526 153.162 39.5871ZM152.951 264.861C129.045 264.839 106.882 257.539 88.548 245.124C100.105 236.336 114.487 231.034 130.155 231.049L175.81 231.092C200.808 231.115 224.609 226.055 246.318 217.033C225.638 245.969 191.559 264.897 152.951 264.861Z" fill="#ffffff" fill-rule="nonzero" opacity="1" stroke="none"/>
</g>
</svg>
